<svg xmlns="http://www.w3.org/2000/svg" xmlns:xlink="http://www.w3.org/1999/xlink" viewBox="0 0 90 120"><defs><style>.cls-1{fill:url(#linear-gradient);}</style><linearGradient id="linear-gradient" y1="60" x2="90" y2="60" gradientUnits="userSpaceOnUse"><stop offset="0" stop-color="#558ffc"/><stop offset="1" stop-color="#6483ff"/></linearGradient></defs><title>Asset 6</title><g id="Layer_2" data-name="Layer 2"><g id="Layer_1-2" data-name="Layer 1"><path class="cls-1" d="M78.75,45H75V30a30,30,0,0,0-60,0V45H11.25A11.26,11.26,0,0,0,0,56.25v52.5A11.27,11.27,0,0,0,11.25,120h67.5A11.27,11.27,0,0,0,90,108.75V56.25A11.26,11.26,0,0,0,78.75,45ZM25,30a20,20,0,0,1,40,0V45H25ZM50,83.61V95a5,5,0,0,1-10,0V83.61a10,10,0,1,1,10,0Z"/></g></g></svg>