<svg xmlns="http://www.w3.org/2000/svg" xmlns:xlink="http://www.w3.org/1999/xlink" viewBox="0 0 100.12 120"><defs><style>.cls-1{fill:url(#linear-gradient);}.cls-2{fill:url(#linear-gradient-2);}</style><linearGradient id="linear-gradient" x1="20.4" y1="28.9" x2="78.2" y2="28.9" gradientUnits="userSpaceOnUse"><stop offset="0" stop-color="#558ffc"/><stop offset="1" stop-color="#6483ff"/></linearGradient><linearGradient id="linear-gradient-2" x1="0" y1="88.98" x2="100.12" y2="88.98" xlink:href="#linear-gradient"/></defs><title>Asset 5</title><g id="Layer_2" data-name="Layer 2"><g id="Layer_1-2" data-name="Layer 1"><path class="cls-1" d="M49.3,57.8a28,28,0,0,0,20.44-8.46A28,28,0,0,0,78.2,28.9,28,28,0,0,0,69.74,8.47,28,28,0,0,0,49.3,0,27.94,27.94,0,0,0,28.87,8.47,28,28,0,0,0,20.4,28.9a28,28,0,0,0,8.47,20.44A28,28,0,0,0,49.3,57.8Z"/><path class="cls-2" d="M99.87,92.27a71.58,71.58,0,0,0-1-7.58A60.28,60.28,0,0,0,97,77.07,37.29,37.29,0,0,0,93.9,70a26.71,26.71,0,0,0-4.72-6.16,20.88,20.88,0,0,0-6.79-4.27A23.49,23.49,0,0,0,73.72,58c-1.22,0-2.41.5-4.7,2-1.4.92-3,2-4.89,3.15A28.08,28.08,0,0,1,57.8,65.9a24.62,24.62,0,0,1-15.49,0A28.08,28.08,0,0,1,36,63.11C34.16,62,32.51,60.89,31.08,60c-2.28-1.49-3.47-2-4.69-2a23.49,23.49,0,0,0-8.67,1.57,21,21,0,0,0-6.79,4.27A26.93,26.93,0,0,0,6.21,70a37.25,37.25,0,0,0-3.13,7.11,60.25,60.25,0,0,0-1.87,7.62,71.1,71.1,0,0,0-1,7.59C.08,94.57,0,97,0,99.36c0,6.27,2,11.34,5.92,15.08s9,5.56,15.25,5.56H79c6.24,0,11.37-1.87,15.25-5.56s5.92-8.81,5.92-15.08C100.11,96.94,100,94.56,99.87,92.27Z"/></g></g></svg>