<svg xmlns="http://www.w3.org/2000/svg" viewBox="0 0 262.52 32.97"><defs><style>.cls-1{fill:#fff;}</style></defs><title>Asset 9</title><g id="Layer_2" data-name="Layer 2"><g id="Layer_1-2" data-name="Layer 1"><rect class="cls-1" width="262.52" height="32.97"/><path d="M17.27,1.37l-.1.5H8.81L4.05,26.56H3.56L8.33,1.87H0l.07-.5Z"/><path d="M24.91,7.42l-.16.46a6,6,0,0,0-1.36-.18c-3.95,0-6.67,4.25-7.51,8.61l-2,10.25h-.45L17.14,7.42h.45l-1,5.32c1.23-2.77,3.34-5.51,6.9-5.51A6.78,6.78,0,0,1,24.91,7.42Z"/><path d="M42.21,7.42h.46L39,26.56h-.46l1.1-5.68c-1.36,3.13-4.66,6-8.35,6-4.12,0-6.32-3.24-5.35-8.42l2.14-11h.48l-2.13,11c-.91,4.82,1,7.92,4.82,7.92s8-3.53,8.94-8.42v.14Z"/><path d="M64.18,15.59c0,5.72-3.82,11.26-9.78,11.26-4.24,0-7-3.06-7.29-7.81l-1.43,7.52h-.45L50.32,0h.45L48.24,13.25c1.53-3.35,4.47-6.12,8.62-6.12C61.27,7.13,64.18,10.91,64.18,15.59Zm-.52.14c0-4.57-2.69-8.1-6.86-8.1-5.8,0-9.3,5.87-9.3,10.55,0,5,2.66,8.17,7,8.17C60,26.35,63.66,21.13,63.66,15.73Z"/><path d="M67.23,26.56,72.32,0h.45L67.68,26.56Z"/><path d="M91,14.4A11.62,11.62,0,0,1,90.65,17H75a12.12,12.12,0,0,0-.09,1.48c0,4.6,2.59,7.84,6.93,7.84a9.41,9.41,0,0,0,6.38-2.88l.26.4a10,10,0,0,1-6.64,3c-4.31,0-7.42-3.38-7.42-8.2,0-5.91,3.69-11.52,9.88-11.52C88.38,7.13,91,10,91,14.4Zm-.75,2.09a7,7,0,0,0,.29-1.95c0-4.1-2.2-6.91-6.35-6.91-5.12,0-8.39,4.21-9.13,8.86Z"/><path d="M102.25,26.56,107.34,0h.45l-5.08,26.56Z"/><path d="M109.48,18.29c0-5.8,3.63-11.16,9.81-11.16,4.67,0,8,3.74,8,8.53,0,5.76-3.7,11.19-9.88,11.19C112.82,26.85,109.48,23.11,109.48,18.29Zm17.36-2.45c0-4.61-3.08-8.21-7.55-8.21-5.83,0-9.33,5.11-9.33,10.48,0,4.6,2.89,8.24,7.52,8.24C123.38,26.35,126.84,21.17,126.84,15.84Z"/><path d="M147,7.09v.5L143,8.1a5,5,0,0,1,2.11,4.46c0,2.95-2.37,6.66-7.45,6.66a6.35,6.35,0,0,1-4-1.19c-1.81.87-3,2-3,3.21a2.08,2.08,0,0,0,2.34,2.05h5.21c3.89,0,6,1.65,6,4.17,0,2.27-1.81,5.51-9.46,5.51-4.5,0-7-1.55-7-4.07,0-2.12,1.84-4.14,4.27-5.18a2.27,2.27,0,0,1-1.81-2.27c0-1.62,1.46-3,3-3.7a5.33,5.33,0,0,1-1.49-3.93,7.18,7.18,0,0,1,7.49-6.69,7.3,7.3,0,0,1,3,.57ZM132.9,23.79h-.13c-2.94,1.33-4.47,3.13-4.47,5,0,2.3,2.3,3.67,6.58,3.67,7.09,0,8.91-3,8.91-4.86,0-2.31-1.75-3.82-5.54-3.82Zm6.55-16.16c-5,0-7.13,3.38-7.13,6.08,0,3,1.75,5,5.44,5,4.7,0,6.93-3.42,6.93-6.09C144.69,9.61,143,7.63,139.45,7.63Z"/><path d="M165.72,7.09v.5l-3.92.51a5,5,0,0,1,2.11,4.46c0,2.95-2.37,6.66-7.45,6.66a6.35,6.35,0,0,1-4-1.19c-1.81.87-2.95,2-2.95,3.21a2.07,2.07,0,0,0,2.33,2.05H157c3.89,0,6,1.65,6,4.17,0,2.27-1.81,5.51-9.46,5.51-4.5,0-7-1.55-7-4.07,0-2.12,1.84-4.14,4.27-5.18A2.27,2.27,0,0,1,149,21.45c0-1.62,1.46-3,3-3.7a5.33,5.33,0,0,1-1.49-3.93,7.18,7.18,0,0,1,7.49-6.69,7.3,7.3,0,0,1,3,.57Zm-14.06,16.7h-.13c-2.95,1.33-4.47,3.13-4.47,5,0,2.3,2.3,3.67,6.58,3.67,7.09,0,8.91-3,8.91-4.86,0-2.31-1.75-3.82-5.54-3.82Zm6.55-16.16c-5,0-7.13,3.38-7.13,6.08,0,3,1.75,5,5.44,5,4.7,0,6.93-3.42,6.93-6.09C163.45,9.61,161.74,7.63,158.21,7.63Z"/><path d="M166.76,26.56l3.7-19.14h.45l-3.7,19.14ZM171,4.18l.65-3.46h.51l-.64,3.46Z"/><path d="M190,15.55l-2.14,11h-.48l2.13-11c.91-4.82-1-7.92-4.82-7.92s-8,3.53-8.94,8.42v-.14l-2.05,10.65h-.45l3.69-19.14h.46l-1.1,5.68c1.36-3.13,4.66-6,8.35-6C188.76,7.13,191,10.37,190,15.55Z"/><path d="M211.24,7.09v.5l-3.92.51a5,5,0,0,1,2.11,4.46c0,2.95-2.37,6.66-7.45,6.66A6.35,6.35,0,0,1,198,18c-1.81.87-3,2-3,3.21a2.08,2.08,0,0,0,2.34,2.05h5.21c3.89,0,6,1.65,6,4.17,0,2.27-1.81,5.51-9.46,5.51-4.5,0-7-1.55-7-4.07,0-2.12,1.84-4.14,4.27-5.18a2.27,2.27,0,0,1-1.81-2.27c0-1.62,1.46-3,3.05-3.7a5.29,5.29,0,0,1-1.49-3.93,7.17,7.17,0,0,1,7.48-6.69,7.3,7.3,0,0,1,3,.57Zm-14.06,16.7h-.13c-2.94,1.33-4.47,3.13-4.47,5,0,2.3,2.3,3.67,6.58,3.67,7.09,0,8.91-3,8.91-4.86,0-2.31-1.75-3.82-5.54-3.82Zm6.55-16.16c-5,0-7.13,3.38-7.13,6.08,0,3,1.75,5,5.44,5,4.7,0,6.94-3.42,6.94-6.09C209,9.61,207.26,7.63,203.73,7.63Z"/><path d="M220.87,26.56l3.69-19.14H225l-3.7,19.14Zm4.28-22.38.64-3.46h.52l-.65,3.46Z"/><path d="M244.1,15.55l-2.14,11h-.49l2.14-11c.91-4.82-1-7.92-4.83-7.92s-8,3.53-8.94,8.42v-.14l-2,10.65h-.45L231,7.42h.46l-1.11,5.68c1.36-3.13,4.67-6,8.36-6C242.87,7.13,245.07,10.37,244.1,15.55Z"/><path d="M252.72,20.05c.52-3.74,2.52-5.54,4.89-7.45,2.56-2.13,4.37-3.75,4.37-6.66,0-2.63-1.88-4.28-5.08-4.28a13,13,0,0,0-7.1,2.55l-.16-.43a13.35,13.35,0,0,1,7.19-2.63c3.47,0,5.6,1.77,5.6,4.68,0,3.24-2,5-4.6,7.09-3.2,2.67-4.17,4.21-4.72,7.13Zm-1.36,4.89h1.42l-.32,1.62H251Z"/></g></g></svg>