<svg xmlns="http://www.w3.org/2000/svg" xmlns:xlink="http://www.w3.org/1999/xlink" viewBox="0 0 299.81 347.64"><defs><style>.cls-1{fill:#f2f2f2;}.cls-2{fill:url(#linear-gradient);}.cls-3{fill:#4984f4;}.cls-4{fill:#4883f3;}.cls-5{fill:#4782f2;}.cls-6{fill:#4781f1;}.cls-7{fill:#4680f0;}.cls-8{fill:#457fef;}.cls-9{fill:#447eee;}.cls-10{fill:#437ded;}.cls-11{fill:#427cec;}.cls-12{fill:#427beb;}.cls-13{fill:#417bea;}.cls-14{fill:#407ae9;}.cls-15{fill:#3f79e8;}.cls-16{fill:#3e78e7;}.cls-17{fill:#3e77e6;}.cls-18{fill:#3d76e5;}.cls-19{fill:#3c75e4;}.cls-20{fill:#3b74e3;}.cls-21{fill:#3a73e2;}.cls-22{fill:#3a72e2;}.cls-23{fill:#3971e1;}.cls-24{fill:#3870e0;}.cls-25{fill:#376fdf;}.cls-26{fill:#366ede;}.cls-27{fill:#356ddd;}.cls-28{fill:#356cdc;}.cls-29{fill:#346bdb;}.cls-30{fill:#336ada;}.cls-31{fill:#3269d9;}.cls-32{fill:#3169d8;}.cls-33{fill:#3168d7;}.cls-34{fill:#3067d6;}.cls-35{fill:#2f66d5;}.cls-36{fill:#2e65d4;}.cls-37{fill:#2d64d3;}.cls-38{fill:#2c63d2;}.cls-39{fill:#2c62d1;}.cls-40{fill:#2b61d0;}.cls-41{fill:#2a60cf;}</style><linearGradient id="linear-gradient" y1="149.99" x2="299.81" y2="149.99" gradientUnits="userSpaceOnUse"><stop offset="0" stop-color="#558ffc"/><stop offset="1" stop-color="#6483ff"/></linearGradient></defs><title>Asset 2</title><g id="Layer_2" data-name="Layer 2"><g id="Layer_1-2" data-name="Layer 1"><path class="cls-1" d="M145.23,51.68,2.38,217.08A7,7,0,0,0,3.17,227L144.46,346a7,7,0,0,0,9.8-.78l142.85-165.4a7,7,0,0,0-.79-9.93L155,50.9A7,7,0,0,0,145.23,51.68Z"/><path class="cls-2" d="M298,122.73,153.68,1.18a5,5,0,0,0-7,.55l-39.75,46L1.22,170.16a5,5,0,0,0,.56,7.1L146.13,298.81a5,5,0,0,0,7-.55L298.6,129.83A5,5,0,0,0,298,122.73Z"/><ellipse class="cls-3" cx="205.8" cy="129.89" rx="35.82" ry="30.36" transform="translate(-20.4 219.68) rotate(-53.91)"/><ellipse class="cls-4" cx="199.79" cy="128.63" rx="35.82" ry="30.36" transform="translate(-21.84 214.3) rotate(-53.91)"/><ellipse class="cls-5" cx="193.09" cy="126.55" rx="35.82" ry="30.36" transform="translate(-22.91 208.04) rotate(-53.91)"/><ellipse class="cls-6" cx="185.92" cy="123.89" rx="35.82" ry="30.36" transform="translate(-23.71 201.15) rotate(-53.91)"/><ellipse class="cls-7" cx="178.45" cy="120.89" rx="35.82" ry="30.36" transform="translate(-24.35 193.88) rotate(-53.91)"/><ellipse class="cls-8" cx="170.89" cy="117.77" rx="35.82" ry="30.36" transform="translate(-24.95 186.49) rotate(-53.91)"/><ellipse class="cls-9" cx="163.44" cy="114.79" rx="35.82" ry="30.36" transform="translate(-25.6 179.24) rotate(-53.91)"/><ellipse class="cls-10" cx="156.29" cy="112.16" rx="35.82" ry="30.36" transform="translate(-26.41 172.39) rotate(-53.91)"/><ellipse class="cls-11" cx="149.64" cy="110.14" rx="35.82" ry="30.36" transform="translate(-27.51 166.18) rotate(-53.91)"/><ellipse class="cls-12" cx="143.69" cy="108.94" rx="35.82" ry="30.36" transform="translate(-28.99 160.88) rotate(-53.91)"/><ellipse class="cls-13" cx="138.63" cy="108.81" rx="35.82" ry="30.36" transform="translate(-30.96 156.74) rotate(-53.91)"/><ellipse class="cls-14" cx="134.66" cy="109.97" rx="35.82" ry="30.36" transform="translate(-33.53 154.01) rotate(-53.91)"/><ellipse class="cls-15" cx="132.01" cy="112.65" rx="35.82" ry="30.36" transform="matrix(0.59, -0.81, 0.81, 0.59, -36.78, 152.96)"/><ellipse class="cls-16" cx="131.12" cy="116.36" rx="35.82" ry="30.36" transform="translate(-40.14 153.78) rotate(-53.91)"/><ellipse class="cls-17" cx="131.95" cy="120.77" rx="35.82" ry="30.36" transform="matrix(0.59, -0.81, 0.81, 0.59, -43.37, 156.25)"/><ellipse class="cls-18" cx="134.2" cy="125.77" rx="35.82" ry="30.36" transform="translate(-46.48 160.13) rotate(-53.91)"/><ellipse class="cls-19" cx="137.59" cy="131.24" rx="35.82" ry="30.36" transform="translate(-49.51 165.12) rotate(-53.91)"/><ellipse class="cls-20" cx="141.86" cy="137.07" rx="35.82" ry="30.36" transform="translate(-52.47 170.96) rotate(-53.91)"/><ellipse class="cls-21" cx="146.71" cy="143.14" rx="35.82" ry="30.36" transform="translate(-55.38 177.38) rotate(-53.91)"/><ellipse class="cls-22" cx="151.88" cy="149.35" rx="35.82" ry="30.36" transform="translate(-58.27 184.1) rotate(-53.91)"/><ellipse class="cls-23" cx="157.08" cy="155.56" rx="35.82" ry="30.36" transform="translate(-61.16 190.86) rotate(-53.91)"/><ellipse class="cls-24" cx="162.03" cy="161.68" rx="35.82" ry="30.36" transform="translate(-64.07 197.38) rotate(-53.91)"/><ellipse class="cls-25" cx="166.46" cy="167.58" rx="35.82" ry="30.36" transform="translate(-67.01 203.38) rotate(-53.91)"/><ellipse class="cls-26" cx="170.3" cy="173.5" rx="35.82" ry="30.36" transform="translate(-70.22 208.92) rotate(-53.91)"/><ellipse class="cls-27" cx="173.38" cy="180.46" rx="35.82" ry="30.36" transform="translate(-74.57 214.27) rotate(-53.91)"/><ellipse class="cls-28" cx="173.57" cy="186.22" rx="35.82" ry="30.36" transform="translate(-79.15 216.79) rotate(-53.91)"/><ellipse class="cls-29" cx="171" cy="189.82" rx="35.82" ry="30.36" transform="translate(-83.12 216.19) rotate(-53.91)"/><ellipse class="cls-30" cx="167.2" cy="191.29" rx="35.82" ry="30.36" transform="translate(-85.87 213.72) rotate(-53.91)"/><ellipse class="cls-31" cx="162.23" cy="191.36" rx="35.82" ry="30.36" transform="translate(-87.97 209.74) rotate(-53.91)"/><ellipse class="cls-32" cx="156.3" cy="190.3" rx="35.82" ry="30.36" transform="translate(-89.55 204.51) rotate(-53.91)"/><ellipse class="cls-33" cx="149.62" cy="188.33" rx="35.82" ry="30.36" transform="translate(-90.71 198.3) rotate(-53.91)"/><ellipse class="cls-34" cx="142.39" cy="185.72" rx="35.82" ry="30.36" transform="translate(-91.57 191.38) rotate(-53.91)"/><ellipse class="cls-35" cx="134.82" cy="182.71" rx="35.82" ry="30.36" transform="translate(-92.24 184.03) rotate(-53.91)"/><ellipse class="cls-36" cx="127.13" cy="179.55" rx="35.82" ry="30.36" transform="translate(-92.85 176.51) rotate(-53.91)"/><ellipse class="cls-37" cx="119.52" cy="176.47" rx="35.82" ry="30.36" transform="translate(-93.49 169.1) rotate(-53.91)"/><ellipse class="cls-38" cx="112.19" cy="173.75" rx="35.82" ry="30.36" transform="translate(-94.3 162.06) rotate(-53.91)"/><ellipse class="cls-39" cx="105.36" cy="171.61" rx="35.82" ry="30.36" transform="translate(-95.38 155.66) rotate(-53.91)"/><ellipse class="cls-40" cx="99.23" cy="170.31" rx="35.82" ry="30.36" transform="translate(-96.85 150.18) rotate(-53.91)"/><ellipse class="cls-41" cx="94.02" cy="170.1" rx="35.82" ry="30.36" transform="translate(-98.82 145.87) rotate(-53.91)"/></g></g></svg>