<svg xmlns="http://www.w3.org/2000/svg" viewBox="0 0 1200 160"><defs><style>.cls-1{fill:#558ffc;}.cls-2{fill:#fff;}</style></defs><title>Asset 3</title><g id="Layer_2" data-name="Layer 2"><g id="Layer_1-2" data-name="Layer 1"><path class="cls-1" d="M1024,0H20A20,20,0,0,0,0,20V140a20,20,0,0,0,20,20H1180a20,20,0,0,0,20-20V20a20,20,0,0,0-20-20Z"/><path class="cls-2" d="M529.58,99.57V66h7.35v26.6h15.59v7Z"/><path class="cls-2" d="M558,82.77c0-10.09,6.87-17.38,16.37-17.38s16.33,7.25,16.33,17.38-6.87,17.37-16.37,17.37S558,92.89,558,82.77Zm25,0c0-6.1-3.54-10.18-8.6-10.18s-8.64,4.08-8.64,10.18,3.54,10.17,8.64,10.17S583,88.86,583,82.77Z"/><path class="cls-2" d="M599.27,82.81c0-10.13,6.82-17.42,16.28-17.42a15.78,15.78,0,0,1,12.18,5.66L623,76a9.38,9.38,0,0,0-7.26-3.46c-5,0-8.85,3.94-8.85,10.27s3.71,10.28,9.24,10.28a8.4,8.4,0,0,0,5.53-1.83V82h6.7V95a18,18,0,0,1-12.62,5.13C606.18,100.14,599.27,92.85,599.27,82.81Z"/><path class="cls-2" d="M638.45,99.57V66h7.43V99.57Z"/><path class="cls-2" d="M656.76,99.57V66h6.31l14.77,20V66h7.43V99.57h-6.09l-15-20.36V99.57Z"/></g></g></svg>