<svg xmlns="http://www.w3.org/2000/svg" viewBox="0 0 1203 163"><defs><style>.cls-1{fill:#fff;stroke:#558ffc;stroke-miterlimit:10;stroke-width:3px;}.cls-2{fill:#558ffc;}</style></defs><title>Asset 4</title><g id="Layer_2" data-name="Layer 2"><g id="Layer_1-2" data-name="Layer 1"><path class="cls-1" d="M1025.5,1.5H21.5a20,20,0,0,0-20,20v120a20,20,0,0,0,20,20h1160a20,20,0,0,0,20-20V21.5a20,20,0,0,0-20-20Z"/><path class="cls-2" d="M504.2,90.6l3.15-6.2c3.46,2.45,7.24,4.1,11.07,4.1,3.06,0,4.81-1.35,4.81-3.25,0-2.45-1.89-3.2-6.21-4.2-7.2-1.7-12-4.6-12-11.2,0-7,5.54-10.6,12.74-10.6a18,18,0,0,1,12.28,4.4l-3.73,5.65a14,14,0,0,0-8.6-3.1c-3,0-4.77,1-4.77,3.35,0,2,1.62,3.15,6.12,4.25,7.92,1.85,12.06,4.3,12.06,10.7,0,6.85-5.53,11-13,11A21.47,21.47,0,0,1,504.2,90.6Z"/><path class="cls-2" d="M540.38,94.85v-35h7.74v35Z"/><path class="cls-2" d="M558.24,77.4c0-10.55,7.11-18.15,17-18.15a16.48,16.48,0,0,1,12.69,5.9L583,70.3a9.8,9.8,0,0,0-7.56-3.6c-5.22,0-9.23,4.1-9.23,10.7s3.87,10.7,9.63,10.7a8.79,8.79,0,0,0,5.76-1.9V76.55h7V90.1a18.71,18.71,0,0,1-13.14,5.35C565.44,95.45,558.24,87.85,558.24,77.4Z"/><path class="cls-2" d="M599.06,94.85v-35h6.57L621,80.7V59.85h7.74v35h-6.35L606.8,73.65v21.2Z"/><path class="cls-2" d="M657.69,80V59.85h7.79v19.3c0,5.35,2.52,8.25,6.75,8.25s6.88-2.9,6.88-8.25V59.85h7.69V80c0,9.55-5.57,15.5-14.57,15.5S657.69,89.5,657.69,80Z"/><path class="cls-2" d="M724.6,72.5c0,8-5.39,12.8-14,12.8h-5.45v9.55h-7.74v-35h13.23C719.25,59.85,724.6,64.65,724.6,72.5Zm-14.21,5.65c4.05,0,6.48-1.85,6.48-5.65s-2.43-5.5-6.48-5.5h-5.27V78.15Z"/></g></g></svg>