<svg xmlns="http://www.w3.org/2000/svg" viewBox="0 0 752 94"><defs><style>.cls-1{fill:#558ffc;}.cls-2{fill:#fff;}</style></defs><title>Asset 40</title><g id="Layer_2" data-name="Layer 2"><g id="Layer_1-2" data-name="Layer 1"><rect class="cls-1" width="752" height="94" rx="30"/><path class="cls-2" d="M222.46,46.2c0-10.4,7.2-18.1,16.78-18.1a16.15,16.15,0,0,1,13,5.95l-5,5.15a9.44,9.44,0,0,0-7.61-3.7c-5.17,0-9.18,4.25-9.18,10.65s4,10.7,9.14,10.7a10.05,10.05,0,0,0,7.74-3.75l5,5.1a15.47,15.47,0,0,1-12.78,6.1C229.84,64.3,222.46,56.6,222.46,46.2Z"/><path class="cls-2" d="M259,46.2c0-10.5,7.15-18.1,17.05-18.1s17,7.55,17,18.1S285.91,64.3,276,64.3,259,56.75,259,46.2Zm26,0c0-6.35-3.69-10.6-9-10.6s-9,4.25-9,10.6,3.69,10.6,9,10.6S285,52.55,285,46.2Z"/><path class="cls-2" d="M330.41,41.35c0,7.95-5.4,12.8-14,12.8h-5.44V63.7h-7.74v-35h13.23C325.06,28.7,330.41,33.5,330.41,41.35ZM316.19,47c4.05,0,6.48-1.85,6.48-5.65s-2.43-5.5-6.48-5.5h-5.26V47Z"/><path class="cls-2" d="M366.55,28.7l-12.2,22.2V63.7h-7.78v-13l-12.2-22h8.42l7.69,15.05,7.65-15Z"/><path class="cls-2" d="M392.11,63.7v-35h7.65V56.4H416v7.3Z"/><path class="cls-2" d="M424.69,63.7v-35h7.74v35Z"/><path class="cls-2" d="M443.77,63.7v-35h6.57l15.39,20.85V28.7h7.74v35h-6.35L451.51,42.5V63.7Z"/><path class="cls-2" d="M506.68,63.7,498,49.6l-5.44,6.75V63.7h-7.74v-35h7.74V46L505.46,28.7h9.27L503,43.35,515.41,63.7Z"/></g></g></svg>