<svg xmlns="http://www.w3.org/2000/svg" viewBox="0 0 752 376"><defs><style>.cls-1{fill:#558ffc;}.cls-2{fill:#fff;}</style></defs><title>Asset 43</title><g id="Layer_2" data-name="Layer 2"><g id="Layer_1-2" data-name="Layer 1"><rect class="cls-1" width="752" height="376" rx="30"/><path class="cls-2" d="M236.45,58.44v-28h2.77v28Z"/><path class="cls-2" d="M263.67,45.68V58.44H261V46.08c0-4.32-2.06-6.88-5.69-6.88s-6.84,3.36-6.84,8v11.2h-2.66V36.8h2.66v3.88a8.55,8.55,0,0,1,7.45-4.24C260.57,36.44,263.67,40,263.67,45.68Z"/><path class="cls-2" d="M274.54,58.44,266,36.8h3L276,55l7-18.2h3l-8.49,21.64Z"/><path class="cls-2" d="M289.48,33.76v-4.4h2.84v4.4Zm.07,24.68V36.8h2.67V58.44Z"/><path class="cls-2" d="M311,57.52a9.38,9.38,0,0,1-4.75,1.32c-3.49,0-5.76-2.36-5.76-6.4V39.56h-3.89V36.8h3.93l.21-5.84h2.45V36.8h7v2.76h-7V51.92c0,2.6,1.44,4.2,3.53,4.2a8.31,8.31,0,0,0,3.74-1Z"/><path class="cls-2" d="M316.12,48.76c.36,4.4,3.42,7.32,7.63,7.32a6.94,6.94,0,0,0,5.76-2.64l1.76,1.76a9.69,9.69,0,0,1-7.66,3.6c-6,0-10.23-4.68-10.23-11.2s4-11.16,9.94-11.16c5.33,0,9,4.28,9,10.52a12.19,12.19,0,0,1-.14,1.8Zm0-2.6h13.57c-.4-4.52-2.88-7-6.41-7C319.36,39.16,316.62,42,316.16,46.16Z"/><path class="cls-2" d="M352.41,36.8h6.76v2.76h-6.76V58.44h-2.7V39.56h-3.64V36.8h3.64V35.16c0-4.2,2.23-6.64,5.72-6.64a9.89,9.89,0,0,1,4.18.92l-.54,2.64a7,7,0,0,0-3.14-.76c-2.19,0-3.52,1.28-3.52,4.16Z"/><path class="cls-2" d="M373.11,36.76,373,39.84a5.81,5.81,0,0,0-1.8-.28c-3.85,0-6.08,4.08-6.08,9v9.88h-2.67V36.8h2.67v4.08a6.81,6.81,0,0,1,6.15-4.32A8.5,8.5,0,0,1,373.11,36.76Z"/><path class="cls-2" d="M376.78,33.76v-4.4h2.84v4.4Zm.07,24.68V36.8h2.66V58.44Z"/><path class="cls-2" d="M387.18,48.76c.36,4.4,3.42,7.32,7.63,7.32a6.93,6.93,0,0,0,5.76-2.64l1.77,1.76a9.73,9.73,0,0,1-7.67,3.6c-6,0-10.22-4.68-10.22-11.2s4-11.16,9.93-11.16c5.33,0,9,4.28,9,10.52a12.43,12.43,0,0,1-.15,1.8Zm0-2.6h13.57c-.4-4.52-2.88-7-6.41-7C390.42,39.16,387.69,42,387.22,46.16Z"/><path class="cls-2" d="M425.7,45.68V58.44H423V46.08c0-4.32-2.05-6.88-5.69-6.88s-6.84,3.36-6.84,8v11.2h-2.66V36.8h2.66v3.88a8.56,8.56,0,0,1,7.45-4.24C422.6,36.44,425.7,40,425.7,45.68Z"/><path class="cls-2" d="M447.62,28.92h2.7V58.44h-2.7v-4a8.94,8.94,0,0,1-7.84,4.4c-5.33,0-9.47-4.72-9.47-11.24,0-6.68,4.14-11.16,9.47-11.16a8.81,8.81,0,0,1,7.84,4.4Zm0,18.68c0-5-3.13-8.4-7.45-8.4s-7.2,3.48-7.2,8.4,3,8.48,7.2,8.48S447.62,52.68,447.62,47.6Z"/><path class="cls-2" d="M454.9,56l1.15-2.48A11.79,11.79,0,0,0,463.18,56c3.16,0,5.11-1.16,5.11-3.52,0-2-1.41-2.92-5.51-3.76-5.54-1.16-7.23-3-7.23-6.2,0-3.8,2.7-6.08,7.2-6.08a13.26,13.26,0,0,1,7.52,2.28l-1.12,2.52a11.17,11.17,0,0,0-6.58-2c-2.7,0-4.29,1.12-4.29,3.08,0,1.8,1.19,2.72,5.26,3.6,5.68,1.32,7.45,3.16,7.45,6.52,0,4-3.1,6.36-8,6.36A13.57,13.57,0,0,1,454.9,56Z"/><path class="cls-2" d="M506.45,47.6c0,6.52-4.14,11.24-9.47,11.24a8.91,8.91,0,0,1-7.88-4.44v4h-2.67V28.92h2.67v12A8.91,8.91,0,0,1,497,36.44C502.31,36.44,506.45,40.92,506.45,47.6Zm-2.67,0c0-4.92-3-8.4-7.2-8.4s-7.48,3.36-7.48,8.4,3.16,8.48,7.48,8.48S503.78,52.6,503.78,47.6Z"/><path class="cls-2" d="M524.59,36.8h2.95l-8.49,21.64-.79,2c-1.44,3.64-3.24,5.2-6.41,5.2A7.41,7.41,0,0,1,508,64.52l.87-2.2a6,6,0,0,0,2.84.8c1.91,0,2.92-1,3.89-3.36l.54-1.36-8.5-21.6h2.95l7,18.2Z"/></g></g></svg>