<svg xmlns="http://www.w3.org/2000/svg" viewBox="0 0 848 106"><defs><style>.cls-1{fill:#ccc;}.cls-2{fill:#fff;}</style></defs><title>Asset 42</title><g id="Layer_2" data-name="Layer 2"><g id="Layer_1-2" data-name="Layer 1"><path class="cls-1" d="M0,0H848a0,0,0,0,1,0,0V76a30,30,0,0,1-30,30H30A30,30,0,0,1,0,76V0A0,0,0,0,1,0,0Z"/><path class="cls-2" d="M348.19,57.5c0-9.15,6.33-15.93,14.77-15.93a14.21,14.21,0,0,1,11.4,5.24L370,51.34a8.3,8.3,0,0,0-6.69-3.26c-4.55,0-8.07,3.74-8.07,9.38s3.52,9.41,8,9.41a8.81,8.81,0,0,0,6.81-3.3l4.4,4.49a13.61,13.61,0,0,1-11.25,5.37C354.68,73.43,348.19,66.65,348.19,57.5Z"/><path class="cls-2" d="M382.12,72.9V42.1h6.74V66.48h14.29V72.9Z"/><path class="cls-2" d="M408.18,57.5c0-9.24,6.3-15.93,15-15.93s15,6.64,15,15.93-6.3,15.93-15,15.93S408.18,66.79,408.18,57.5Zm22.89,0c0-5.59-3.25-9.33-7.88-9.33s-7.92,3.74-7.92,9.33,3.25,9.33,7.92,9.33S431.07,63.09,431.07,57.5Z"/><path class="cls-2" d="M445,69.16l2.77-5.46a17.24,17.24,0,0,0,9.74,3.61c2.69,0,4.24-1.19,4.24-2.86,0-2.15-1.66-2.81-5.47-3.69-6.33-1.5-10.53-4-10.53-9.86,0-6.16,4.87-9.33,11.21-9.33a15.85,15.85,0,0,1,10.81,3.87l-3.29,5a12.3,12.3,0,0,0-7.56-2.72c-2.66,0-4.2.88-4.2,2.94,0,1.77,1.43,2.78,5.39,3.75,7,1.62,10.61,3.78,10.61,9.41,0,6-4.87,9.64-11.45,9.64A18.9,18.9,0,0,1,445,69.16Z"/><path class="cls-2" d="M483.54,66.65h16.27V72.9h-23V42.1h22.57v6.25H483.54v5.81H497.6V60.1H483.54Z"/></g></g></svg>