<svg xmlns="http://www.w3.org/2000/svg" viewBox="0 0 750 94"><defs><style>.cls-1{fill:#fff;}.cls-2{fill:#558ffc;}</style></defs><title>Asset 44</title><g id="Layer_2" data-name="Layer 2"><g id="Layer_1-2" data-name="Layer 1"><rect class="cls-1" width="750" height="94" rx="30"/><path class="cls-2" d="M286,64.53v-35h7.74v35Z"/><path class="cls-2" d="M305.06,64.53v-35h6.57L327,50.38V29.53h7.74v35h-6.35L312.8,43.33v21.2Z"/><path class="cls-2" d="M356.45,64.53l-13.37-35h8.19l9,25.1h.09l9-25.1h8.19l-13.41,35Z"/><path class="cls-2" d="M385.83,64.53v-35h7.74v35Z"/><path class="cls-2" d="M430.16,29.53v7.35h-9.9V64.53h-7.79V36.88h-9.85V29.53Z"/><path class="cls-2" d="M446.81,57.43H465.3v7.1H439.2v-35h25.65v7.1h-18v6.6h16V50h-16Z"/></g></g></svg>