<svg xmlns="http://www.w3.org/2000/svg" viewBox="0 0 1094.07 33.44"><defs><style>.cls-1{fill:#fff;}</style></defs><title>Asset 24</title><g id="Layer_2" data-name="Layer 2"><g id="Layer_1-2" data-name="Layer 1"><path class="cls-1" d="M20.86,1.73l-9.17,15.8v9.39H9.17v-9.5L0,1.73H2.79l7.67,13.35L18.11,1.73Z"/><path class="cls-1" d="M23.23,17.17c0-5.83,3.86-10,9.2-10s9.23,4.21,9.23,10-3.85,10.16-9.23,10.16S23.23,23,23.23,17.17Zm16,0c0-4.5-2.85-7.59-6.8-7.59s-6.77,3.09-6.77,7.59,2.85,7.63,6.8,7.63S39.23,21.67,39.23,17.17Z"/><path class="cls-1" d="M62.72,7.45h2.4V26.92h-2.4V23.43A7.68,7.68,0,0,1,56,27.25c-4.21,0-7-3.17-7-8.32V7.45h2.43V18.57c0,3.89,1.85,6.19,5.12,6.19s6.15-3,6.15-7.23Z"/><path class="cls-1" d="M109.22,7.45h2.56l-6.09,19.47h-2.76l-4.7-15.83L93.54,26.92H90.82L84.66,7.45h2.56l5,16.34L97,7.45h2.5l4.82,16.34Z"/><path class="cls-1" d="M118.42,4.72v-4H121v4Zm.07,22.2V7.45h2.39V26.92Z"/><path class="cls-1" d="M129.76,26.92V.36h2.4V26.92Z"/><path class="cls-1" d="M141.23,26.92V.36h2.4V26.92Z"/><path class="cls-1" d="M181.47,15.44V26.92H179V15.8c0-3.88-1.85-6.19-5.12-6.19s-6.15,3-6.15,7.24V26.92h-2.4V7.45h2.4v3.49a7.67,7.67,0,0,1,6.7-3.81C178.68,7.13,181.47,10.29,181.47,15.44Z"/><path class="cls-1" d="M191.29,18.21c.32,4,3.08,6.59,6.87,6.59a6.26,6.26,0,0,0,5.18-2.37L204.93,24a8.77,8.77,0,0,1-6.9,3.24c-5.38,0-9.2-4.21-9.2-10.08s3.59-10,8.94-10c4.79,0,8.13,3.85,8.13,9.46a10.91,10.91,0,0,1-.13,1.62Zm0-2.34h12.21c-.35-4.06-2.59-6.29-5.76-6.29C194.2,9.58,191.74,12.09,191.32,15.87Z"/><path class="cls-1" d="M214.55,18.21c.33,4,3.08,6.59,6.87,6.59a6.25,6.25,0,0,0,5.18-2.37L228.19,24a8.74,8.74,0,0,1-6.9,3.24c-5.38,0-9.2-4.21-9.2-10.08s3.59-10,8.94-10c4.79,0,8.13,3.85,8.13,9.46a10.91,10.91,0,0,1-.13,1.62Zm0-2.34H226.8c-.36-4.06-2.59-6.29-5.77-6.29C217.47,9.58,215,12.09,214.58,15.87Z"/><path class="cls-1" d="M251,.36h2.43V26.92H251V23.33a8.1,8.1,0,0,1-7.07,4c-4.79,0-8.52-4.25-8.52-10.12s3.73-10,8.52-10a8,8,0,0,1,7.07,4Zm0,16.81c0-4.54-2.82-7.56-6.71-7.56s-6.48,3.13-6.48,7.56,2.69,7.63,6.48,7.63S251,21.74,251,17.17Z"/><path class="cls-1" d="M286.64,26.1a8.54,8.54,0,0,1-4.28,1.19c-3.14,0-5.18-2.13-5.18-5.76V9.93h-3.5V7.45h3.53l.2-5.25h2.2V7.45h6.32V9.93h-6.32V21.06c0,2.34,1.29,3.78,3.17,3.78a7.44,7.44,0,0,0,3.37-.87Z"/><path class="cls-1" d="M292,17.17c0-5.83,3.85-10,9.2-10s9.23,4.21,9.23,10-3.86,10.16-9.23,10.16S292,23,292,17.17Zm16,0c0-4.5-2.85-7.59-6.8-7.59s-6.77,3.09-6.77,7.59,2.85,7.63,6.8,7.63S308,21.67,308,17.17Z"/><path class="cls-1" d="M336.44,26.92,328.79,7.45h2.66l6.28,16.38L344,7.45h2.65L339,26.92Z"/><path class="cls-1" d="M353.29,18.21c.32,4,3.07,6.59,6.86,6.59a6.28,6.28,0,0,0,5.19-2.37L366.92,24a8.74,8.74,0,0,1-6.9,3.24c-5.37,0-9.2-4.21-9.2-10.08s3.6-10,8.94-10c4.8,0,8.14,3.85,8.14,9.46a12.47,12.47,0,0,1-.13,1.62Zm0-2.34h12.21c-.36-4.06-2.59-6.29-5.77-6.29C356.2,9.58,353.74,12.09,353.32,15.87Z"/><path class="cls-1" d="M384.68,7.42l-.1,2.77A5.22,5.22,0,0,0,383,9.93c-3.46,0-5.47,3.68-5.47,8.1v8.89h-2.4V7.45h2.4v3.67A6.15,6.15,0,0,1,383,7.24,7.44,7.44,0,0,1,384.68,7.42Z"/><path class="cls-1" d="M391.23,4.72v-4h2.56v4Zm.06,22.2V7.45h2.4V26.92Z"/><path class="cls-1" d="M406.84,7.45h6.09V9.93h-6.09v17h-2.43v-17h-3.27V7.45h3.27V6c0-3.78,2-6,5.15-6a8.8,8.8,0,0,1,3.76.83l-.49,2.37A6.26,6.26,0,0,0,410,2.52c-2,0-3.18,1.15-3.18,3.74Z"/><path class="cls-1" d="M432.53,7.45h2.66l-7.65,19.47-.71,1.84c-1.29,3.28-2.91,4.68-5.76,4.68a6.63,6.63,0,0,1-3.44-1l.78-2a5.49,5.49,0,0,0,2.56.72c1.72,0,2.62-.94,3.5-3l.48-1.22L417.31,7.45H420l6.29,16.38Z"/><path class="cls-1" d="M466.07,26.1a8.54,8.54,0,0,1-4.28,1.19c-3.14,0-5.18-2.13-5.18-5.76V9.93h-3.5V7.45h3.53l.19-5.25H459V7.45h6.31V9.93H459V21.06c0,2.34,1.29,3.78,3.17,3.78a7.47,7.47,0,0,0,3.37-.87Z"/><path class="cls-1" d="M489.65,15.44V26.92h-2.43V15.8c0-3.88-1.84-6.19-5.11-6.19s-6.16,3-6.16,7.24V26.92h-2.4V.36H476V10.94a7.7,7.7,0,0,1,6.71-3.81C486.87,7.13,489.65,10.29,489.65,15.44Z"/><path class="cls-1" d="M511.69,14.83V26.92h-2.43V23.25a7.71,7.71,0,0,1-6.74,4,5.65,5.65,0,0,1-6.06-6c0-3.53,2.11-6.19,6.87-6.19a52.1,52.1,0,0,1,5.93.39v-.64c0-3.46-1.85-5.29-5.28-5.29a8.13,8.13,0,0,0-5.38,2.15l-1.23-2a10,10,0,0,1,6.83-2.62C509.16,7.13,511.69,9.93,511.69,14.83Zm-2.43,3.56v-.57a30.15,30.15,0,0,0-5.38-.43c-3.6,0-5.09,1.4-5.09,3.78s1.62,3.63,4.47,3.63C506.76,24.8,509.26,21.49,509.26,18.39Z"/><path class="cls-1" d="M531.55,26.1a8.54,8.54,0,0,1-4.28,1.19c-3.14,0-5.18-2.13-5.18-5.76V9.93h-3.5V7.45h3.53l.19-5.25h2.21V7.45h6.31V9.93h-6.31V21.06c0,2.34,1.29,3.78,3.17,3.78a7.47,7.47,0,0,0,3.37-.87Z"/><path class="cls-1" d="M565,7.45h2.66L560,26.92l-.71,1.84c-1.3,3.28-2.92,4.68-5.77,4.68a6.63,6.63,0,0,1-3.43-1l.78-2a5.49,5.49,0,0,0,2.56.72c1.71,0,2.62-.94,3.49-3l.49-1.22L549.73,7.45h2.65l6.29,16.38Z"/><path class="cls-1" d="M571.76,17.17c0-5.83,3.85-10,9.2-10s9.23,4.21,9.23,10S586.33,27.29,581,27.29,571.76,23,571.76,17.17Zm16,0c0-4.5-2.85-7.59-6.8-7.59s-6.77,3.09-6.77,7.59S577,24.8,581,24.8,587.76,21.67,587.76,17.17Z"/><path class="cls-1" d="M611.25,7.45h2.4V26.92h-2.4V23.43a7.71,7.71,0,0,1-6.71,3.82c-4.21,0-7-3.17-7-8.32V7.45H600V18.57c0,3.89,1.84,6.19,5.11,6.19s6.16-3,6.16-7.23Z"/><path class="cls-1" d="M634.19,17.17c0-5.83,3.86-10,9.2-10s9.23,4.21,9.23,10-3.85,10.16-9.23,10.16S634.19,23,634.19,17.17Zm16,0c0-4.5-2.85-7.59-6.8-7.59s-6.77,3.09-6.77,7.59,2.85,7.63,6.8,7.63S650.19,21.67,650.19,17.17Z"/><path class="cls-1" d="M681.49,7.45h2.56L678,26.92h-2.75l-4.7-15.83-4.7,15.83h-2.72L656.94,7.45h2.56l5,16.34,4.8-16.34h2.49l4.83,16.34Z"/><path class="cls-1" d="M706.86,15.44V26.92h-2.43V15.8c0-3.88-1.85-6.19-5.12-6.19s-6.15,3-6.15,7.24V26.92h-2.4V7.45h2.4v3.49a7.68,7.68,0,0,1,6.7-3.81C704.08,7.13,706.86,10.29,706.86,15.44Z"/><path class="cls-1" d="M739.59,26.1a8.56,8.56,0,0,1-4.28,1.19c-3.14,0-5.18-2.13-5.18-5.76V9.93h-3.5V7.45h3.53l.19-5.25h2.21V7.45h6.31V9.93h-6.31V21.06c0,2.34,1.29,3.78,3.17,3.78A7.47,7.47,0,0,0,739.1,24Z"/><path class="cls-1" d="M763.17,15.44V26.92h-2.43V15.8c0-3.88-1.84-6.19-5.12-6.19s-6.15,3-6.15,7.24V26.92h-2.4V.36h2.4V10.94a7.7,7.7,0,0,1,6.71-3.81C760.39,7.13,763.17,10.29,763.17,15.44Z"/><path class="cls-1" d="M771.47,4.72v-4H774v4Zm.06,22.2V7.45h2.4V26.92Z"/><path class="cls-1" d="M781.09,24.69l1-2.23a10.58,10.58,0,0,0,6.41,2.3c2.85,0,4.6-1,4.6-3.16,0-1.84-1.26-2.63-4.95-3.39-5-1-6.52-2.66-6.52-5.58,0-3.42,2.43-5.47,6.48-5.47a12,12,0,0,1,6.77,2.05l-1,2.27A10,10,0,0,0,788,9.65c-2.43,0-3.85,1-3.85,2.77s1.07,2.45,4.73,3.24c5.12,1.19,6.7,2.84,6.7,5.87,0,3.63-2.78,5.72-7.16,5.72A12.23,12.23,0,0,1,781.09,24.69Z"/><path class="cls-1" d="M817.22,18.21c.32,4,3.07,6.59,6.86,6.59a6.28,6.28,0,0,0,5.19-2.37L830.85,24A8.73,8.73,0,0,1,824,27.25c-5.38,0-9.21-4.21-9.21-10.08s3.6-10,9-10c4.79,0,8.13,3.85,8.13,9.46a12.47,12.47,0,0,1-.13,1.62Zm0-2.34h12.21c-.35-4.06-2.59-6.29-5.76-6.29C820.13,9.58,817.67,12.09,817.25,15.87Z"/><path class="cls-1" d="M867.08,15.23V26.92h-2.47V15.59c0-3.78-1.62-6-4.6-6s-5.76,3.06-5.76,7.16V26.92h-2.43V15.59c0-3.78-1.62-6-4.6-6-3.14,0-5.8,3.06-5.8,7.16V26.92H839V7.45h2.4v3.46a7.51,7.51,0,0,1,6.41-3.78,6,6,0,0,1,6,4.6,7.66,7.66,0,0,1,6.87-4.6C864.58,7.13,867.08,10.15,867.08,15.23Z"/><path class="cls-1" d="M889.08,14.83V26.92h-2.43V23.25a7.7,7.7,0,0,1-6.74,4,5.65,5.65,0,0,1-6.06-6c0-3.53,2.11-6.19,6.87-6.19a52.1,52.1,0,0,1,5.93.39v-.64c0-3.46-1.85-5.29-5.28-5.29A8.13,8.13,0,0,0,876,11.73l-1.23-2a10,10,0,0,1,6.83-2.62C886.55,7.13,889.08,9.93,889.08,14.83Zm-2.43,3.56v-.57a30.07,30.07,0,0,0-5.38-.43c-3.6,0-5.09,1.4-5.09,3.78s1.62,3.63,4.48,3.63C884.15,24.8,886.65,21.49,886.65,18.39Z"/><path class="cls-1" d="M897.37,4.72v-4h2.56v4Zm.07,22.2V7.45h2.39V26.92Z"/><path class="cls-1" d="M908.71,26.92V.36h2.4V26.92Z"/><path class="cls-1" d="M946.52,14.83V26.92h-2.43V23.25a7.68,7.68,0,0,1-6.74,4,5.65,5.65,0,0,1-6.05-6c0-3.53,2.1-6.19,6.86-6.19a51.79,51.79,0,0,1,5.93.39v-.64c0-3.46-1.84-5.29-5.28-5.29a8.15,8.15,0,0,0-5.38,2.15l-1.23-2A10,10,0,0,1,939,7.13C944,7.13,946.52,9.93,946.52,14.83Zm-2.43,3.56v-.57a30,30,0,0,0-5.38-.43c-3.59,0-5.08,1.4-5.08,3.78s1.62,3.63,4.47,3.63C941.6,24.8,944.09,21.49,944.09,18.39Z"/><path class="cls-1" d="M953.88,17.21c0-5.91,4-10.08,9.2-10.08a8.63,8.63,0,0,1,6.7,3.09L968,11.88a6.14,6.14,0,0,0-5-2.3c-3.82,0-6.73,2.95-6.73,7.59s2.91,7.63,6.8,7.63a6.1,6.1,0,0,0,5-2.34l1.71,1.62a8.52,8.52,0,0,1-6.7,3.21C957.83,27.29,953.88,23.11,953.88,17.21Z"/><path class="cls-1" d="M975.81,17.21c0-5.91,4-10.08,9.2-10.08a8.64,8.64,0,0,1,6.71,3.09L990,11.88a6.16,6.16,0,0,0-5-2.3c-3.82,0-6.74,2.95-6.74,7.59s2.92,7.63,6.8,7.63a6.09,6.09,0,0,0,5-2.34l1.72,1.62A8.54,8.54,0,0,1,985,27.29C979.76,27.29,975.81,23.11,975.81,17.21Z"/><path class="cls-1" d="M997.75,17.17c0-5.83,3.85-10,9.2-10s9.23,4.21,9.23,10-3.85,10.16-9.23,10.16S997.75,23,997.75,17.17Zm16,0c0-4.5-2.85-7.59-6.8-7.59s-6.77,3.09-6.77,7.59,2.85,7.63,6.8,7.63S1013.75,21.67,1013.75,17.17Z"/><path class="cls-1" d="M1037.24,7.45h2.4V26.92h-2.4V23.43a7.71,7.71,0,0,1-6.7,3.82c-4.22,0-7-3.17-7-8.32V7.45H1026V18.57c0,3.89,1.84,6.19,5.12,6.19s6.15-3,6.15-7.23Z"/><path class="cls-1" d="M1064.42,15.44V26.92H1062V15.8c0-3.88-1.84-6.19-5.11-6.19s-6.16,3-6.16,7.24V26.92h-2.4V7.45h2.4v3.49a7.7,7.7,0,0,1,6.71-3.81C1061.64,7.13,1064.42,10.29,1064.42,15.44Z"/><path class="cls-1" d="M1084.29,26.1a8.56,8.56,0,0,1-4.28,1.19c-3.14,0-5.18-2.13-5.18-5.76V9.93h-3.5V7.45h3.53l.19-5.25h2.21V7.45h6.31V9.93h-6.31V21.06c0,2.34,1.29,3.78,3.17,3.78a7.47,7.47,0,0,0,3.37-.87Z"/><path class="cls-1" d="M1090.87,23.69h3.2v3.23h-3.2Z"/></g></g></svg>