<svg xmlns="http://www.w3.org/2000/svg" viewBox="0 0 369.19 45.66"><defs><style>.cls-1{fill:#fff;}</style></defs><title>Asset 18</title><g id="Layer_2" data-name="Layer 2"><g id="Layer_1-2" data-name="Layer 1"><path class="cls-1" d="M0,45V3H15.93c12.64,0,20.74,8.22,20.74,20.94S28.57,45,15.93,45Zm7-6.84h8.69c8.42,0,13.66-5.28,13.66-14.16S24.08,9.84,15.61,9.84H7Z"/><path class="cls-1" d="M69.07,25.26V45h-6.7V41.1a13.22,13.22,0,0,1-10.48,4.56c-6.26,0-10.31-4.44-10.31-10.5,0-5.76,3.24-11,11.88-11a81.56,81.56,0,0,1,8.86.54c-.22-4.14-2.87-6.54-7.78-6.54a12.46,12.46,0,0,0-8.21,3.54L43,16.26a18.22,18.22,0,0,1,12.2-4.8C64.69,11.46,69.07,16.68,69.07,25.26Zm-6.75,6v-.54a43.54,43.54,0,0,0-7.24-.54c-5.46,0-7.07,1.92-7.07,4.56,0,2.94,2.26,4.26,6.1,4.26A8.24,8.24,0,0,0,62.32,31.26Z"/><path class="cls-1" d="M98.12,43.5a17.22,17.22,0,0,1-8.27,2.16c-6,0-9.66-3.78-9.66-10.68V18.84H74.63V12.18H80.3l.48-8.58h6.11v8.58H97v6.66H86.89V33.78C86.89,37,88.51,39,91.1,39a14.18,14.18,0,0,0,5.72-1.32Z"/><path class="cls-1" d="M108.16,31.5c.86,4.68,4.48,7.44,9.45,7.44,3.3,0,5.56-.9,7.51-3.3l4.32,4.26a15.38,15.38,0,0,1-12.15,5.7c-9.34,0-16.1-7.14-16.1-17s6.32-17,15.66-17c8.43,0,14.26,6.54,14.26,15.48a40.28,40.28,0,0,1-.32,4.44Zm.11-6.18h16.2c-.76-4.8-3.56-7.14-7.67-7.14A8.32,8.32,0,0,0,108.27,25.32Z"/><path class="cls-1" d="M152.12,28.56c0-9.9,6.8-17.1,16.09-17.1s16.14,7.2,16.14,17-6.75,17.16-16.14,17.16S152.12,38.46,152.12,28.56Zm25.43,0c0-6.3-3.89-10.32-9.34-10.32s-9.34,4-9.34,10.26,3.94,10.44,9.39,10.44S177.55,34.8,177.55,28.56Z"/><path class="cls-1" d="M200.45,12.18H210v6.66h-9.55V45H193.7V18.84h-5.62V12.18h5.62V11c0-7,3.83-11,9.82-11A18.21,18.21,0,0,1,211,1.44l-1.19,6.48a11.13,11.13,0,0,0-5-1.08c-2.75,0-4.42,1.08-4.42,4.86Z"/><path class="cls-1" d="M266.43,33.78c0,7-5.29,11.22-13.93,11.22H233.11V3H252c8,0,12.91,4,12.91,10.56,0,4.5-2.33,8.28-5.83,9.78C263.52,24.66,266.43,28.74,266.43,33.78ZM240.08,9.9V20.4h10.48c5.29,0,7.4-1.8,7.4-5.28,0-3.72-2.33-5.22-7.4-5.22Zm11.45,28.2c5.67,0,7.94-1.8,7.94-5.4,0-4-2.65-5.52-8.21-5.52H240.08V38.1Z"/><path class="cls-1" d="M273.18,8.16V1h7v7.2ZM273.34,45V12.18H280V45Z"/><path class="cls-1" d="M306.23,12,306,19.62a10,10,0,0,0-2.91-.42c-5.13,0-8.16,4.86-8.16,12.24V45h-6.69V12.18h6.69v4.2a10.05,10.05,0,0,1,8.43-4.62A18,18,0,0,1,306.23,12Z"/><path class="cls-1" d="M333.71,43.5a17.18,17.18,0,0,1-8.26,2.16c-6.05,0-9.66-3.78-9.66-10.68V18.84h-5.57V12.18h5.67l.49-8.58h6.1v8.58h10.1v6.66h-10.1V33.78c0,3.24,1.62,5.22,4.21,5.22a14.23,14.23,0,0,0,5.73-1.32Z"/><path class="cls-1" d="M369.19,25.32V45H362.5V26.34c0-5.22-2.27-8-6.92-8-5,0-8.58,4.32-8.58,10.44V45h-6.7V.72H347V16.14a12.77,12.77,0,0,1,10.2-4.68C364.39,11.46,369.19,16.68,369.19,25.32Z"/></g></g></svg>