<svg xmlns="http://www.w3.org/2000/svg" viewBox="0 0 148.12 44.94"><defs><style>.cls-1{fill:#fff;}</style></defs><title>Asset 21</title><g id="Layer_2" data-name="Layer 2"><g id="Layer_1-2" data-name="Layer 1"><path class="cls-1" d="M6.86,37.44H30.13v6.84H0v-42H29.59V9.12H6.86V19.2H27.22V26H6.86Z"/><path class="cls-1" d="M85.75,24.36V44.28H79V25.38c0-5-1.89-7.74-6-7.74-4.43,0-8.26,4.38-8.26,10.26V44.28H58V25.38c0-5-1.89-7.74-6-7.74-4.38,0-8.26,4.38-8.26,10.26V44.28H37V11.46h6.7v4.08a13.12,13.12,0,0,1,10.09-4.8,10,10,0,0,1,9.72,6.48,13.27,13.27,0,0,1,11.34-6.48C81.54,10.74,85.75,15.78,85.75,24.36Z"/><path class="cls-1" d="M118.53,24.54V44.28h-6.7v-3.9a13.21,13.21,0,0,1-10.47,4.56C95.09,44.94,91,40.5,91,34.44c0-5.76,3.24-11,11.88-11a81.41,81.41,0,0,1,8.86.54c-.22-4.14-2.86-6.54-7.78-6.54A12.48,12.48,0,0,0,95.79,21L92.5,15.54a18.23,18.23,0,0,1,12.21-4.8C114.16,10.74,118.53,16,118.53,24.54Zm-6.75,6V30a43.45,43.45,0,0,0-7.24-.54c-5.45,0-7.07,1.92-7.07,4.56,0,2.94,2.27,4.26,6.1,4.26A8.24,8.24,0,0,0,111.78,30.54Z"/><path class="cls-1" d="M126,7.44V.24h7v7.2Zm.17,36.84V11.46h6.69V44.28Z"/><path class="cls-1" d="M141.42,44.28V0h6.7V44.28Z"/></g></g></svg>