<svg xmlns="http://www.w3.org/2000/svg" viewBox="0 0 1145.23 76.28"><defs><style>.cls-1{fill:#fff;}</style></defs><title>Asset 23</title><g id="Layer_2" data-name="Layer 2"><g id="Layer_1-2" data-name="Layer 1"><path class="cls-1" d="M18.63,1.37V3.85H10.75V26.56H8.23V3.85H.39V1.37Z"/><path class="cls-1" d="M41,15.08V26.56H38.59V15.44c0-3.89-1.85-6.19-5.12-6.19s-6.16,3-6.16,7.24V26.56H24.92V0h2.39V10.58A7.7,7.7,0,0,1,34,6.77C38.23,6.77,41,9.93,41,15.08Z"/><path class="cls-1" d="M49.31,4.36V.4h2.56v4Zm.07,22.2V7.09h2.39V26.56Z"/><path class="cls-1" d="M58.94,24.33l1-2.23a10.63,10.63,0,0,0,6.42,2.3c2.85,0,4.6-1,4.6-3.16,0-1.84-1.27-2.63-5-3.39-5-1-6.51-2.66-6.51-5.58C59.52,8.85,62,6.8,66,6.8a12,12,0,0,1,6.77,2.05l-1,2.27a10,10,0,0,0-5.92-1.83c-2.43,0-3.86,1-3.86,2.77,0,1.62,1.07,2.45,4.73,3.24,5.12,1.19,6.71,2.84,6.71,5.87,0,3.63-2.79,5.72-7.16,5.72A12.21,12.21,0,0,1,58.94,24.33Z"/><path class="cls-1" d="M93.54,4.36V.4H96.1v4Zm.06,22.2V7.09H96V26.56Z"/><path class="cls-1" d="M103.16,24.33l1-2.23a10.58,10.58,0,0,0,6.41,2.3c2.85,0,4.6-1,4.6-3.16,0-1.84-1.26-2.63-5-3.39-5-1-6.51-2.66-6.51-5.58,0-3.42,2.43-5.47,6.48-5.47A12,12,0,0,1,117,8.85l-1,2.27a10.05,10.05,0,0,0-5.93-1.83c-2.43,0-3.85,1-3.85,2.77,0,1.62,1.06,2.45,4.72,3.24,5.12,1.19,6.71,2.84,6.71,5.87,0,3.63-2.79,5.72-7.16,5.72A12.23,12.23,0,0,1,103.16,24.33Z"/><path class="cls-1" d="M149.33,25.74a8.53,8.53,0,0,1-4.28,1.18c-3.14,0-5.18-2.12-5.18-5.75V9.57h-3.5V7.09h3.53l.19-5.25h2.21V7.09h6.31V9.57H142.3V20.7c0,2.34,1.29,3.78,3.17,3.78a7.47,7.47,0,0,0,3.37-.87Z"/><path class="cls-1" d="M172.91,15.08V26.56h-2.43V15.44c0-3.89-1.84-6.19-5.11-6.19s-6.16,3-6.16,7.24V26.56h-2.4V0h2.4V10.58a7.7,7.7,0,0,1,6.71-3.81C170.13,6.77,172.91,9.93,172.91,15.08Z"/><path class="cls-1" d="M182.73,17.85c.33,4,3.08,6.59,6.87,6.59a6.25,6.25,0,0,0,5.18-2.37l1.59,1.58a8.74,8.74,0,0,1-6.9,3.24c-5.38,0-9.2-4.21-9.2-10.08s3.6-10,8.94-10c4.8,0,8.13,3.85,8.13,9.46a10.91,10.91,0,0,1-.13,1.62Zm0-2.34H195c-.36-4.06-2.59-6.3-5.77-6.3C185.65,9.21,183.19,11.73,182.77,15.51Z"/><path class="cls-1" d="M233.5,15.08V26.56h-2.43V15.44c0-3.89-1.85-6.19-5.12-6.19s-6.15,3-6.15,7.24V26.56h-2.4V7.09h2.4v3.49a7.68,7.68,0,0,1,6.7-3.81C230.71,6.77,233.5,9.93,233.5,15.08Z"/><path class="cls-1" d="M255.53,14.47V26.56H253.1V22.89a7.67,7.67,0,0,1-6.73,4,5.65,5.65,0,0,1-6.06-6c0-3.53,2.1-6.19,6.87-6.19a51.76,51.76,0,0,1,5.92.39v-.64c0-3.46-1.84-5.3-5.28-5.3a8.13,8.13,0,0,0-5.37,2.16l-1.24-2a10,10,0,0,1,6.84-2.62C253,6.77,255.53,9.57,255.53,14.47ZM253.1,18v-.57a30,30,0,0,0-5.37-.43c-3.6,0-5.09,1.4-5.09,3.77s1.62,3.64,4.47,3.64C250.61,24.44,253.1,21.13,253.1,18Z"/><path class="cls-1" d="M292,14.87V26.56h-2.46V15.23c0-3.78-1.62-6-4.6-6s-5.77,3.06-5.77,7.16V26.56h-2.43V15.23c0-3.78-1.62-6-4.6-6-3.14,0-5.8,3.06-5.8,7.16V26.56h-2.4V7.09h2.4v3.46a7.53,7.53,0,0,1,6.42-3.78,6,6,0,0,1,6,4.6,7.63,7.63,0,0,1,6.86-4.6C289.45,6.77,292,9.79,292,14.87Z"/><path class="cls-1" d="M301.74,17.85c.32,4,3.07,6.59,6.86,6.59a6.27,6.27,0,0,0,5.19-2.37l1.59,1.58a8.77,8.77,0,0,1-6.9,3.24c-5.38,0-9.2-4.21-9.2-10.08s3.59-10,8.94-10c4.79,0,8.13,3.85,8.13,9.46a12.47,12.47,0,0,1-.13,1.62Zm0-2.34H314c-.35-4.06-2.59-6.3-5.76-6.3C304.65,9.21,302.19,11.73,301.77,15.51Z"/><path class="cls-1" d="M354.42,16.88c0,6-3.73,10-8.52,10a8,8,0,0,1-7.1-4v9.83h-2.39V7.09h2.39v3.67a8,8,0,0,1,7.1-4C350.69,6.77,354.42,11,354.42,16.88Zm-2.4,0c0-4.5-2.72-7.63-6.48-7.63s-6.74,3-6.74,7.6,2.85,7.55,6.74,7.55S352,21.31,352,16.88Z"/><path class="cls-1" d="M363.56,17.85c.32,4,3.07,6.59,6.86,6.59a6.28,6.28,0,0,0,5.19-2.37l1.58,1.58a8.74,8.74,0,0,1-6.9,3.24c-5.37,0-9.2-4.21-9.2-10.08s3.6-10,8.94-10c4.8,0,8.14,3.85,8.14,9.46a12.47,12.47,0,0,1-.13,1.62Zm0-2.34H375.8c-.36-4.06-2.59-6.3-5.77-6.3C366.47,9.21,364,11.73,363.59,15.51Z"/><path class="cls-1" d="M384.36,16.81c0-5.83,3.85-10,9.2-10s9.23,4.21,9.23,10-3.86,10.15-9.23,10.15S384.36,22.68,384.36,16.81Zm16,0c0-4.5-2.85-7.6-6.8-7.6s-6.77,3.1-6.77,7.6,2.85,7.63,6.8,7.63S400.36,21.31,400.36,16.81Z"/><path class="cls-1" d="M428.48,16.88c0,6-3.72,10-8.52,10a8,8,0,0,1-7.09-4v9.83h-2.4V7.09h2.4v3.67a8,8,0,0,1,7.09-4C424.76,6.77,428.48,11,428.48,16.88Zm-2.4,0c0-4.5-2.72-7.63-6.47-7.63s-6.74,3-6.74,7.6,2.85,7.55,6.74,7.55S426.08,21.31,426.08,16.88Z"/><path class="cls-1" d="M436.36,26.56V0h2.39V26.56Z"/><path class="cls-1" d="M449.09,17.85c.33,4,3.08,6.59,6.87,6.59a6.25,6.25,0,0,0,5.18-2.37l1.59,1.58a8.75,8.75,0,0,1-6.9,3.24c-5.38,0-9.2-4.21-9.2-10.08s3.59-10,8.94-10c4.79,0,8.13,3.85,8.13,9.46a10.91,10.91,0,0,1-.13,1.62Zm0-2.34h12.22c-.36-4.06-2.6-6.3-5.77-6.3C452,9.21,449.54,11.73,449.12,15.51Z"/><path class="cls-1" d="M506.3,7.09h2.56l-6.09,19.47H500l-4.7-15.83-4.69,15.83h-2.72L481.75,7.09h2.56l5,16.34,4.79-16.34h2.49l4.83,16.34Z"/><path class="cls-1" d="M515.51,4.36V.4h2.56v4Zm.07,22.2V7.09H518V26.56Z"/><path class="cls-1" d="M526.85,26.56V0h2.4V26.56Z"/><path class="cls-1" d="M538.32,26.56V0h2.4V26.56Z"/><path class="cls-1" d="M576.58,26.56l-7.39-9.5-4.14,4.54v5h-2.4V0h2.4V18.36L575.12,7.09h3.21l-7.55,8.24,8.72,11.23Z"/><path class="cls-1" d="M602.21,15.08V26.56h-2.43V15.44c0-3.89-1.85-6.19-5.12-6.19s-6.15,3-6.15,7.24V26.56h-2.4V7.09h2.4v3.49a7.67,7.67,0,0,1,6.7-3.81C599.42,6.77,602.21,9.93,602.21,15.08Z"/><path class="cls-1" d="M609.57,16.81c0-5.83,3.85-10,9.2-10S628,11,628,16.77s-3.86,10.15-9.23,10.15S609.57,22.68,609.57,16.81Zm16,0c0-4.5-2.85-7.6-6.8-7.6s-6.77,3.1-6.77,7.6,2.85,7.63,6.8,7.63S625.57,21.31,625.57,16.81Z"/><path class="cls-1" d="M656.87,7.09h2.55l-6.09,19.47h-2.75l-4.7-15.83-4.69,15.83h-2.72L632.31,7.09h2.56l5,16.34,4.79-16.34h2.5l4.82,16.34Z"/><path class="cls-1" d="M692.25,7.09h2.65l-7.64,19.47-.71,1.84c-1.3,3.28-2.92,4.68-5.77,4.68a6.6,6.6,0,0,1-3.43-1l.77-2a5.53,5.53,0,0,0,2.56.72c1.72,0,2.63-.94,3.5-3l.49-1.22L677,7.09h2.66L686,23.47Z"/><path class="cls-1" d="M699.05,16.81c0-5.83,3.86-10,9.2-10s9.24,4.21,9.24,10-3.86,10.15-9.24,10.15S699.05,22.68,699.05,16.81Zm16,0c0-4.5-2.85-7.6-6.81-7.6s-6.77,3.1-6.77,7.6,2.85,7.63,6.81,7.63S715.06,21.31,715.06,16.81Z"/><path class="cls-1" d="M738.55,7.09h2.39V26.56h-2.39V23.07a7.71,7.71,0,0,1-6.71,3.82c-4.21,0-7-3.17-7-8.32V7.09h2.43V18.21c0,3.89,1.85,6.19,5.12,6.19s6.16-3,6.16-7.23Z"/><path class="cls-1" d="M780.7,16.81c0,5.87-3.73,10.11-8.52,10.11a8.05,8.05,0,0,1-7.1-4v3.63h-2.39V0h2.39V10.76a8.05,8.05,0,0,1,7.1-4C777,6.77,780.7,10.8,780.7,16.81Zm-2.4,0c0-4.43-2.72-7.56-6.48-7.56s-6.74,3-6.74,7.56,2.86,7.63,6.74,7.63S778.3,21.31,778.3,16.81Z"/><path class="cls-1" d="M800.27,7.09h2.66l-7.65,19.47-.71,1.84c-1.3,3.28-2.92,4.68-5.77,4.68a6.63,6.63,0,0,1-3.43-1l.78-2a5.49,5.49,0,0,0,2.56.72c1.71,0,2.62-.94,3.49-3l.49-1.22L785,7.09h2.66L794,23.47Z"/><path class="cls-1" d="M821.3,16.81c0-5.83,3.85-10,9.2-10s9.23,4.21,9.23,10-3.85,10.15-9.23,10.15S821.3,22.68,821.3,16.81Zm16,0c0-4.5-2.85-7.6-6.8-7.6s-6.77,3.1-6.77,7.6,2.85,7.63,6.8,7.63S837.3,21.31,837.3,16.81Z"/><path class="cls-1" d="M863.51,15.08V26.56h-2.43V15.44c0-3.89-1.84-6.19-5.11-6.19s-6.16,3-6.16,7.24V26.56h-2.4V7.09h2.4v3.49a7.7,7.7,0,0,1,6.71-3.81C860.73,6.77,863.51,9.93,863.51,15.08Z"/><path class="cls-1" d="M884.16,14c0-7.35,5-13,11.66-13a10.89,10.89,0,0,1,8.58,3.85l-1.62,1.8a8.71,8.71,0,0,0-6.9-3.1c-5.21,0-9.1,4.5-9.1,10.37,0,6.08,4,10.44,9.1,10.44a9.09,9.09,0,0,0,7-3.2l1.62,1.76a11,11,0,0,1-8.59,4C889.21,26.92,884.16,21.31,884.16,14Z"/><path class="cls-1" d="M925,14.47V26.56h-2.43V22.89a7.7,7.7,0,0,1-6.74,4,5.65,5.65,0,0,1-6.06-6c0-3.53,2.11-6.19,6.87-6.19a52.1,52.1,0,0,1,5.93.39v-.64c0-3.46-1.85-5.3-5.28-5.3a8.14,8.14,0,0,0-5.38,2.16l-1.23-2a10,10,0,0,1,6.83-2.62C922.45,6.77,925,9.57,925,14.47ZM922.55,18v-.57a30.15,30.15,0,0,0-5.38-.43c-3.6,0-5.09,1.4-5.09,3.77s1.62,3.64,4.47,3.64C920.05,24.44,922.55,21.13,922.55,18Z"/><path class="cls-1" d="M949.44,15.08V26.56H947V15.44c0-3.89-1.85-6.19-5.12-6.19s-6.16,3-6.16,7.24V26.56h-2.39V7.09h2.39v3.49a7.7,7.7,0,0,1,6.71-3.81C946.65,6.77,949.44,9.93,949.44,15.08Z"/><path class="cls-1" d="M962.46,26.56,954.82,7.09h2.66l6.28,16.38L970,7.09h2.66l-7.64,19.47Z"/><path class="cls-1" d="M991.88,14.47V26.56h-2.43V22.89a7.68,7.68,0,0,1-6.74,4,5.64,5.64,0,0,1-6.05-6c0-3.53,2.1-6.19,6.86-6.19a51.79,51.79,0,0,1,5.93.39v-.64c0-3.46-1.84-5.3-5.28-5.3a8.18,8.18,0,0,0-5.38,2.16l-1.23-2a10,10,0,0,1,6.84-2.62C989.36,6.77,991.88,9.57,991.88,14.47ZM989.45,18v-.57a30,30,0,0,0-5.37-.43c-3.6,0-5.09,1.4-5.09,3.77s1.62,3.64,4.47,3.64C987,24.44,989.45,21.13,989.45,18Z"/><path class="cls-1" d="M998.72,24.33l1-2.23a10.58,10.58,0,0,0,6.41,2.3c2.85,0,4.6-1,4.6-3.16,0-1.84-1.26-2.63-5-3.39-5-1-6.51-2.66-6.51-5.58,0-3.42,2.43-5.47,6.48-5.47a12,12,0,0,1,6.77,2.05l-1,2.27a10.05,10.05,0,0,0-5.93-1.83c-2.43,0-3.85,1-3.85,2.77,0,1.62,1.06,2.45,4.73,3.24,5.11,1.19,6.7,2.84,6.7,5.87,0,3.63-2.78,5.72-7.16,5.72A12.23,12.23,0,0,1,998.72,24.33Z"/><path class="cls-1" d="M1032.22,23.18l1.2-2.12a11.68,11.68,0,0,0,7.94,3.27c3.63,0,5.6-1.87,5.6-4.32,0-2.8-1.94-3.78-6.09-4.75-5.15-1.26-8-3.13-8-7.34,0-4.39,3.57-6.91,8.17-6.91a12,12,0,0,1,7.71,2.84l-1.36,2.05a10.94,10.94,0,0,0-6.52-2.34c-3.3,0-5.37,1.69-5.37,4.4s1.81,3.74,6,4.82c5.38,1.29,8,2.84,8,7.09s-3.47,7.05-8.39,7.05A12.73,12.73,0,0,1,1032.22,23.18Z"/><path class="cls-1" d="M1073.5,15.08V26.56h-2.43V15.44c0-3.89-1.85-6.19-5.12-6.19s-6.16,3-6.16,7.24V26.56h-2.39V0h2.39V10.58a7.7,7.7,0,0,1,6.71-3.81C1070.71,6.77,1073.5,9.93,1073.5,15.08Z"/><path class="cls-1" d="M1095.53,14.47V26.56h-2.43V22.89a7.69,7.69,0,0,1-6.74,4,5.65,5.65,0,0,1-6.06-6c0-3.53,2.11-6.19,6.87-6.19a52.1,52.1,0,0,1,5.93.39v-.64c0-3.46-1.85-5.3-5.28-5.3a8.14,8.14,0,0,0-5.38,2.16l-1.23-2A10,10,0,0,1,1088,6.77C1093,6.77,1095.53,9.57,1095.53,14.47ZM1093.1,18v-.57a30.07,30.07,0,0,0-5.38-.43c-3.6,0-5.09,1.4-5.09,3.77s1.62,3.64,4.48,3.64C1090.6,24.44,1093.1,21.13,1093.1,18Z"/><path class="cls-1" d="M1113.48,7.05l-.1,2.78a5.22,5.22,0,0,0-1.62-.26c-3.47,0-5.47,3.68-5.47,8.1v8.89h-2.4V7.09h2.4v3.67a6.13,6.13,0,0,1,5.54-3.88A8.21,8.21,0,0,1,1113.48,7.05Z"/><path class="cls-1" d="M1121,17.85c.33,4,3.08,6.59,6.87,6.59a6.25,6.25,0,0,0,5.18-2.37l1.59,1.58a8.74,8.74,0,0,1-6.9,3.24c-5.37,0-9.2-4.21-9.2-10.08s3.6-10,8.94-10c4.8,0,8.13,3.85,8.13,9.46a10.91,10.91,0,0,1-.13,1.62Zm0-2.34h12.21c-.36-4.06-2.59-6.3-5.77-6.3C1123.88,9.21,1121.42,11.73,1121,15.51Z"/><path class="cls-1" d="M1142,23.33h3.21v3.23H1142Z"/><path class="cls-1" d="M20.86,44.57l-9.17,15.8v9.39H9.17v-9.5L0,44.57H2.79l7.67,13.35,7.65-13.35Z"/><path class="cls-1" d="M23.23,60c0-5.83,3.86-10,9.2-10s9.23,4.21,9.23,10-3.85,10.15-9.23,10.15S23.23,65.88,23.23,60Zm16,0c0-4.5-2.85-7.59-6.8-7.59S25.66,55.51,25.66,60s2.85,7.63,6.8,7.63S39.23,64.51,39.23,60Z"/><path class="cls-1" d="M62.72,50.29h2.4V69.76h-2.4V66.27A7.68,7.68,0,0,1,56,70.09c-4.21,0-7-3.17-7-8.32V50.29h2.43V61.41c0,3.89,1.85,6.19,5.12,6.19s6.15-3,6.15-7.23Z"/><path class="cls-1" d="M85.67,60.05c0-5.91,4-10.08,9.2-10.08a8.63,8.63,0,0,1,6.7,3.09l-1.75,1.66a6.14,6.14,0,0,0-5-2.3c-3.82,0-6.74,2.95-6.74,7.59S91,67.64,94.9,67.64a6.07,6.07,0,0,0,4.95-2.34l1.72,1.62a8.56,8.56,0,0,1-6.7,3.2C89.62,70.12,85.67,66,85.67,60.05Z"/><path class="cls-1" d="M122.28,57.67V69.76h-2.43V66.09a7.7,7.7,0,0,1-6.74,4,5.65,5.65,0,0,1-6.06-6c0-3.53,2.11-6.19,6.87-6.19a52.1,52.1,0,0,1,5.93.39v-.64c0-3.46-1.85-5.29-5.28-5.29a8.13,8.13,0,0,0-5.38,2.15l-1.23-2A10,10,0,0,1,114.79,50C119.75,50,122.28,52.77,122.28,57.67Zm-2.43,3.56v-.57a30.15,30.15,0,0,0-5.38-.43c-3.6,0-5.09,1.4-5.09,3.78s1.62,3.63,4.47,3.63C117.35,67.64,119.85,64.33,119.85,61.23Z"/><path class="cls-1" d="M146.74,58.28V69.76h-2.43V58.64c0-3.89-1.85-6.19-5.12-6.19s-6.16,3-6.16,7.24V69.76h-2.39V50.29H133v3.49A7.7,7.7,0,0,1,139.74,50C144,50,146.74,53.13,146.74,58.28Z"/><path class="cls-1" d="M181.63,57.67V69.76H179.2V66.09a7.68,7.68,0,0,1-6.74,4,5.64,5.64,0,0,1-6.05-6c0-3.53,2.1-6.19,6.86-6.19a51.79,51.79,0,0,1,5.93.39v-.64c0-3.46-1.84-5.29-5.28-5.29a8.17,8.17,0,0,0-5.38,2.15l-1.23-2A10,10,0,0,1,174.15,50C179.1,50,181.63,52.77,181.63,57.67Zm-2.43,3.56v-.57a30,30,0,0,0-5.38-.43c-3.59,0-5.08,1.4-5.08,3.78s1.62,3.63,4.47,3.63C176.71,67.64,179.2,64.33,179.2,61.23Z"/><path class="cls-1" d="M190.19,69.76V43.2h2.39V69.76Z"/><path class="cls-1" d="M224,50.29h2.56l-6.09,19.47h-2.76L213,53.93l-4.7,15.83h-2.72l-6.16-19.47H202l5,16.34,4.79-16.34h2.5l4.82,16.34Z"/><path class="cls-1" d="M245.94,57.67V69.76h-2.43V66.09a7.67,7.67,0,0,1-6.73,4,5.65,5.65,0,0,1-6.06-6c0-3.53,2.1-6.19,6.87-6.19a51.76,51.76,0,0,1,5.92.39v-.64c0-3.46-1.84-5.29-5.28-5.29a8.12,8.12,0,0,0-5.37,2.15l-1.23-2A10,10,0,0,1,238.46,50C243.42,50,245.94,52.77,245.94,57.67Zm-2.43,3.56v-.57a30,30,0,0,0-5.37-.43c-3.6,0-5.09,1.4-5.09,3.78s1.62,3.63,4.47,3.63C241,67.64,243.51,64.33,243.51,61.23Z"/><path class="cls-1" d="M266.74,50.29h2.66l-7.64,19.47L261,71.6c-1.29,3.28-2.91,4.68-5.76,4.68a6.63,6.63,0,0,1-3.44-1l.78-2a5.49,5.49,0,0,0,2.56.72c1.72,0,2.62-.94,3.5-3l.48-1.22-7.64-19.44h2.66l6.28,16.38Z"/><path class="cls-1" d="M273.68,67.53l1-2.23a10.58,10.58,0,0,0,6.41,2.3c2.85,0,4.6-1,4.6-3.16,0-1.84-1.26-2.63-5-3.39-5-1-6.52-2.66-6.52-5.58,0-3.42,2.43-5.47,6.48-5.47a12,12,0,0,1,6.77,2l-1,2.27a10.05,10.05,0,0,0-5.93-1.83c-2.43,0-3.85,1-3.85,2.77s1.06,2.45,4.73,3.24c5.11,1.19,6.7,2.84,6.7,5.87,0,3.63-2.78,5.72-7.16,5.72A12.23,12.23,0,0,1,273.68,67.53Z"/><path class="cls-1" d="M307.34,60.05c0-5.91,4-10.08,9.2-10.08a8.64,8.64,0,0,1,6.71,3.09l-1.75,1.66a6.14,6.14,0,0,0-5-2.3c-3.82,0-6.74,2.95-6.74,7.59s2.92,7.63,6.81,7.63a6.07,6.07,0,0,0,4.95-2.34l1.72,1.62a8.56,8.56,0,0,1-6.71,3.2C311.3,70.12,307.34,66,307.34,60.05Z"/><path class="cls-1" d="M346.58,58.28V69.76h-2.43V58.64c0-3.89-1.85-6.19-5.12-6.19s-6.16,3-6.16,7.24V69.76h-2.39V43.2h2.39V53.78A7.7,7.7,0,0,1,339.58,50C343.79,50,346.58,53.13,346.58,58.28Z"/><path class="cls-1" d="M368.61,57.67V69.76h-2.43V66.09a7.68,7.68,0,0,1-6.74,4,5.65,5.65,0,0,1-6.06-6c0-3.53,2.11-6.19,6.87-6.19a51.79,51.79,0,0,1,5.93.39v-.64c0-3.46-1.85-5.29-5.28-5.29a8.13,8.13,0,0,0-5.38,2.15l-1.23-2A10,10,0,0,1,361.13,50C366.08,50,368.61,52.77,368.61,57.67Zm-2.43,3.56v-.57a30,30,0,0,0-5.38-.43c-3.59,0-5.08,1.4-5.08,3.78s1.62,3.63,4.47,3.63C363.69,67.64,366.18,64.33,366.18,61.23Z"/><path class="cls-1" d="M393.07,58.28V69.76h-2.43V58.64c0-3.89-1.85-6.19-5.12-6.19s-6.15,3-6.15,7.24V69.76H377V50.29h2.4v3.49a7.68,7.68,0,0,1,6.7-3.81C390.28,50,393.07,53.13,393.07,58.28Z"/><path class="cls-1" d="M410.83,65.37c4.53,0,6.9,2,6.9,4.86,0,3.6-3.34,6-9.3,6-5,0-7.94-1.87-7.94-5a4.66,4.66,0,0,1,2.69-3.82,3.3,3.3,0,0,1-1.78-3,3.5,3.5,0,0,1,2.14-3.24,6.09,6.09,0,0,1-2.08-4.83c0-3.88,2.76-6.37,7.23-6.37a7.26,7.26,0,0,1,3.34.69l4.53-1.26.55,2.23-2.95.54A5.16,5.16,0,0,1,416,56.3c0,4-2.76,6.45-7.23,6.45a9.6,9.6,0,0,1-3.69-.69c-.91.43-1.26.94-1.26,1.66,0,1.11.84,1.65,2,1.65Zm4.47,5c0-1.8-1.88-2.52-5.12-2.52H405c-1.39.9-2.07,1.87-2.07,3,0,2.06,2.1,3,5.6,3C412.8,73.8,415.3,72.72,415.3,70.38ZM403.86,56.27c0,2.59,1.78,4.1,4.86,4.1s4.86-1.48,4.86-4.07-1.78-4-4.86-4S403.86,53.78,403.86,56.27Z"/><path class="cls-1" d="M424.83,61.05c.32,4,3.07,6.59,6.86,6.59a6.28,6.28,0,0,0,5.19-2.37l1.58,1.58a8.74,8.74,0,0,1-6.9,3.24c-5.37,0-9.2-4.21-9.2-10.08s3.6-10,8.94-10c4.8,0,8.13,3.85,8.13,9.46a12.18,12.18,0,0,1-.12,1.62Zm0-2.34h12.21c-.36-4.06-2.59-6.29-5.77-6.29C427.74,52.42,425.28,54.93,424.86,58.71Z"/><path class="cls-1" d="M459.43,47.56v-4H462v4Zm.06,22.2V50.29h2.4V69.76Z"/><path class="cls-1" d="M482.07,68.94a8.49,8.49,0,0,1-4.27,1.18c-3.14,0-5.19-2.12-5.19-5.75V52.77h-3.49V50.29h3.53l.19-5.25H475v5.25h6.32v2.48H475V63.9c0,2.34,1.3,3.78,3.18,3.78a7.51,7.51,0,0,0,3.37-.87Z"/><path class="cls-1" d="M502.42,69.76V43.2h2.4V69.76Z"/><path class="cls-1" d="M527.37,57.67V69.76h-2.43V66.09a7.69,7.69,0,0,1-6.74,4,5.65,5.65,0,0,1-6.06-6c0-3.53,2.11-6.19,6.87-6.19a52.1,52.1,0,0,1,5.93.39v-.64c0-3.46-1.85-5.29-5.28-5.29a8.13,8.13,0,0,0-5.38,2.15l-1.23-2A10,10,0,0,1,519.88,50C524.84,50,527.37,52.77,527.37,57.67Zm-2.43,3.56v-.57a30.07,30.07,0,0,0-5.38-.43c-3.6,0-5.09,1.4-5.09,3.78s1.62,3.63,4.48,3.63C522.44,67.64,524.94,64.33,524.94,61.23Z"/><path class="cls-1" d="M547.23,68.94A8.53,8.53,0,0,1,543,70.12c-3.14,0-5.18-2.12-5.18-5.75V52.77h-3.5V50.29h3.53L538,45h2.2v5.25h6.32v2.48H540.2V63.9c0,2.34,1.3,3.78,3.17,3.78a7.44,7.44,0,0,0,3.37-.87Z"/><path class="cls-1" d="M555,61.05c.32,4,3.08,6.59,6.87,6.59a6.26,6.26,0,0,0,5.18-2.37l1.59,1.58a8.77,8.77,0,0,1-6.9,3.24c-5.38,0-9.2-4.21-9.2-10.08s3.59-10,8.94-10c4.79,0,8.13,3.85,8.13,9.46a10.91,10.91,0,0,1-.13,1.62Zm0-2.34h12.21c-.35-4.06-2.59-6.29-5.76-6.29C558,52.42,555.49,54.93,555.07,58.71Z"/><path class="cls-1" d="M586.43,50.25,586.34,53a5.26,5.26,0,0,0-1.62-.26c-3.47,0-5.48,3.68-5.48,8.1v8.89h-2.4V50.29h2.4V54a6.15,6.15,0,0,1,5.54-3.88A8.13,8.13,0,0,1,586.43,50.25Z"/></g></g></svg>