<svg xmlns="http://www.w3.org/2000/svg" viewBox="0 0 1170.34 76.28"><defs><style>.cls-1{fill:#fff;}</style></defs><title>Asset 25</title><g id="Layer_2" data-name="Layer 2"><g id="Layer_1-2" data-name="Layer 1"><path class="cls-1" d="M0,23.54l1.2-2.12a11.68,11.68,0,0,0,7.94,3.27c3.62,0,5.6-1.87,5.6-4.32,0-2.8-1.94-3.78-6.09-4.75-5.15-1.26-8-3.13-8-7.34,0-4.39,3.56-6.91,8.16-6.91a12,12,0,0,1,7.71,2.84L15.19,6.26A10.92,10.92,0,0,0,8.68,3.92c-3.3,0-5.38,1.7-5.38,4.4s1.82,3.74,6.06,4.82c5.38,1.29,8,2.84,8,7.09S13.9,27.29,9,27.29A12.73,12.73,0,0,1,0,23.54Z"/><path class="cls-1" d="M36.09,26.1a8.53,8.53,0,0,1-4.27,1.19c-3.15,0-5.19-2.13-5.19-5.76V9.93h-3.5V7.45h3.54l.19-5.25h2.2V7.45h6.32V9.93H29.06V21.06c0,2.34,1.3,3.78,3.18,3.78A7.51,7.51,0,0,0,35.61,24Z"/><path class="cls-1" d="M53,7.42l-.09,2.77a5.32,5.32,0,0,0-1.63-.26c-3.46,0-5.47,3.68-5.47,8.1v8.89h-2.4V7.45h2.4v3.67a6.15,6.15,0,0,1,5.54-3.88A7.44,7.44,0,0,1,53,7.42Z"/><path class="cls-1" d="M58,17.17c0-5.83,3.85-10,9.2-10s9.23,4.21,9.23,10S72.57,27.29,67.2,27.29,58,23,58,17.17Zm16,0c0-4.5-2.85-7.59-6.8-7.59s-6.77,3.09-6.77,7.59,2.85,7.63,6.8,7.63S74,21.67,74,17.17Z"/><path class="cls-1" d="M100.21,15.44V26.92H97.78V15.8c0-3.88-1.85-6.19-5.12-6.19s-6.15,3-6.15,7.24V26.92h-2.4V7.45h2.4v3.49a7.68,7.68,0,0,1,6.7-3.81C97.42,7.13,100.21,10.29,100.21,15.44Z"/><path class="cls-1" d="M118,22.53c4.53,0,6.9,2,6.9,4.86,0,3.6-3.34,6-9.3,6-5,0-7.94-1.87-7.94-5a4.68,4.68,0,0,1,2.69-3.82,3.3,3.3,0,0,1-1.78-3,3.5,3.5,0,0,1,2.14-3.24,6.09,6.09,0,0,1-2.08-4.83c0-3.88,2.76-6.37,7.23-6.37a7.29,7.29,0,0,1,3.34.69l4.53-1.26.55,2.23-3,.54a5.16,5.16,0,0,1,1.82,4.17c0,4-2.76,6.45-7.23,6.45a9.6,9.6,0,0,1-3.69-.69c-.91.43-1.26.94-1.26,1.66,0,1.11.84,1.65,2,1.65Zm4.47,5c0-1.8-1.88-2.52-5.12-2.52h-5.15c-1.39.9-2.08,1.87-2.08,3,0,2.06,2.11,3,5.61,3C119.94,31,122.44,29.88,122.44,27.54ZM111,13.43c0,2.59,1.78,4.1,4.86,4.1s4.86-1.48,4.86-4.07-1.78-4-4.86-4S111,10.94,111,13.43Z"/><path class="cls-1" d="M162.61,17.24c0,6-3.72,10.05-8.52,10.05a8,8,0,0,1-7.09-4v9.83h-2.4V7.45H147v3.67a8,8,0,0,1,7.09-4C158.89,7.13,162.61,11.34,162.61,17.24Zm-2.4,0c0-4.5-2.72-7.63-6.47-7.63s-6.74,3-6.74,7.6,2.85,7.55,6.74,7.55S160.21,21.67,160.21,17.24Z"/><path class="cls-1" d="M184,14.83V26.92h-2.43V23.25a7.68,7.68,0,0,1-6.73,4,5.65,5.65,0,0,1-6.06-6c0-3.53,2.1-6.19,6.87-6.19a51.76,51.76,0,0,1,5.92.39v-.64c0-3.46-1.84-5.29-5.28-5.29a8.12,8.12,0,0,0-5.37,2.15l-1.23-2a10,10,0,0,1,6.83-2.62C181.44,7.13,184,9.93,184,14.83Zm-2.43,3.56v-.57a30,30,0,0,0-5.37-.43c-3.6,0-5.09,1.4-5.09,3.78s1.62,3.63,4.47,3.63C179,24.8,181.53,21.49,181.53,18.39Z"/><path class="cls-1" d="M190.8,24.69l1-2.23a10.58,10.58,0,0,0,6.41,2.3c2.85,0,4.6-1,4.6-3.16,0-1.84-1.26-2.63-4.95-3.39-5-1-6.51-2.66-6.51-5.58,0-3.42,2.43-5.47,6.48-5.47a12,12,0,0,1,6.76,2.05l-1,2.27a10,10,0,0,0-5.93-1.83c-2.43,0-3.85,1-3.85,2.77s1.07,2.45,4.73,3.24c5.12,1.19,6.7,2.84,6.7,5.87,0,3.63-2.78,5.72-7.16,5.72A12.23,12.23,0,0,1,190.8,24.69Z"/><path class="cls-1" d="M211.05,24.69l1-2.23a10.58,10.58,0,0,0,6.41,2.3c2.85,0,4.6-1,4.6-3.16,0-1.84-1.26-2.63-4.95-3.39-5-1-6.51-2.66-6.51-5.58,0-3.42,2.43-5.47,6.48-5.47a12,12,0,0,1,6.76,2.05l-1,2.27A10,10,0,0,0,218,9.65c-2.43,0-3.85,1-3.85,2.77s1.07,2.45,4.73,3.24c5.12,1.19,6.7,2.84,6.7,5.87,0,3.63-2.78,5.72-7.16,5.72A12.23,12.23,0,0,1,211.05,24.69Z"/><path class="cls-1" d="M254.63,7.45h2.56L251.1,26.92h-2.76l-4.69-15.83L239,26.92h-2.72L230.07,7.45h2.56l5,16.34,4.79-16.34h2.5l4.82,16.34Z"/><path class="cls-1" d="M261.53,17.17c0-5.83,3.86-10,9.2-10s9.23,4.21,9.23,10-3.85,10.16-9.23,10.16S261.53,23,261.53,17.17Zm16,0c0-4.5-2.86-7.59-6.81-7.59S264,12.67,264,17.17s2.85,7.63,6.8,7.63S277.54,21.67,277.54,17.17Z"/><path class="cls-1" d="M297.24,7.42l-.1,2.77a5.22,5.22,0,0,0-1.62-.26c-3.47,0-5.48,3.68-5.48,8.1v8.89h-2.39V7.45H290v3.67a6.15,6.15,0,0,1,5.54-3.88A7.54,7.54,0,0,1,297.24,7.42Z"/><path class="cls-1" d="M317.87.36h2.43V26.92h-2.43V23.33a8.07,8.07,0,0,1-7.06,4c-4.79,0-8.52-4.25-8.52-10.12s3.73-10,8.52-10a7.93,7.93,0,0,1,7.06,4Zm0,16.81c0-4.54-2.82-7.56-6.7-7.56s-6.48,3.13-6.48,7.56,2.69,7.63,6.48,7.63S317.87,21.74,317.87,17.17Z"/><path class="cls-1" d="M327.66,24.69l1-2.23a10.58,10.58,0,0,0,6.41,2.3c2.85,0,4.6-1,4.6-3.16,0-1.84-1.26-2.63-5-3.39-5-1-6.51-2.66-6.51-5.58,0-3.42,2.43-5.47,6.48-5.47a12,12,0,0,1,6.77,2.05l-1,2.27a10.05,10.05,0,0,0-5.93-1.83c-2.43,0-3.85,1-3.85,2.77s1.06,2.45,4.72,3.24c5.12,1.19,6.71,2.84,6.71,5.87,0,3.63-2.79,5.72-7.16,5.72A12.23,12.23,0,0,1,327.66,24.69Z"/><path class="cls-1" d="M362.78,26.92V1.73h2.5V26.92Z"/><path class="cls-1" d="M390.51,15.44V26.92h-2.43V15.8c0-3.88-1.84-6.19-5.12-6.19s-6.15,3-6.15,7.24V26.92h-2.4V7.45h2.4v3.49a7.7,7.7,0,0,1,6.7-3.81C387.73,7.13,390.51,10.29,390.51,15.44Z"/><path class="cls-1" d="M397.87,17.21c0-5.91,3.95-10.08,9.2-10.08a8.65,8.65,0,0,1,6.71,3.09L412,11.88a6.16,6.16,0,0,0-5-2.3c-3.82,0-6.74,2.95-6.74,7.59s2.92,7.63,6.8,7.63a6.09,6.09,0,0,0,5-2.34l1.72,1.62a8.54,8.54,0,0,1-6.71,3.21C401.82,27.29,397.87,23.11,397.87,17.21Z"/><path class="cls-1" d="M421,26.92V.36h2.4V26.92Z"/><path class="cls-1" d="M445.66,7.45h2.39V26.92h-2.39V23.43A7.71,7.71,0,0,1,439,27.25c-4.21,0-7-3.17-7-8.32V7.45h2.42V18.57c0,3.89,1.85,6.19,5.12,6.19s6.16-3,6.16-7.23Z"/><path class="cls-1" d="M471.35.36h2.43V26.92h-2.43V23.33a8.07,8.07,0,0,1-7.06,4c-4.8,0-8.52-4.25-8.52-10.12s3.72-10,8.52-10a7.93,7.93,0,0,1,7.06,4Zm0,16.81c0-4.54-2.82-7.56-6.7-7.56s-6.48,3.13-6.48,7.56,2.69,7.63,6.48,7.63S471.35,21.74,471.35,17.17Z"/><path class="cls-1" d="M484.12,18.21c.32,4,3.08,6.59,6.87,6.59a6.26,6.26,0,0,0,5.18-2.37L497.76,24a8.77,8.77,0,0,1-6.9,3.24c-5.38,0-9.2-4.21-9.2-10.08s3.59-10,8.94-10c4.79,0,8.13,3.85,8.13,9.46a10.91,10.91,0,0,1-.13,1.62Zm0-2.34h12.21c-.35-4.06-2.59-6.29-5.76-6.29C487,9.58,484.57,12.09,484.15,15.87Z"/><path class="cls-1" d="M532.46,14.83V26.92H530V23.25a7.7,7.7,0,0,1-6.74,4,5.65,5.65,0,0,1-6.06-6c0-3.53,2.11-6.19,6.87-6.19a52.1,52.1,0,0,1,5.93.39v-.64c0-3.46-1.85-5.29-5.28-5.29a8.13,8.13,0,0,0-5.38,2.15l-1.23-2A10,10,0,0,1,525,7.13C529.93,7.13,532.46,9.93,532.46,14.83ZM530,18.39v-.57a30.07,30.07,0,0,0-5.38-.43c-3.6,0-5.09,1.4-5.09,3.78s1.62,3.63,4.47,3.63C527.53,24.8,530,21.49,530,18.39Z"/><path class="cls-1" d="M581.73,15.23V26.92h-2.46V15.59c0-3.78-1.62-6-4.6-6s-5.76,3.06-5.76,7.16V26.92h-2.43V15.59c0-3.78-1.62-6-4.6-6-3.15,0-5.8,3.06-5.8,7.16V26.92h-2.4V7.45h2.4v3.46a7.51,7.51,0,0,1,6.41-3.78,6,6,0,0,1,6,4.6,7.66,7.66,0,0,1,6.87-4.6C579.24,7.13,581.73,10.15,581.73,15.23Z"/><path class="cls-1" d="M590,4.72v-4h2.56v4Zm.07,22.2V7.45h2.39V26.92Z"/><path class="cls-1" d="M616.6,26.92h-2.82L608,18.86l-5.83,8.06h-2.76L606.52,17l-6.86-9.54h2.88l5.44,7.7,5.44-7.7h2.82l-6.8,9.5Z"/><path class="cls-1" d="M635.36,17.17c0-5.83,3.85-10,9.2-10s9.23,4.21,9.23,10-3.85,10.16-9.23,10.16S635.36,23,635.36,17.17Zm16,0c0-4.5-2.85-7.59-6.8-7.59s-6.77,3.09-6.77,7.59,2.85,7.63,6.8,7.63S651.36,21.67,651.36,17.17Z"/><path class="cls-1" d="M665.17,7.45h6.09V9.93h-6.09v17h-2.43v-17h-3.27V7.45h3.27V6c0-3.78,2-6,5.15-6a8.84,8.84,0,0,1,3.76.83l-.49,2.37a6.34,6.34,0,0,0-2.82-.68c-2,0-3.17,1.15-3.17,3.74Z"/><path class="cls-1" d="M690.5,26.92V.36h2.4V26.92Z"/><path class="cls-1" d="M700.77,17.17c0-5.83,3.86-10,9.2-10s9.24,4.21,9.24,10S715.35,27.29,710,27.29,700.77,23,700.77,17.17Zm16,0c0-4.5-2.85-7.59-6.81-7.59s-6.77,3.09-6.77,7.59,2.85,7.63,6.81,7.63S716.78,21.67,716.78,17.17Z"/><path class="cls-1" d="M748.08,7.45h2.55l-6.09,19.47h-2.75l-4.7-15.83L732.4,26.92h-2.73L723.52,7.45h2.56l5,16.34,4.79-16.34h2.49l4.83,16.34Z"/><path class="cls-1" d="M757.44,18.21c.33,4,3.08,6.59,6.87,6.59a6.25,6.25,0,0,0,5.18-2.37L771.08,24a8.74,8.74,0,0,1-6.9,3.24c-5.38,0-9.2-4.21-9.2-10.08s3.6-10,8.94-10c4.8,0,8.13,3.85,8.13,9.46a10.91,10.91,0,0,1-.13,1.62Zm0-2.34h12.22c-.36-4.06-2.59-6.29-5.77-6.29C760.36,9.58,757.9,12.09,757.47,15.87Z"/><path class="cls-1" d="M788.84,7.42l-.1,2.77a5.22,5.22,0,0,0-1.62-.26c-3.47,0-5.48,3.68-5.48,8.1v8.89h-2.39V7.45h2.39v3.67a6.15,6.15,0,0,1,5.54-3.88A7.54,7.54,0,0,1,788.84,7.42Z"/><path class="cls-1" d="M807.31,17.21c0-5.91,4-10.08,9.2-10.08a8.63,8.63,0,0,1,6.7,3.09l-1.75,1.66a6.14,6.14,0,0,0-5-2.3c-3.82,0-6.73,2.95-6.73,7.59s2.91,7.63,6.8,7.63a6.1,6.1,0,0,0,5-2.34l1.71,1.62a8.52,8.52,0,0,1-6.7,3.21C811.26,27.29,807.31,23.11,807.31,17.21Z"/><path class="cls-1" d="M843.92,14.83V26.92h-2.43V23.25a7.71,7.71,0,0,1-6.74,4,5.65,5.65,0,0,1-6.06-6c0-3.53,2.11-6.19,6.87-6.19a52.1,52.1,0,0,1,5.93.39v-.64c0-3.46-1.85-5.29-5.28-5.29a8.13,8.13,0,0,0-5.38,2.15l-1.23-2a10,10,0,0,1,6.83-2.62C841.39,7.13,843.92,9.93,843.92,14.83Zm-2.43,3.56v-.57a30.15,30.15,0,0,0-5.38-.43c-3.6,0-5.09,1.4-5.09,3.78s1.62,3.63,4.47,3.63C839,24.8,841.49,21.49,841.49,18.39Z"/><path class="cls-1" d="M850.75,24.69l1-2.23a10.59,10.59,0,0,0,6.42,2.3c2.85,0,4.59-1,4.59-3.16,0-1.84-1.26-2.63-4.95-3.39-5-1-6.51-2.66-6.51-5.58,0-3.42,2.43-5.47,6.48-5.47a12,12,0,0,1,6.77,2.05l-1,2.27a10,10,0,0,0-5.93-1.83c-2.43,0-3.85,1-3.85,2.77s1.07,2.45,4.73,3.24c5.12,1.19,6.7,2.84,6.7,5.87,0,3.63-2.78,5.72-7.15,5.72A12.26,12.26,0,0,1,850.75,24.69Z"/><path class="cls-1" d="M874,18.21c.32,4,3.07,6.59,6.86,6.59a6.28,6.28,0,0,0,5.19-2.37L887.65,24a8.74,8.74,0,0,1-6.9,3.24c-5.37,0-9.2-4.21-9.2-10.08s3.6-10,9-10c4.79,0,8.13,3.85,8.13,9.46a12.47,12.47,0,0,1-.13,1.62Zm0-2.34h12.21c-.36-4.06-2.59-6.29-5.76-6.29C876.93,9.58,874.47,12.09,874.05,15.87Z"/><path class="cls-1" d="M908.88,26.92V.36h2.4V26.92Z"/><path class="cls-1" d="M921.61,18.21c.33,4,3.08,6.59,6.87,6.59a6.25,6.25,0,0,0,5.18-2.37L935.25,24a8.75,8.75,0,0,1-6.9,3.24c-5.38,0-9.2-4.21-9.2-10.08s3.6-10,8.94-10c4.79,0,8.13,3.85,8.13,9.46a10.91,10.91,0,0,1-.13,1.62Zm0-2.34h12.22c-.36-4.06-2.6-6.29-5.77-6.29C924.53,9.58,922.06,12.09,921.64,15.87Z"/><path class="cls-1" d="M954.14,26.1a8.54,8.54,0,0,1-4.28,1.19c-3.14,0-5.18-2.13-5.18-5.76V9.93h-3.5V7.45h3.53l.2-5.25h2.2V7.45h6.32V9.93h-6.32V21.06c0,2.34,1.3,3.78,3.17,3.78a7.44,7.44,0,0,0,3.37-.87Z"/><path class="cls-1" d="M972.32,26.1A8.56,8.56,0,0,1,968,27.29c-3.14,0-5.18-2.13-5.18-5.76V9.93h-3.5V7.45h3.53l.19-5.25h2.21V7.45h6.31V9.93h-6.31V21.06c0,2.34,1.29,3.78,3.17,3.78a7.51,7.51,0,0,0,3.37-.87Z"/><path class="cls-1" d="M980.12,18.21c.33,4,3.08,6.59,6.87,6.59a6.28,6.28,0,0,0,5.19-2.37L993.76,24a8.74,8.74,0,0,1-6.9,3.24c-5.37,0-9.2-4.21-9.2-10.08s3.6-10,8.94-10c4.8,0,8.14,3.85,8.14,9.46a12.47,12.47,0,0,1-.13,1.62Zm0-2.34h12.21c-.36-4.06-2.59-6.29-5.77-6.29C983,9.58,980.58,12.09,980.16,15.87Z"/><path class="cls-1" d="M1011.52,7.42l-.1,2.77a5.22,5.22,0,0,0-1.62-.26c-3.46,0-5.47,3.68-5.47,8.1v8.89h-2.4V7.45h2.4v3.67a6.14,6.14,0,0,1,5.54-3.88A7.44,7.44,0,0,1,1011.52,7.42Z"/><path class="cls-1" d="M1016.54,24.69l1-2.23a10.58,10.58,0,0,0,6.41,2.3c2.85,0,4.6-1,4.6-3.16,0-1.84-1.26-2.63-4.95-3.39-5-1-6.51-2.66-6.51-5.58,0-3.42,2.43-5.47,6.48-5.47a12,12,0,0,1,6.77,2.05l-1,2.27a10,10,0,0,0-5.93-1.83c-2.43,0-3.85,1-3.85,2.77s1.07,2.45,4.73,3.24c5.12,1.19,6.7,2.84,6.7,5.87,0,3.63-2.78,5.72-7.16,5.72A12.25,12.25,0,0,1,1016.54,24.69Z"/><path class="cls-1" d="M1037.47,30.13a3.56,3.56,0,0,0,1.65-3.21h-1.49V23.69h3.08c.75,4.13-.32,6.33-2.56,7.55Z"/><path class="cls-1" d="M1075,7.45h2.4V26.92H1075V23.43a7.69,7.69,0,0,1-6.7,3.82c-4.22,0-7-3.17-7-8.32V7.45h2.43V18.57c0,3.89,1.84,6.19,5.12,6.19s6.15-3,6.15-7.23Z"/><path class="cls-1" d="M1104.12,17.24c0,6-3.73,10.05-8.52,10.05a8,8,0,0,1-7.1-4v9.83h-2.39V7.45h2.39v3.67a8,8,0,0,1,7.1-4C1100.39,7.13,1104.12,11.34,1104.12,17.24Zm-2.4,0c0-4.5-2.72-7.63-6.48-7.63s-6.74,3-6.74,7.6,2.85,7.55,6.74,7.55S1101.72,21.67,1101.72,17.24Z"/><path class="cls-1" d="M1129.81,17.24c0,6-3.73,10.05-8.52,10.05a8,8,0,0,1-7.09-4v9.83h-2.4V7.45h2.4v3.67a8,8,0,0,1,7.09-4C1126.08,7.13,1129.81,11.34,1129.81,17.24Zm-2.4,0c0-4.5-2.72-7.63-6.48-7.63s-6.73,3-6.73,7.6,2.85,7.55,6.73,7.55S1127.41,21.67,1127.41,17.24Z"/><path class="cls-1" d="M1139,18.21c.32,4,3.08,6.59,6.87,6.59a6.26,6.26,0,0,0,5.18-2.37l1.59,1.58a8.75,8.75,0,0,1-6.9,3.24c-5.38,0-9.2-4.21-9.2-10.08s3.59-10,8.94-10c4.79,0,8.13,3.85,8.13,9.46a10.91,10.91,0,0,1-.13,1.62Zm0-2.34h12.21c-.35-4.06-2.59-6.29-5.76-6.29C1141.86,9.58,1139.4,12.09,1139,15.87Z"/><path class="cls-1" d="M1170.34,7.42l-.09,2.77a5.26,5.26,0,0,0-1.62-.26c-3.47,0-5.48,3.68-5.48,8.1v8.89h-2.4V7.45h2.4v3.67a6.15,6.15,0,0,1,5.54-3.88A7.44,7.44,0,0,1,1170.34,7.42Z"/><path class="cls-1" d="M.16,60.41c0-5.91,4-10.08,9.2-10.08a8.64,8.64,0,0,1,6.71,3.09l-1.75,1.66a6.16,6.16,0,0,0-5-2.3c-3.82,0-6.74,2.95-6.74,7.59S5.51,68,9.39,68a6.09,6.09,0,0,0,5-2.34l1.72,1.62a8.54,8.54,0,0,1-6.71,3.21C4.11,70.49.16,66.31.16,60.41Z"/><path class="cls-1" d="M36.77,58V70.12H34.34V66.45a7.68,7.68,0,0,1-6.74,4,5.65,5.65,0,0,1-6.05-6c0-3.53,2.1-6.19,6.86-6.19a51.79,51.79,0,0,1,5.93.39v-.64c0-3.46-1.84-5.29-5.28-5.29a8.17,8.17,0,0,0-5.38,2.15l-1.23-2a10,10,0,0,1,6.84-2.63C34.25,50.33,36.77,53.13,36.77,58Zm-2.43,3.56V61A30,30,0,0,0,29,60.59c-3.59,0-5.08,1.4-5.08,3.78S25.5,68,28.35,68C31.85,68,34.34,64.69,34.34,61.59Z"/><path class="cls-1" d="M43.61,67.89l1-2.23A10.58,10.58,0,0,0,51.06,68c2.85,0,4.6-1,4.6-3.16,0-1.84-1.26-2.63-4.95-3.39-5-1-6.52-2.66-6.52-5.58,0-3.41,2.43-5.47,6.48-5.47a11.91,11.91,0,0,1,6.77,2.06l-1,2.26a10.12,10.12,0,0,0-5.93-1.83c-2.43,0-3.85,1-3.85,2.77s1.06,2.45,4.72,3.24c5.12,1.19,6.71,2.84,6.71,5.87,0,3.63-2.79,5.72-7.16,5.72A12.23,12.23,0,0,1,43.61,67.89Z"/><path class="cls-1" d="M66.87,61.41C67.2,65.37,70,68,73.74,68a6.22,6.22,0,0,0,5.18-2.37l1.59,1.58a8.74,8.74,0,0,1-6.9,3.24c-5.38,0-9.2-4.21-9.2-10.08s3.6-10,8.94-10c4.8,0,8.13,3.85,8.13,9.46a10.91,10.91,0,0,1-.13,1.62Zm0-2.34H79.12c-.36-4.06-2.59-6.29-5.77-6.29C69.79,52.78,67.33,55.29,66.91,59.07Z"/><path class="cls-1" d="M101.74,70.12V43.56h2.39V70.12Z"/><path class="cls-1" d="M114.47,61.41c.32,4,3.07,6.59,6.86,6.59a6.24,6.24,0,0,0,5.19-2.37l1.59,1.58a8.77,8.77,0,0,1-6.9,3.24c-5.38,0-9.2-4.21-9.2-10.08s3.59-10,8.94-10c4.79,0,8.13,3.85,8.13,9.46a12.47,12.47,0,0,1-.13,1.62Zm0-2.34h12.21c-.35-4.06-2.59-6.29-5.76-6.29C117.38,52.78,114.92,55.29,114.5,59.07Z"/><path class="cls-1" d="M147,69.3a8.56,8.56,0,0,1-4.28,1.19c-3.14,0-5.18-2.13-5.18-5.76V53.13H134V50.65h3.53l.19-5.25H140v5.25h6.31v2.48H140V64.26c0,2.34,1.29,3.78,3.17,3.78a7.47,7.47,0,0,0,3.37-.87Z"/><path class="cls-1" d="M165.17,69.3a8.53,8.53,0,0,1-4.27,1.19c-3.15,0-5.19-2.13-5.19-5.76V53.13h-3.5V50.65h3.54l.19-5.25h2.2v5.25h6.32v2.48h-6.32V64.26c0,2.34,1.3,3.78,3.18,3.78a7.51,7.51,0,0,0,3.37-.87Z"/><path class="cls-1" d="M173,61.41c.33,4,3.08,6.59,6.87,6.59A6.22,6.22,0,0,0,185,65.63l1.59,1.58a8.74,8.74,0,0,1-6.9,3.24c-5.38,0-9.2-4.21-9.2-10.08s3.6-10,8.94-10c4.8,0,8.13,3.85,8.13,9.46a10.91,10.91,0,0,1-.13,1.62Zm0-2.34h12.22c-.36-4.06-2.59-6.29-5.77-6.29C175.9,52.78,173.44,55.29,173,59.07Z"/><path class="cls-1" d="M204.38,50.62l-.1,2.77a5.22,5.22,0,0,0-1.62-.26c-3.47,0-5.48,3.68-5.48,8.1v8.89h-2.39V50.65h2.39v3.67a6.15,6.15,0,0,1,5.54-3.88A7.54,7.54,0,0,1,204.38,50.62Z"/><path class="cls-1" d="M209.4,67.89l1-2.23a10.58,10.58,0,0,0,6.41,2.3c2.85,0,4.6-1,4.6-3.16,0-1.84-1.26-2.63-4.95-3.39-5-1-6.52-2.66-6.52-5.58,0-3.41,2.43-5.47,6.48-5.47a11.91,11.91,0,0,1,6.77,2.06l-1,2.26a10.12,10.12,0,0,0-5.93-1.83c-2.43,0-3.85,1-3.85,2.77s1.06,2.45,4.72,3.24c5.12,1.19,6.71,2.84,6.71,5.87,0,3.63-2.79,5.72-7.16,5.72A12.23,12.23,0,0,1,209.4,67.89Z"/><path class="cls-1" d="M230.33,73.33A3.56,3.56,0,0,0,232,70.12h-1.49V66.89h3.08c.74,4.13-.32,6.33-2.56,7.55Z"/><path class="cls-1" d="M270.6,58.64V70.12h-2.43V59c0-3.88-1.85-6.19-5.12-6.19s-6.15,3-6.15,7.24V70.12h-2.4V50.65h2.4v3.49a7.67,7.67,0,0,1,6.7-3.81C267.81,50.33,270.6,53.5,270.6,58.64Z"/><path class="cls-1" d="M292.34,50.65h2.4V70.12h-2.4V66.63a7.71,7.71,0,0,1-6.7,3.82c-4.22,0-7-3.17-7-8.32V50.65h2.43V61.77c0,3.89,1.84,6.19,5.12,6.19s6.15-3,6.15-7.23Z"/><path class="cls-1" d="M331.48,58.43V70.12H329V58.79c0-3.78-1.61-6-4.59-6s-5.77,3.06-5.77,7.16V70.12h-2.43V58.79c0-3.78-1.62-6-4.6-6-3.14,0-5.8,3.06-5.8,7.16V70.12h-2.4V50.65h2.4v3.46a7.53,7.53,0,0,1,6.41-3.78,6,6,0,0,1,6,4.6,7.63,7.63,0,0,1,6.86-4.6C329,50.33,331.48,53.35,331.48,58.43Z"/><path class="cls-1" d="M358,60.37c0,5.87-3.72,10.12-8.51,10.12a8,8,0,0,1-7.1-4v3.63H340V43.56h2.4V54.32a8,8,0,0,1,7.1-4C354.29,50.33,358,54.36,358,60.37Zm-2.39,0c0-4.43-2.72-7.56-6.48-7.56s-6.74,3-6.74,7.56S345.25,68,349.14,68,355.62,64.87,355.62,60.37Z"/><path class="cls-1" d="M367.15,61.41c.33,4,3.08,6.59,6.87,6.59a6.26,6.26,0,0,0,5.19-2.37l1.58,1.58a8.74,8.74,0,0,1-6.9,3.24c-5.38,0-9.2-4.21-9.2-10.08s3.6-10,8.94-10c4.8,0,8.13,3.85,8.13,9.46a10.91,10.91,0,0,1-.13,1.62Zm0-2.34H379.4c-.36-4.06-2.59-6.29-5.77-6.29C370.07,52.78,367.61,55.29,367.19,59.07Z"/><path class="cls-1" d="M398.55,50.62l-.1,2.77a5.22,5.22,0,0,0-1.62-.26c-3.46,0-5.47,3.68-5.47,8.1v8.89H389V50.65h2.4v3.67a6.13,6.13,0,0,1,5.54-3.88A7.51,7.51,0,0,1,398.55,50.62Z"/><path class="cls-1" d="M403.86,73.33a3.59,3.59,0,0,0,1.66-3.21H404V66.89h3.07c.75,4.13-.32,6.33-2.56,7.55Z"/><path class="cls-1" d="M441.7,58V70.12h-2.43V66.45a7.68,7.68,0,0,1-6.73,4,5.65,5.65,0,0,1-6.06-6c0-3.53,2.1-6.19,6.87-6.19a51.76,51.76,0,0,1,5.92.39v-.64c0-3.46-1.84-5.29-5.28-5.29a8.12,8.12,0,0,0-5.37,2.15l-1.23-2a10,10,0,0,1,6.83-2.63C439.18,50.33,441.7,53.13,441.7,58Zm-2.43,3.56V61a30,30,0,0,0-5.37-.43c-3.6,0-5.09,1.4-5.09,3.78S430.43,68,433.28,68C436.78,68,439.27,64.69,439.27,61.59Z"/><path class="cls-1" d="M466.17,58.64V70.12h-2.43V59c0-3.88-1.85-6.19-5.12-6.19s-6.16,3-6.16,7.24V70.12h-2.39V50.65h2.39v3.49a7.7,7.7,0,0,1,6.71-3.81C463.38,50.33,466.17,53.5,466.17,58.64Z"/><path class="cls-1" d="M489.14,43.56h2.43V70.12h-2.43V66.53a8.08,8.08,0,0,1-7.06,4c-4.8,0-8.52-4.25-8.52-10.12s3.72-10,8.52-10a7.93,7.93,0,0,1,7.06,4Zm0,16.81c0-4.54-2.82-7.56-6.71-7.56S476,55.94,476,60.37,478.64,68,482.43,68,489.14,64.94,489.14,60.37Z"/><path class="cls-1" d="M511.79,67.89l1-2.23a10.63,10.63,0,0,0,6.42,2.3c2.85,0,4.6-1,4.6-3.16,0-1.84-1.27-2.63-5-3.39-5-1-6.51-2.66-6.51-5.58,0-3.41,2.43-5.47,6.48-5.47a11.91,11.91,0,0,1,6.77,2.06l-1,2.26a10.12,10.12,0,0,0-5.93-1.83c-2.43,0-3.86,1-3.86,2.77s1.07,2.45,4.73,3.24c5.12,1.19,6.71,2.84,6.71,5.87,0,3.63-2.79,5.72-7.16,5.72A12.21,12.21,0,0,1,511.79,67.89Z"/><path class="cls-1" d="M551.6,60.44c0,6-3.72,10-8.52,10a8,8,0,0,1-7.09-4v9.83h-2.4V50.65H536v3.67a8,8,0,0,1,7.09-4C547.88,50.33,551.6,54.54,551.6,60.44Zm-2.39,0c0-4.5-2.73-7.63-6.48-7.63s-6.74,3-6.74,7.6S538.84,68,542.73,68,549.21,64.87,549.21,60.44Z"/><path class="cls-1" d="M560.74,61.41c.33,4,3.08,6.59,6.87,6.59a6.22,6.22,0,0,0,5.18-2.37l1.59,1.58a8.74,8.74,0,0,1-6.9,3.24c-5.38,0-9.2-4.21-9.2-10.08s3.6-10,8.94-10c4.8,0,8.13,3.85,8.13,9.46a10.91,10.91,0,0,1-.13,1.62Zm0-2.34H573c-.36-4.06-2.59-6.29-5.77-6.29C563.66,52.78,561.2,55.29,560.77,59.07Z"/><path class="cls-1" d="M581.54,60.41c0-5.91,4-10.08,9.2-10.08a8.64,8.64,0,0,1,6.71,3.09l-1.75,1.66a6.16,6.16,0,0,0-5-2.3c-3.82,0-6.74,2.95-6.74,7.59S586.89,68,590.78,68a6.08,6.08,0,0,0,5-2.34l1.72,1.62a8.54,8.54,0,0,1-6.71,3.21C585.5,70.49,581.54,66.31,581.54,60.41Z"/><path class="cls-1" d="M604.42,47.92V44H607v4Zm.06,22.2V50.65h2.4V70.12Z"/><path class="cls-1" d="M629.23,58V70.12H626.8V66.45a7.68,7.68,0,0,1-6.73,4,5.65,5.65,0,0,1-6.06-6c0-3.53,2.1-6.19,6.87-6.19a51.76,51.76,0,0,1,5.92.39v-.64c0-3.46-1.84-5.29-5.28-5.29a8.12,8.12,0,0,0-5.37,2.15l-1.23-2a9.94,9.94,0,0,1,6.83-2.63C626.71,50.33,629.23,53.13,629.23,58Zm-2.43,3.56V61a30,30,0,0,0-5.37-.43c-3.6,0-5.09,1.4-5.09,3.78S618,68,620.81,68C624.31,68,626.8,64.69,626.8,61.59Z"/><path class="cls-1" d="M637.79,70.12V43.56h2.4V70.12Z"/><path class="cls-1" d="M660.92,60.41c0-5.91,4-10.08,9.2-10.08a8.64,8.64,0,0,1,6.71,3.09l-1.75,1.66a6.16,6.16,0,0,0-5-2.3c-3.82,0-6.74,2.95-6.74,7.59s2.92,7.63,6.8,7.63a6.09,6.09,0,0,0,5-2.34l1.72,1.62a8.54,8.54,0,0,1-6.71,3.21C664.87,70.49,660.92,66.31,660.92,60.41Z"/><path class="cls-1" d="M700.16,58.64V70.12h-2.43V59c0-3.88-1.85-6.19-5.12-6.19s-6.16,3-6.16,7.24V70.12h-2.39V43.56h2.39V54.14a7.7,7.7,0,0,1,6.71-3.81C697.37,50.33,700.16,53.5,700.16,58.64Z"/><path class="cls-1" d="M722.19,58V70.12h-2.43V66.45a7.7,7.7,0,0,1-6.74,4,5.65,5.65,0,0,1-6.06-6c0-3.53,2.11-6.19,6.87-6.19a52.1,52.1,0,0,1,5.93.39v-.64c0-3.46-1.85-5.29-5.28-5.29a8.13,8.13,0,0,0-5.38,2.15l-1.23-2a10,10,0,0,1,6.84-2.63C719.66,50.33,722.19,53.13,722.19,58Zm-2.43,3.56V61a30.07,30.07,0,0,0-5.38-.43c-3.59,0-5.09,1.4-5.09,3.78S710.91,68,713.77,68C717.26,68,719.76,64.69,719.76,61.59Z"/><path class="cls-1" d="M740.14,50.62l-.1,2.77a5.22,5.22,0,0,0-1.62-.26c-3.47,0-5.47,3.68-5.47,8.1v8.89h-2.4V50.65H733v3.67a6.13,6.13,0,0,1,5.54-3.88A7.51,7.51,0,0,1,740.14,50.62Z"/><path class="cls-1" d="M759.74,58V70.12h-2.43V66.45a7.7,7.7,0,0,1-6.74,4,5.65,5.65,0,0,1-6.06-6c0-3.53,2.11-6.19,6.87-6.19a51.94,51.94,0,0,1,5.93.39v-.64c0-3.46-1.85-5.29-5.28-5.29a8.13,8.13,0,0,0-5.38,2.15l-1.23-2a10,10,0,0,1,6.84-2.63C757.21,50.33,759.74,53.13,759.74,58Zm-2.43,3.56V61a30.07,30.07,0,0,0-5.38-.43c-3.59,0-5.08,1.4-5.08,3.78S748.47,68,751.32,68C754.82,68,757.31,64.69,757.31,61.59Z"/><path class="cls-1" d="M767.1,60.41c0-5.91,3.95-10.08,9.2-10.08a8.63,8.63,0,0,1,6.7,3.09l-1.75,1.66a6.14,6.14,0,0,0-5-2.3c-3.82,0-6.73,2.95-6.73,7.59s2.91,7.63,6.8,7.63a6.07,6.07,0,0,0,4.95-2.34L783,67.28a8.54,8.54,0,0,1-6.7,3.21C771.05,70.49,767.1,66.31,767.1,60.41Z"/><path class="cls-1" d="M801.57,69.3a8.56,8.56,0,0,1-4.28,1.19c-3.14,0-5.18-2.13-5.18-5.76V53.13h-3.5V50.65h3.53l.19-5.25h2.21v5.25h6.31v2.48h-6.31V64.26c0,2.34,1.29,3.78,3.17,3.78a7.47,7.47,0,0,0,3.37-.87Z"/><path class="cls-1" d="M809.38,61.41c.32,4,3.07,6.59,6.86,6.59a6.24,6.24,0,0,0,5.19-2.37L823,67.21a8.73,8.73,0,0,1-6.89,3.24c-5.38,0-9.2-4.21-9.2-10.08s3.59-10,8.94-10c4.79,0,8.13,3.85,8.13,9.46a12.47,12.47,0,0,1-.13,1.62Zm0-2.34h12.21c-.35-4.06-2.59-6.29-5.76-6.29C812.29,52.78,809.83,55.29,809.41,59.07Z"/><path class="cls-1" d="M840.77,50.62l-.1,2.77a5.22,5.22,0,0,0-1.62-.26c-3.46,0-5.47,3.68-5.47,8.1v8.89h-2.4V50.65h2.4v3.67a6.15,6.15,0,0,1,5.54-3.88A7.44,7.44,0,0,1,840.77,50.62Z"/><path class="cls-1" d="M845.79,67.89l1-2.23a10.61,10.61,0,0,0,6.42,2.3c2.85,0,4.6-1,4.6-3.16,0-1.84-1.27-2.63-5-3.39-5-1-6.51-2.66-6.51-5.58,0-3.41,2.43-5.47,6.48-5.47a11.93,11.93,0,0,1,6.77,2.06l-1,2.26a10.1,10.1,0,0,0-5.93-1.83c-2.43,0-3.85,1-3.85,2.77s1.07,2.45,4.73,3.24c5.12,1.19,6.7,2.84,6.7,5.87,0,3.63-2.78,5.72-7.15,5.72A12.26,12.26,0,0,1,845.79,67.89Z"/><path class="cls-1" d="M866.85,66.89h3.21v3.23h-3.21Z"/></g></g></svg>