<svg xmlns="http://www.w3.org/2000/svg" viewBox="0 0 352 352"><defs><style>.cls-1{fill:#fff;}.cls-2{fill:#f2f2f2;}.cls-3{fill:#558ffc;}.cls-4{fill:#4984f4;}.cls-5{fill:#4883f3;}.cls-6{fill:#4782f2;}.cls-7{fill:#4781f1;}.cls-8{fill:#4680f0;}.cls-9{fill:#457fef;}.cls-10{fill:#447eee;}.cls-11{fill:#437ded;}.cls-12{fill:#427cec;}.cls-13{fill:#427beb;}.cls-14{fill:#417bea;}.cls-15{fill:#407ae9;}.cls-16{fill:#3f79e8;}.cls-17{fill:#3e78e7;}.cls-18{fill:#3e77e6;}.cls-19{fill:#3d76e5;}.cls-20{fill:#3c75e4;}.cls-21{fill:#3b74e3;}.cls-22{fill:#3a73e2;}.cls-23{fill:#3a72e2;}.cls-24{fill:#3971e1;}.cls-25{fill:#3870e0;}.cls-26{fill:#376fdf;}.cls-27{fill:#366ede;}.cls-28{fill:#356ddd;}.cls-29{fill:#356cdc;}.cls-30{fill:#346bdb;}.cls-31{fill:#336ada;}.cls-32{fill:#3269d9;}.cls-33{fill:#3169d8;}.cls-34{fill:#3168d7;}.cls-35{fill:#3067d6;}.cls-36{fill:#2f66d5;}.cls-37{fill:#2e65d4;}.cls-38{fill:#2d64d3;}.cls-39{fill:#2c63d2;}.cls-40{fill:#2c62d1;}.cls-41{fill:#2b61d0;}.cls-42{fill:#2a60cf;}</style></defs><title>Asset 28</title><g id="Layer_2" data-name="Layer 2"><g id="Layer_1-2" data-name="Layer 1"><rect class="cls-1" width="352" height="352" rx="10"/><path class="cls-2" d="M171.63,61.93,38.22,216.4a6.54,6.54,0,0,0,.74,9.28l132,111.12a6.54,6.54,0,0,0,9.16-.73L313.48,181.59a6.53,6.53,0,0,0-.74-9.27L180.79,61.2A6.54,6.54,0,0,0,171.63,61.93Z"/><path class="cls-3" d="M314.34,128.29,179.53,14.77a4.66,4.66,0,0,0-6.54.52l-37.12,43L37.14,172.59a4.67,4.67,0,0,0,.52,6.62L172.47,292.73a4.66,4.66,0,0,0,6.54-.52l135.85-157.3A4.67,4.67,0,0,0,314.34,128.29Z"/><ellipse class="cls-4" cx="228.2" cy="134.98" rx="33.46" ry="28.35" transform="translate(-15.3 239.87) rotate(-53.91)"/><ellipse class="cls-5" cx="222.58" cy="133.79" rx="33.46" ry="28.35" transform="translate(-16.65 234.85) rotate(-53.91)"/><ellipse class="cls-6" cx="216.33" cy="131.85" rx="33.46" ry="28.35" transform="translate(-17.65 229) rotate(-53.91)"/><ellipse class="cls-7" cx="209.63" cy="129.37" rx="33.46" ry="28.35" transform="translate(-18.4 222.56) rotate(-53.91)"/><ellipse class="cls-8" cx="202.66" cy="126.56" rx="33.46" ry="28.35" transform="translate(-19 215.77) rotate(-53.91)"/><ellipse class="cls-9" cx="195.6" cy="123.66" rx="33.46" ry="28.35" transform="translate(-19.55 208.88) rotate(-53.91)"/><ellipse class="cls-10" cx="188.64" cy="120.87" rx="33.46" ry="28.35" transform="translate(-20.16 202.11) rotate(-53.91)"/><ellipse class="cls-11" cx="181.96" cy="118.42" rx="33.46" ry="28.35" transform="translate(-20.92 195.7) rotate(-53.91)"/><ellipse class="cls-12" cx="175.75" cy="116.53" rx="33.46" ry="28.35" transform="translate(-21.94 189.91) rotate(-53.91)"/><ellipse class="cls-13" cx="170.19" cy="115.41" rx="33.46" ry="28.35" transform="translate(-23.32 184.95) rotate(-53.91)"/><ellipse class="cls-14" cx="165.47" cy="115.28" rx="33.46" ry="28.35" transform="translate(-25.16 181.09) rotate(-53.91)"/><ellipse class="cls-15" cx="161.76" cy="116.37" rx="33.46" ry="28.35" transform="translate(-27.56 178.54) rotate(-53.91)"/><ellipse class="cls-16" cx="159.28" cy="118.87" rx="33.46" ry="28.35" transform="translate(-30.6 177.56) rotate(-53.91)"/><ellipse class="cls-17" cx="158.46" cy="122.33" rx="33.46" ry="28.35" transform="translate(-33.74 178.32) rotate(-53.91)"/><ellipse class="cls-18" cx="159.23" cy="126.45" rx="33.46" ry="28.35" transform="translate(-36.75 180.64) rotate(-53.91)"/><ellipse class="cls-19" cx="161.33" cy="131.12" rx="33.46" ry="28.35" transform="translate(-39.66 184.25) rotate(-53.91)"/><ellipse class="cls-20" cx="164.5" cy="136.23" rx="33.46" ry="28.35" transform="translate(-42.49 188.91) rotate(-53.91)"/><ellipse class="cls-21" cx="168.48" cy="141.68" rx="33.46" ry="28.35" transform="translate(-45.25 194.37) rotate(-53.91)"/><ellipse class="cls-22" cx="173.01" cy="147.35" rx="33.46" ry="28.35" transform="translate(-47.97 200.36) rotate(-53.91)"/><ellipse class="cls-23" cx="177.84" cy="153.14" rx="33.46" ry="28.35" transform="matrix(0.59, -0.81, 0.81, 0.59, -50.67, 206.64)"/><ellipse class="cls-24" cx="182.7" cy="158.95" rx="33.46" ry="28.35" transform="translate(-53.37 212.95) rotate(-53.91)"/><ellipse class="cls-25" cx="187.32" cy="164.66" rx="33.46" ry="28.35" transform="translate(-56.08 219.04) rotate(-53.91)"/><ellipse class="cls-26" cx="191.46" cy="170.17" rx="33.46" ry="28.35" transform="translate(-58.83 224.65) rotate(-53.91)"/><ellipse class="cls-27" cx="195.05" cy="175.7" rx="33.46" ry="28.35" transform="translate(-61.83 229.82) rotate(-53.91)"/><ellipse class="cls-28" cx="197.93" cy="182.2" rx="33.46" ry="28.35" transform="translate(-65.9 234.81) rotate(-53.91)"/><ellipse class="cls-29" cx="198.1" cy="187.58" rx="33.46" ry="28.35" transform="translate(-70.17 237.17) rotate(-53.91)"/><ellipse class="cls-30" cx="195.7" cy="190.94" rx="33.46" ry="28.35" transform="translate(-73.87 236.61) rotate(-53.91)"/><ellipse class="cls-31" cx="192.15" cy="192.31" rx="33.46" ry="28.35" transform="translate(-76.44 234.31) rotate(-53.91)"/><ellipse class="cls-32" cx="187.51" cy="192.39" rx="33.46" ry="28.35" transform="translate(-78.41 230.58) rotate(-53.91)"/><ellipse class="cls-33" cx="181.97" cy="191.39" rx="33.46" ry="28.35" transform="translate(-79.88 225.7) rotate(-53.91)"/><ellipse class="cls-34" cx="175.73" cy="189.56" rx="33.46" ry="28.35" transform="translate(-80.96 219.9) rotate(-53.91)"/><ellipse class="cls-35" cx="168.98" cy="187.12" rx="33.46" ry="28.35" transform="translate(-81.77 213.44) rotate(-53.91)"/><ellipse class="cls-36" cx="161.91" cy="184.3" rx="33.46" ry="28.35" transform="translate(-82.4 206.58) rotate(-53.91)"/><ellipse class="cls-37" cx="154.73" cy="181.35" rx="33.46" ry="28.35" transform="translate(-82.96 199.56) rotate(-53.91)"/><ellipse class="cls-38" cx="147.62" cy="178.48" rx="33.46" ry="28.35" transform="translate(-83.57 192.63) rotate(-53.91)"/><ellipse class="cls-39" cx="140.78" cy="175.93" rx="33.46" ry="28.35" transform="translate(-84.32 186.06) rotate(-53.91)"/><ellipse class="cls-40" cx="134.4" cy="173.94" rx="33.46" ry="28.35" transform="translate(-85.33 180.08) rotate(-53.91)"/><ellipse class="cls-41" cx="128.67" cy="172.72" rx="33.46" ry="28.35" transform="translate(-86.7 174.96) rotate(-53.91)"/><ellipse class="cls-42" cx="123.8" cy="172.52" rx="33.46" ry="28.35" transform="translate(-88.54 170.94) rotate(-53.91)"/></g></g></svg>