<svg xmlns="http://www.w3.org/2000/svg" viewBox="0 0 263.63 44.94"><defs><style>.cls-1{fill:#fff;}</style></defs><title>Asset 20</title><g id="Layer_2" data-name="Layer 2"><g id="Layer_1-2" data-name="Layer 1"><path class="cls-1" d="M31.27,16.92C31.27,26.16,25,31.68,15,31.68H7v12.6H0v-42H15.07C25.11,2.28,31.27,7.8,31.27,16.92ZM14.85,24.84c5.89,0,9.45-2.46,9.45-7.92s-3.56-7.8-9.4-7.8H7V24.84Z"/><path class="cls-1" d="M60.8,24.54V44.28H54.11v-3.9a13.23,13.23,0,0,1-10.48,4.56c-6.26,0-10.31-4.44-10.31-10.5,0-5.76,3.24-11,11.88-11a81.22,81.22,0,0,1,8.85.54c-.21-4.14-2.86-6.54-7.77-6.54A12.44,12.44,0,0,0,38.07,21l-3.3-5.46A18.25,18.25,0,0,1,47,10.74C56.43,10.74,60.8,16,60.8,24.54Zm-6.75,6V30a43.41,43.41,0,0,0-7.23-.54c-5.46,0-7.08,1.92-7.08,4.56,0,2.94,2.27,4.26,6.11,4.26A8.23,8.23,0,0,0,54.05,30.54Z"/><path class="cls-1" d="M66,40.92l2.75-6.12a19.16,19.16,0,0,0,10.48,3.3c3.67,0,5.94-.78,5.94-3.24,0-2.22-1.62-3.06-6.91-4.08C69.6,29.16,67,26.16,67,20.82c0-6.42,4.16-10,11.34-10,3.94,0,9.61,1.38,12.53,3.42l-2.7,6.24a19.62,19.62,0,0,0-10.26-2.88c-2.7,0-4.11.84-4.11,2.64s1.35,2.58,6.37,3.72c9.18,2.16,11.72,5.4,11.72,10.62,0,6.6-5.13,10.32-12.9,10.32A24.89,24.89,0,0,1,66,40.92Z"/><path class="cls-1" d="M95.2,40.92,98,34.8a19.18,19.18,0,0,0,10.48,3.3c3.67,0,5.94-.78,5.94-3.24,0-2.22-1.62-3.06-6.91-4.08-8.64-1.62-11.29-4.62-11.29-10,0-6.42,4.16-10,11.34-10,3.95,0,9.61,1.38,12.53,3.42l-2.7,6.24a19.62,19.62,0,0,0-10.26-2.88c-2.7,0-4.1.84-4.1,2.64s1.35,2.58,6.37,3.72c9.18,2.16,11.72,5.4,11.72,10.62,0,6.6-5.13,10.32-12.91,10.32A24.92,24.92,0,0,1,95.2,40.92Z"/><path class="cls-1" d="M163.46,11.46h7.07l-10.1,32.82h-7.5l-6.1-22.68-6.11,22.68h-7.45L123.12,11.46h7.07l6.86,24.24,6.32-24.24h6.8l6.38,24.24Z"/><path class="cls-1" d="M172.1,27.84c0-9.9,6.8-17.1,16.09-17.1s16.15,7.2,16.15,17-6.75,17.16-16.15,17.16S172.1,37.74,172.1,27.84Zm25.43,0c0-6.3-3.89-10.32-9.34-10.32s-9.34,4-9.34,10.26,3.94,10.44,9.39,10.44S197.53,34.08,197.53,27.84Z"/><path class="cls-1" d="M228.91,11.28l-.22,7.62a10.06,10.06,0,0,0-2.92-.42c-5.13,0-8.15,4.86-8.15,12.24V44.28h-6.7V11.46h6.7v4.2A10,10,0,0,1,226,11,18.14,18.14,0,0,1,228.91,11.28Z"/><path class="cls-1" d="M256.93,0h6.7V44.28h-6.7v-3.9a13.52,13.52,0,0,1-10.47,4.56c-7.94,0-14.48-7.14-14.48-17.16,0-10.32,6.48-17,14.53-17a13.47,13.47,0,0,1,10.42,4.5Zm0,27.84c0-6.42-3.89-10.2-9.29-10.2-5.24,0-9,4.08-9,10.14,0,6.24,3.67,10.38,9,10.38S256.93,34.26,256.93,27.84Z"/></g></g></svg>