<svg xmlns="http://www.w3.org/2000/svg" viewBox="0 0 1200 120"><defs><style>.cls-1{fill:#fff;}.cls-2{fill:#558ffc;}</style></defs><title>Asset 10</title><g id="Layer_2" data-name="Layer 2"><g id="Layer_1-2" data-name="Layer 1"><path class="cls-1" d="M1024,0H20C9,0,0,6.72,0,15v90c0,8.28,9,15,20,15H1180c11,0,20-6.72,20-15V15c0-8.28-9-15-20-15Z"/><path class="cls-2" d="M495.31,73.25l3.15-6.2c3.46,2.45,7.24,4.1,11.07,4.1,3.06,0,4.81-1.35,4.81-3.25,0-2.45-1.89-3.2-6.21-4.2-7.2-1.7-12-4.6-12-11.2,0-7,5.54-10.6,12.74-10.6a18,18,0,0,1,12.28,4.4L517.45,52a14,14,0,0,0-8.6-3.1c-3,0-4.77,1-4.77,3.35,0,2,1.62,3.15,6.12,4.25,7.92,1.85,12.06,4.3,12.06,10.7,0,6.85-5.53,10.95-13,10.95A21.47,21.47,0,0,1,495.31,73.25Z"/><path class="cls-2" d="M531.49,77.5v-35h7.74v35Z"/><path class="cls-2" d="M549.35,60.05c0-10.55,7.11-18.15,17-18.15A16.48,16.48,0,0,1,579,47.8l-5,5.15a9.8,9.8,0,0,0-7.56-3.6c-5.22,0-9.23,4.1-9.23,10.7s3.87,10.7,9.63,10.7a8.79,8.79,0,0,0,5.76-1.9V59.2h7V72.75A18.71,18.71,0,0,1,566.5,78.1C556.55,78.1,549.35,70.5,549.35,60.05Z"/><path class="cls-2" d="M590.17,77.5v-35h6.57l15.39,20.85V42.5h7.74v35h-6.35L597.91,56.3V77.5Z"/><path class="cls-2" d="M648.8,62.6V42.5h7.79V61.8c0,5.35,2.52,8.25,6.75,8.25s6.88-2.9,6.88-8.25V42.5h7.7V62.6c0,9.55-5.58,15.5-14.58,15.5S648.8,72.15,648.8,62.6Z"/><path class="cls-2" d="M715.72,55.15c0,8-5.4,12.8-14,12.8h-5.45V77.5h-7.74v-35h13.23C710.36,42.5,715.72,47.3,715.72,55.15ZM701.5,60.8c4,0,6.48-1.85,6.48-5.65s-2.43-5.5-6.48-5.5h-5.27V60.8Z"/></g></g></svg>