<svg xmlns="http://www.w3.org/2000/svg" viewBox="0 0 1145.33 76.35"><defs><style>.cls-1{fill:#fff;}</style></defs><title>Asset 17</title><g id="Layer_2" data-name="Layer 2"><g id="Layer_1-2" data-name="Layer 1"><path class="cls-1" d="M21.12,19.94c0,4.07-3.08,6.62-8,6.62H2V1.37H12.67c4.56,0,7.38,2.41,7.38,6.33a5.93,5.93,0,0,1-4,5.94A6.19,6.19,0,0,1,21.12,19.94ZM4.5,3.89v8.67h7.88c3.43,0,5.21-1.62,5.21-4.35s-1.91-4.32-5.47-4.32ZM12.67,24c4,0,6-1.62,6-4.46s-2.14-4.5-5.93-4.5H4.5v9Z"/><path class="cls-1" d="M42.21,7.09h2.66L37.23,26.56l-.72,1.84c-1.29,3.28-2.91,4.68-5.76,4.68a6.63,6.63,0,0,1-3.44-1l.78-2a5.49,5.49,0,0,0,2.56.72c1.72,0,2.62-.94,3.5-3l.48-1.22L27,7.09h2.66l6.28,16.38Z"/><path class="cls-1" d="M63.24,16.85c0-5.91,4-10.08,9.2-10.08a8.64,8.64,0,0,1,6.71,3.09L77.4,11.52a6.15,6.15,0,0,0-5-2.31c-3.82,0-6.74,3-6.74,7.6s2.92,7.63,6.81,7.63a6.07,6.07,0,0,0,5-2.34l1.72,1.62a8.56,8.56,0,0,1-6.71,3.2C67.2,26.92,63.24,22.75,63.24,16.85Z"/><path class="cls-1" d="M86.38,26.56V0h2.39V26.56Z"/><path class="cls-1" d="M97.59,4.36V.4h2.56v4Zm.06,22.2V7.09h2.4V26.56Z"/><path class="cls-1" d="M107.73,16.85c0-5.91,4-10.08,9.2-10.08a8.62,8.62,0,0,1,6.7,3.09l-1.74,1.66a6.17,6.17,0,0,0-5-2.31c-3.83,0-6.74,3-6.74,7.6s2.91,7.63,6.8,7.63a6.09,6.09,0,0,0,5-2.34l1.71,1.62a8.53,8.53,0,0,1-6.7,3.2C111.68,26.92,107.73,22.75,107.73,16.85Z"/><path class="cls-1" d="M144.79,26.56l-7.38-9.5-4.15,4.54v5h-2.4V0h2.4V18.36L143.33,7.09h3.21L139,15.33l8.72,11.23Z"/><path class="cls-1" d="M154.25,4.36V.4h2.56v4Zm.07,22.2V7.09h2.4V26.56Z"/><path class="cls-1" d="M181.5,15.08V26.56h-2.43V15.44c0-3.89-1.85-6.19-5.12-6.19s-6.15,3-6.15,7.24V26.56h-2.4V7.09h2.4v3.49a7.68,7.68,0,0,1,6.7-3.81C178.71,6.77,181.5,9.93,181.5,15.08Z"/><path class="cls-1" d="M199.26,22.17c4.53,0,6.9,2,6.9,4.86,0,3.6-3.34,6-9.3,6-5,0-7.94-1.87-7.94-5a4.66,4.66,0,0,1,2.69-3.82,3.3,3.3,0,0,1-1.78-3A3.5,3.5,0,0,1,192,17.93a6.09,6.09,0,0,1-2.08-4.83c0-3.89,2.76-6.37,7.23-6.37a7.29,7.29,0,0,1,3.34.69L205,6.16l.55,2.23-2.95.54a5.16,5.16,0,0,1,1.82,4.17c0,4-2.76,6.44-7.23,6.44a9.6,9.6,0,0,1-3.69-.68c-.91.43-1.26.94-1.26,1.66,0,1.11.84,1.65,2,1.65Zm4.47,5c0-1.8-1.88-2.52-5.12-2.52h-5.15c-1.4.9-2.08,1.87-2.08,3,0,2.06,2.11,3,5.61,3C201.23,30.6,203.73,29.52,203.73,27.18ZM192.29,13.07c0,2.59,1.78,4.1,4.86,4.1S202,15.69,202,13.1s-1.78-4-4.86-4S192.29,10.58,192.29,13.07Z"/><path class="cls-1" d="M224.72,23.18l1.2-2.12a11.7,11.7,0,0,0,7.94,3.27c3.63,0,5.6-1.87,5.6-4.32,0-2.8-1.94-3.78-6.09-4.75-5.15-1.26-8-3.13-8-7.34C225.4,3.53,229,1,233.57,1a12,12,0,0,1,7.71,2.84L239.92,5.9a10.94,10.94,0,0,0-6.51-2.34C230.1,3.56,228,5.25,228,8s1.81,3.74,6.06,4.82c5.37,1.29,8,2.84,8,7.09s-3.47,7.05-8.39,7.05A12.76,12.76,0,0,1,224.72,23.18Z"/><path class="cls-1" d="M249.64,4.36V.4h2.56v4Zm.06,22.2V7.09h2.4V26.56Z"/><path class="cls-1" d="M276.88,15.08V26.56h-2.42V15.44c0-3.89-1.85-6.19-5.12-6.19s-6.16,3-6.16,7.24V26.56h-2.4V7.09h2.4v3.49a7.7,7.7,0,0,1,6.71-3.81C274.1,6.77,276.88,9.93,276.88,15.08Z"/><path class="cls-1" d="M294.64,22.17c4.54,0,6.9,2,6.9,4.86,0,3.6-3.34,6-9.3,6-4.95,0-7.93-1.87-7.93-5A4.66,4.66,0,0,1,287,24.22a3.29,3.29,0,0,1-1.79-3,3.5,3.5,0,0,1,2.14-3.24,6.08,6.08,0,0,1-2.07-4.83c0-3.89,2.75-6.37,7.22-6.37a7.26,7.26,0,0,1,3.34.69l4.54-1.26.55,2.23L298,8.93a5.18,5.18,0,0,1,1.81,4.17c0,4-2.75,6.44-7.22,6.44a9.53,9.53,0,0,1-3.69-.68c-.91.43-1.27.94-1.27,1.66,0,1.11.84,1.65,2,1.65Zm4.47,5c0-1.8-1.88-2.52-5.12-2.52h-5.15c-1.39.9-2.07,1.87-2.07,3,0,2.06,2.11,3,5.6,3C296.62,30.6,299.11,29.52,299.11,27.18ZM287.68,13.07c0,2.59,1.78,4.1,4.86,4.1s4.86-1.48,4.86-4.07-1.79-4-4.86-4S287.68,10.58,287.68,13.07Z"/><path class="cls-1" d="M321,16.2V1.37h2.52V15.69c0,5.26,2.69,8.28,7,8.28s7-3,7-8.28V1.37h2.49V16.2c0,6.66-3.66,10.69-9.52,10.69S321,22.86,321,16.2Z"/><path class="cls-1" d="M366.5,16.88c0,6-3.72,10-8.52,10a8,8,0,0,1-7.09-4v9.83h-2.4V7.09h2.4v3.67a8,8,0,0,1,7.09-4C362.78,6.77,366.5,11,366.5,16.88Zm-2.4,0c0-4.5-2.72-7.63-6.47-7.63s-6.74,3-6.74,7.6,2.85,7.55,6.74,7.55S364.1,21.31,364.1,16.88Z"/><path class="cls-1" d="M373.31,29.77A3.56,3.56,0,0,0,375,26.56h-1.49V23.33h3.08c.74,4.13-.32,6.33-2.56,7.55Z"/><path class="cls-1" d="M415.52,1.37l-9.16,15.8v9.39h-2.53v-9.5L394.66,1.37h2.79l7.67,13.35,7.65-13.35Z"/><path class="cls-1" d="M417.89,16.81c0-5.83,3.86-10,9.2-10s9.23,4.21,9.23,10-3.85,10.15-9.23,10.15S417.89,22.68,417.89,16.81Zm16,0c0-4.5-2.85-7.6-6.8-7.6s-6.77,3.1-6.77,7.6,2.85,7.63,6.8,7.63S433.89,21.31,433.89,16.81Z"/><path class="cls-1" d="M457.38,7.09h2.4V26.56h-2.4V23.07a7.68,7.68,0,0,1-6.7,3.82c-4.21,0-7-3.17-7-8.32V7.09h2.43V18.21c0,3.89,1.85,6.19,5.12,6.19s6.15-3,6.15-7.23Z"/><path class="cls-1" d="M495,14.47V26.56h-2.43V22.89a7.68,7.68,0,0,1-6.74,4,5.65,5.65,0,0,1-6.06-6c0-3.53,2.11-6.19,6.87-6.19a51.79,51.79,0,0,1,5.93.39v-.64c0-3.46-1.85-5.3-5.28-5.3a8.16,8.16,0,0,0-5.38,2.16l-1.23-2a10,10,0,0,1,6.84-2.62C492.47,6.77,495,9.57,495,14.47ZM492.57,18v-.57a30,30,0,0,0-5.38-.43c-3.59,0-5.08,1.4-5.08,3.77s1.62,3.64,4.47,3.64C490.08,24.44,492.57,21.13,492.57,18Z"/><path class="cls-1" d="M513,7.05l-.1,2.78a5.22,5.22,0,0,0-1.62-.26c-3.46,0-5.47,3.68-5.47,8.1v8.89h-2.4V7.09h2.4v3.67a6.14,6.14,0,0,1,5.54-3.88A8.13,8.13,0,0,1,513,7.05Z"/><path class="cls-1" d="M520.44,17.85c.32,4,3.07,6.59,6.86,6.59a6.28,6.28,0,0,0,5.19-2.37l1.58,1.58a8.74,8.74,0,0,1-6.9,3.24c-5.37,0-9.2-4.21-9.2-10.08s3.6-10,8.95-10c4.79,0,8.13,3.85,8.13,9.46a12.47,12.47,0,0,1-.13,1.62Zm0-2.34h12.21c-.35-4.06-2.59-6.3-5.76-6.3C523.35,9.21,520.89,11.73,520.47,15.51Z"/><path class="cls-1" d="M555,4.36V.4h2.56v4Zm.06,22.2V7.09h2.4V26.56Z"/><path class="cls-1" d="M582.29,15.08V26.56h-2.43V15.44c0-3.89-1.85-6.19-5.12-6.19s-6.16,3-6.16,7.24V26.56h-2.39V7.09h2.39v3.49a7.7,7.7,0,0,1,6.71-3.81C579.5,6.77,582.29,9.93,582.29,15.08Z"/><path class="cls-1" d="M605.26,0h2.43V26.56h-2.43V23a8.06,8.06,0,0,1-7.07,4c-4.79,0-8.51-4.24-8.51-10.11s3.72-10,8.51-10a7.93,7.93,0,0,1,7.07,4Zm0,16.81c0-4.54-2.82-7.56-6.71-7.56s-6.48,3.13-6.48,7.56,2.69,7.63,6.48,7.63S605.26,21.38,605.26,16.81Z"/><path class="cls-1" d="M616.5,4.36V.4h2.56v4Zm.07,22.2V7.09H619V26.56Z"/><path class="cls-1" d="M626.64,16.85c0-5.91,4-10.08,9.2-10.08a8.64,8.64,0,0,1,6.71,3.09l-1.75,1.66a6.17,6.17,0,0,0-5-2.31c-3.82,0-6.74,3-6.74,7.6s2.92,7.63,6.81,7.63a6.08,6.08,0,0,0,5-2.34l1.72,1.62a8.56,8.56,0,0,1-6.71,3.2C630.59,26.92,626.64,22.75,626.64,16.85Z"/><path class="cls-1" d="M663.25,14.47V26.56h-2.43V22.89a7.68,7.68,0,0,1-6.74,4A5.64,5.64,0,0,1,648,21c0-3.53,2.1-6.19,6.86-6.19a51.79,51.79,0,0,1,5.93.39v-.64c0-3.46-1.84-5.3-5.28-5.3a8.13,8.13,0,0,0-5.37,2.16l-1.24-2a10,10,0,0,1,6.84-2.62C660.73,6.77,663.25,9.57,663.25,14.47ZM660.82,18v-.57a30,30,0,0,0-5.37-.43c-3.6,0-5.09,1.4-5.09,3.77s1.62,3.64,4.47,3.64C658.33,24.44,660.82,21.13,660.82,18Z"/><path class="cls-1" d="M683.11,25.74a8.49,8.49,0,0,1-4.27,1.18c-3.15,0-5.19-2.12-5.19-5.75V9.57h-3.49V7.09h3.53l.19-5.25h2.2V7.09h6.32V9.57h-6.32V20.7c0,2.34,1.3,3.78,3.18,3.78a7.51,7.51,0,0,0,3.37-.87Z"/><path class="cls-1" d="M690.34,4.36V.4h2.56v4Zm.07,22.2V7.09h2.39V26.56Z"/><path class="cls-1" d="M717.59,15.08V26.56h-2.43V15.44c0-3.89-1.85-6.19-5.12-6.19s-6.16,3-6.16,7.24V26.56h-2.39V7.09h2.39v3.49a7.7,7.7,0,0,1,6.71-3.81C714.8,6.77,717.59,9.93,717.59,15.08Z"/><path class="cls-1" d="M735.34,22.17c4.54,0,6.9,2,6.9,4.86,0,3.6-3.33,6-9.3,6-5,0-7.93-1.87-7.93-5a4.66,4.66,0,0,1,2.69-3.82,3.27,3.27,0,0,1-1.78-3,3.49,3.49,0,0,1,2.13-3.24A6.11,6.11,0,0,1,726,13.1c0-3.89,2.75-6.37,7.22-6.37a7.26,7.26,0,0,1,3.34.69l4.54-1.26.55,2.23-3,.54a5.18,5.18,0,0,1,1.81,4.17c0,4-2.75,6.44-7.22,6.44a9.53,9.53,0,0,1-3.69-.68c-.91.43-1.27.94-1.27,1.66,0,1.11.84,1.65,2,1.65Zm4.47,5c0-1.8-1.88-2.52-5.12-2.52h-5.15c-1.39.9-2.07,1.87-2.07,3,0,2.06,2.11,3,5.6,3C737.32,30.6,739.81,29.52,739.81,27.18ZM728.38,13.07c0,2.59,1.78,4.1,4.86,4.1s4.86-1.48,4.86-4.07-1.79-4-4.86-4S728.38,10.58,728.38,13.07Z"/><path class="cls-1" d="M773.48,25.74a8.55,8.55,0,0,1-4.28,1.18c-3.14,0-5.18-2.12-5.18-5.75V9.57h-3.5V7.09h3.53l.19-5.25h2.21V7.09h6.31V9.57h-6.31V20.7c0,2.34,1.29,3.78,3.17,3.78a7.47,7.47,0,0,0,3.37-.87Z"/><path class="cls-1" d="M797.06,15.08V26.56h-2.43V15.44c0-3.89-1.84-6.19-5.12-6.19s-6.15,3-6.15,7.24V26.56H781V0h2.4V10.58a7.68,7.68,0,0,1,6.7-3.81C794.28,6.77,797.06,9.93,797.06,15.08Z"/><path class="cls-1" d="M819.09,14.47V26.56h-2.43V22.89a7.67,7.67,0,0,1-6.73,4,5.65,5.65,0,0,1-6.06-6c0-3.53,2.1-6.19,6.87-6.19a51.76,51.76,0,0,1,5.92.39v-.64c0-3.46-1.84-5.3-5.28-5.3A8.13,8.13,0,0,0,806,11.37l-1.23-2a10,10,0,0,1,6.83-2.62C816.57,6.77,819.09,9.57,819.09,14.47ZM816.66,18v-.57a30,30,0,0,0-5.37-.43c-3.6,0-5.09,1.4-5.09,3.77s1.62,3.64,4.47,3.64C814.17,24.44,816.66,21.13,816.66,18Z"/><path class="cls-1" d="M839,25.74a8.55,8.55,0,0,1-4.28,1.18c-3.14,0-5.18-2.12-5.18-5.75V9.57H826V7.09h3.53l.19-5.25h2.21V7.09h6.31V9.57h-6.31V20.7c0,2.34,1.29,3.78,3.17,3.78a7.51,7.51,0,0,0,3.37-.87Z"/><path class="cls-1" d="M872.36,7.09H875l-7.65,19.47-.71,1.84c-1.3,3.28-2.92,4.68-5.77,4.68a6.6,6.6,0,0,1-3.43-1l.77-2a5.53,5.53,0,0,0,2.56.72c1.72,0,2.63-.94,3.5-3l.49-1.22L857.13,7.09h2.66l6.28,16.38Z"/><path class="cls-1" d="M879.17,16.81c0-5.83,3.85-10,9.2-10s9.23,4.21,9.23,10-3.86,10.15-9.23,10.15S879.17,22.68,879.17,16.81Zm16,0c0-4.5-2.85-7.6-6.8-7.6s-6.78,3.1-6.78,7.6,2.86,7.63,6.81,7.63S895.17,21.31,895.17,16.81Z"/><path class="cls-1" d="M918.66,7.09h2.39V26.56h-2.39V23.07A7.71,7.71,0,0,1,912,26.89c-4.21,0-7-3.17-7-8.32V7.09h2.43V18.21c0,3.89,1.85,6.19,5.12,6.19s6.16-3,6.16-7.23Z"/><path class="cls-1" d="M958.9,15.08V26.56h-2.43V15.44c0-3.89-1.85-6.19-5.12-6.19s-6.16,3-6.16,7.24V26.56H942.8V0h2.39V10.58a7.7,7.7,0,0,1,6.71-3.81C956.11,6.77,958.9,9.93,958.9,15.08Z"/><path class="cls-1" d="M980.93,14.47V26.56H978.5V22.89a7.68,7.68,0,0,1-6.74,4,5.65,5.65,0,0,1-6.06-6c0-3.53,2.11-6.19,6.87-6.19a51.79,51.79,0,0,1,5.93.39v-.64c0-3.46-1.85-5.3-5.28-5.3a8.16,8.16,0,0,0-5.38,2.16l-1.23-2a10,10,0,0,1,6.84-2.62C978.4,6.77,980.93,9.57,980.93,14.47ZM978.5,18v-.57a30,30,0,0,0-5.38-.43c-3.59,0-5.08,1.4-5.08,3.77s1.62,3.64,4.47,3.64C976,24.44,978.5,21.13,978.5,18Z"/><path class="cls-1" d="M994,26.56,986.31,7.09H989l6.28,16.38,6.29-16.38h2.65l-7.64,19.47Z"/><path class="cls-1" d="M1010.81,17.85c.32,4,3.07,6.59,6.86,6.59a6.28,6.28,0,0,0,5.19-2.37l1.58,1.58a8.74,8.74,0,0,1-6.9,3.24c-5.37,0-9.2-4.21-9.2-10.08s3.6-10,8.94-10c4.8,0,8.14,3.85,8.14,9.46a12.47,12.47,0,0,1-.13,1.62Zm0-2.34h12.21c-.36-4.06-2.59-6.3-5.77-6.3C1013.72,9.21,1011.26,11.73,1010.84,15.51Z"/><path class="cls-1" d="M1055.06,7.05l-.1,2.78a5.22,5.22,0,0,0-1.62-.26c-3.46,0-5.47,3.68-5.47,8.1v8.89h-2.4V7.09h2.4v3.67a6.15,6.15,0,0,1,5.54-3.88A8.13,8.13,0,0,1,1055.06,7.05Z"/><path class="cls-1" d="M1062.55,17.85c.32,4,3.08,6.59,6.87,6.59a6.26,6.26,0,0,0,5.18-2.37l1.59,1.58a8.77,8.77,0,0,1-6.9,3.24c-5.38,0-9.2-4.21-9.2-10.08s3.59-10,8.94-10c4.79,0,8.13,3.85,8.13,9.46a10.91,10.91,0,0,1-.13,1.62Zm0-2.34h12.21c-.35-4.06-2.59-6.3-5.76-6.3C1065.46,9.21,1063,11.73,1062.58,15.51Z"/><path class="cls-1" d="M1098,14.47V26.56h-2.43V22.89a7.67,7.67,0,0,1-6.73,4,5.65,5.65,0,0,1-6.06-6c0-3.53,2.1-6.19,6.87-6.19a51.76,51.76,0,0,1,5.92.39v-.64c0-3.46-1.84-5.3-5.28-5.3a8.13,8.13,0,0,0-5.37,2.16l-1.23-2a10,10,0,0,1,6.83-2.62C1095.5,6.77,1098,9.57,1098,14.47ZM1095.59,18v-.57a30,30,0,0,0-5.37-.43c-3.6,0-5.09,1.4-5.09,3.77s1.62,3.64,4.47,3.64C1093.1,24.44,1095.59,21.13,1095.59,18Z"/><path class="cls-1" d="M1121,0h2.43V26.56H1121V23a8,8,0,0,1-7.06,4c-4.79,0-8.52-4.24-8.52-10.11s3.73-10,8.52-10a7.93,7.93,0,0,1,7.06,4Zm0,16.81c0-4.54-2.81-7.56-6.7-7.56s-6.48,3.13-6.48,7.56,2.69,7.63,6.48,7.63S1121,21.38,1121,16.81Z"/><path class="cls-1" d="M15.23,57.67V69.76H12.8V66.09a7.7,7.7,0,0,1-6.74,4,5.65,5.65,0,0,1-6.06-6C0,60.62,2.11,58,6.87,58a52.1,52.1,0,0,1,5.93.39v-.64c0-3.46-1.85-5.29-5.28-5.29a8.13,8.13,0,0,0-5.38,2.15l-1.23-2A10,10,0,0,1,7.74,50C12.7,50,15.23,52.77,15.23,57.67ZM12.8,61.23v-.57a30.15,30.15,0,0,0-5.38-.43c-3.6,0-5.09,1.4-5.09,3.78S4,67.64,6.8,67.64C10.3,67.64,12.8,64.33,12.8,61.23Z"/><path class="cls-1" d="M39.69,58.28V69.76H37.26V58.64c0-3.89-1.85-6.19-5.12-6.19S26,55.47,26,59.69V69.76H23.59V50.29H26v3.49A7.7,7.7,0,0,1,32.69,50C36.9,50,39.69,53.13,39.69,58.28Z"/><path class="cls-1" d="M62.66,43.2h2.43V69.76H62.66V66.17a8.06,8.06,0,0,1-7.06,4c-4.8,0-8.52-4.24-8.52-10.11S50.8,50,55.6,50a7.93,7.93,0,0,1,7.06,4Zm0,16.81c0-4.54-2.82-7.56-6.71-7.56S49.47,55.58,49.47,60s2.69,7.63,6.48,7.63S62.66,64.58,62.66,60Z"/><path class="cls-1" d="M100.5,57.67V69.76H98.07V66.09a7.68,7.68,0,0,1-6.74,4,5.64,5.64,0,0,1-6-6c0-3.53,2.1-6.19,6.86-6.19a51.79,51.79,0,0,1,5.93.39v-.64c0-3.46-1.84-5.29-5.28-5.29a8.17,8.17,0,0,0-5.38,2.15l-1.23-2A10,10,0,0,1,93,50C98,50,100.5,52.77,100.5,57.67Zm-2.43,3.56v-.57a30,30,0,0,0-5.38-.43c-3.59,0-5.08,1.4-5.08,3.78s1.62,3.63,4.47,3.63C95.58,67.64,98.07,64.33,98.07,61.23Z"/><path class="cls-1" d="M124.31,69.76H121.5l-5.83-8.06-5.84,8.06h-2.75l7.16-9.93-6.87-9.54h2.89L115.7,58l5.44-7.7H124l-6.8,9.5Z"/><path class="cls-1" d="M145.34,69.76,138,60.26l-4.15,4.54v5h-2.4V43.2h2.4V61.56l10.07-11.27h3.21l-7.55,8.24,8.72,11.23Z"/><path class="cls-1" d="M171,58.28V69.76h-2.43V58.64c0-3.89-1.85-6.19-5.12-6.19s-6.15,3-6.15,7.24V69.76h-2.4V50.29h2.4v3.49A7.68,7.68,0,0,1,164,50C168.18,50,171,53.13,171,58.28Z"/><path class="cls-1" d="M178.33,60c0-5.83,3.85-10,9.2-10s9.23,4.21,9.23,10-3.85,10.15-9.23,10.15S178.33,65.88,178.33,60Zm16,0c0-4.5-2.85-7.59-6.8-7.59s-6.77,3.09-6.77,7.59,2.85,7.63,6.8,7.63S194.33,64.51,194.33,60Z"/><path class="cls-1" d="M225.63,50.29h2.56L222.1,69.76h-2.76l-4.69-15.83L210,69.76h-2.72l-6.16-19.47h2.56l5,16.34,4.79-16.34h2.5l4.82,16.34Z"/><path class="cls-1" d="M235.09,69.76V43.2h2.4V69.76Z"/><path class="cls-1" d="M247.82,61.05c.33,4,3.08,6.59,6.87,6.59a6.28,6.28,0,0,0,5.19-2.37l1.58,1.58a8.74,8.74,0,0,1-6.9,3.24c-5.37,0-9.2-4.21-9.2-10.08s3.6-10,8.94-10c4.8,0,8.13,3.85,8.13,9.46a12.18,12.18,0,0,1-.12,1.62Zm0-2.34h12.21c-.36-4.06-2.59-6.29-5.77-6.29C250.74,52.42,248.28,54.93,247.86,58.71Z"/><path class="cls-1" d="M278.28,65.37c4.53,0,6.9,2,6.9,4.86,0,3.6-3.34,6-9.3,6-4.95,0-7.93-1.87-7.93-5a4.67,4.67,0,0,1,2.68-3.82,3.3,3.3,0,0,1-1.78-3A3.5,3.5,0,0,1,271,61.13a6.08,6.08,0,0,1-2.07-4.83c0-3.88,2.75-6.37,7.22-6.37a7.26,7.26,0,0,1,3.34.69L284,49.36l.55,2.23-2.94.54a5.18,5.18,0,0,1,1.81,4.17c0,4-2.75,6.45-7.22,6.45a9.61,9.61,0,0,1-3.7-.69c-.9.43-1.26.94-1.26,1.66,0,1.11.84,1.65,2,1.65Zm4.47,5c0-1.8-1.88-2.52-5.12-2.52h-5.15c-1.39.9-2.07,1.87-2.07,3,0,2.06,2.1,3,5.6,3C280.26,73.8,282.75,72.72,282.75,70.38ZM271.31,56.27c0,2.59,1.79,4.1,4.86,4.1S281,58.89,281,56.3s-1.78-4-4.86-4S271.31,53.78,271.31,56.27Z"/><path class="cls-1" d="M292.28,61.05c.32,4,3.07,6.59,6.87,6.59a6.26,6.26,0,0,0,5.18-2.37l1.59,1.58a8.77,8.77,0,0,1-6.9,3.24c-5.38,0-9.2-4.21-9.2-10.08s3.59-10,8.94-10c4.79,0,8.13,3.85,8.13,9.46a12.47,12.47,0,0,1-.13,1.62Zm0-2.34h12.21c-.35-4.06-2.59-6.29-5.76-6.29C295.19,52.42,292.73,54.93,292.31,58.71Z"/><path class="cls-1" d="M338.45,68.94a8.55,8.55,0,0,1-4.28,1.18C331,70.12,329,68,329,64.37V52.77h-3.5V50.29H329l.19-5.25h2.21v5.25h6.31v2.48h-6.31V63.9c0,2.34,1.29,3.78,3.17,3.78a7.51,7.51,0,0,0,3.37-.87Z"/><path class="cls-1" d="M362,58.28V69.76H359.6V58.64c0-3.89-1.85-6.19-5.12-6.19s-6.15,3-6.15,7.24V69.76h-2.4V43.2h2.4V53.78A7.68,7.68,0,0,1,355,50C359.25,50,362,53.13,362,58.28Z"/><path class="cls-1" d="M371.85,61.05c.32,4,3.08,6.59,6.87,6.59a6.25,6.25,0,0,0,5.18-2.37l1.59,1.58a8.75,8.75,0,0,1-6.9,3.24c-5.38,0-9.2-4.21-9.2-10.08s3.59-10,8.94-10c4.79,0,8.13,3.85,8.13,9.46a10.91,10.91,0,0,1-.13,1.62Zm0-2.34H384.1c-.36-4.06-2.6-6.29-5.77-6.29C374.77,52.42,372.3,54.93,371.88,58.71Z"/><path class="cls-1" d="M424.43,44.57v5.29h-7.12v19.9H411.7V49.86h-7.09V44.57Z"/><path class="cls-1" d="M432.11,61.59c.46,2.42,2.34,3.78,4.93,3.78a4.88,4.88,0,0,0,4.14-1.9l3.18,3.09a9.45,9.45,0,0,1-7.58,3.6c-5.8,0-10-4.36-10-10.37s3.92-10.33,9.75-10.33c5.25,0,8.88,4,8.88,9.4a18.31,18.31,0,0,1-.23,2.73Zm0-3.63h8.13c-.33-2.49-1.78-3.75-3.86-3.75A4.19,4.19,0,0,0,432.15,58Z"/><path class="cls-1" d="M463.22,49.71,463,55.4a7.51,7.51,0,0,0-2-.29c-2.69,0-4.35,2.63-4.35,6.52v8.13h-5.34V49.86h5.34v2.7a5.66,5.66,0,0,1,4.86-3A11.08,11.08,0,0,1,463.22,49.71Z"/><path class="cls-1" d="M499.21,57.6V69.76h-5.38V58.61c0-2.52-.94-4-2.95-4-2.2,0-4.08,2.16-4.08,5.18v9.93h-5.34V58.61c0-2.52-.94-4-2.95-4-2.24,0-4.08,2.16-4.08,5.18v9.93h-5.35V49.86h5.35v2.48a7.38,7.38,0,0,1,5.8-2.91,6,6,0,0,1,5.86,4,7.46,7.46,0,0,1,6.51-4C496.65,49.43,499.21,52.49,499.21,57.6Z"/><path class="cls-1" d="M504.85,67.93l1.78-4.28a13.46,13.46,0,0,0,6.64,1.8c1.69,0,2.79-.37,2.79-1.59,0-1-.87-1.47-3.63-2-5.21-.93-7-2.66-7-6.05,0-4.13,3-6.4,7.49-6.4a15.73,15.73,0,0,1,7.67,2l-1.81,4.28a13.32,13.32,0,0,0-6.16-1.62c-1.42,0-2,.51-2,1.33s.62,1.26,3.31,1.8c5.41,1.12,7.29,3,7.29,6.41,0,4.18-3.34,6.52-8.2,6.52A16.36,16.36,0,0,1,504.85,67.93Z"/><path class="cls-1" d="M539.68,59.79c0-6,4.25-10.36,10-10.36s10,4.35,10,10.33-4.21,10.44-10,10.44S539.68,65.8,539.68,59.79Zm14.64,0c0-3.2-1.94-5.29-4.63-5.29s-4.6,2.09-4.6,5.22,1.95,5.36,4.63,5.36S554.32,63,554.32,59.79Z"/><path class="cls-1" d="M573.34,49.64v.22h5.41v4.89h-5.41v15H568v-15h-3.21V49.86H568v-.58c0-4.46,2.52-7.09,6.51-7.09a13.11,13.11,0,0,1,5.08.9l-.81,4.65a7.8,7.8,0,0,0-3.17-.62C574.19,47.12,573.34,47.7,573.34,49.64Z"/><path class="cls-1" d="M596.58,66.71l2.26-4.47a14.1,14.1,0,0,0,8,2.95c2.21,0,3.47-1,3.47-2.34,0-1.76-1.36-2.3-4.47-3-5.19-1.22-8.62-3.31-8.62-8.06,0-5,4-7.63,9.17-7.63a12.94,12.94,0,0,1,8.84,3.16l-2.69,4.07a10,10,0,0,0-6.18-2.23c-2.17,0-3.44.72-3.44,2.41,0,1.44,1.17,2.27,4.41,3.06,5.7,1.33,8.68,3.1,8.68,7.7,0,4.94-4,7.89-9.36,7.89A15.5,15.5,0,0,1,596.58,66.71Z"/><path class="cls-1" d="M626.71,61.59c.45,2.42,2.33,3.78,4.92,3.78a4.9,4.9,0,0,0,4.15-1.9L639,66.56a9.43,9.43,0,0,1-7.58,3.6c-5.8,0-10-4.36-10-10.37s3.92-10.33,9.75-10.33c5.25,0,8.88,4,8.88,9.4a18.31,18.31,0,0,1-.23,2.73Zm0-3.63h8.13c-.32-2.49-1.78-3.75-3.85-3.75A4.2,4.2,0,0,0,626.74,58Z"/><path class="cls-1" d="M657.81,49.71l-.19,5.69a7.53,7.53,0,0,0-2-.29c-2.69,0-4.34,2.63-4.34,6.52v8.13H646V49.86h5.35v2.7a5.64,5.64,0,0,1,4.86-3A10.94,10.94,0,0,1,657.81,49.71Z"/><path class="cls-1" d="M669.8,69.76l-7.42-19.9h5.73l4.44,13.35h0L677,49.86h5.77l-7.42,19.9Z"/><path class="cls-1" d="M688.43,47.81V43.13H694v4.68Zm.1,22V49.86h5.34v19.9Z"/><path class="cls-1" d="M700.35,59.83c0-6.12,4.34-10.4,10-10.4a8.92,8.92,0,0,1,7.36,3.63l-3.54,3.42a4.36,4.36,0,0,0-3.79-2c-2.56,0-4.6,1.87-4.6,5.29s2.08,5.33,4.7,5.33a4.27,4.27,0,0,0,3.69-2l3.54,3.42a9,9,0,0,1-7.36,3.64C704.69,70.2,700.35,65.91,700.35,59.83Z"/><path class="cls-1" d="M728.05,61.59c.46,2.42,2.34,3.78,4.93,3.78a4.88,4.88,0,0,0,4.14-1.9l3.18,3.09a9.45,9.45,0,0,1-7.58,3.6c-5.8,0-10-4.36-10-10.37s3.92-10.33,9.75-10.33c5.25,0,8.87,4,8.87,9.4a18.16,18.16,0,0,1-.22,2.73Zm0-3.63h8.13c-.33-2.49-1.79-3.75-3.86-3.75A4.19,4.19,0,0,0,728.09,58Z"/><path class="cls-1" d="M774.51,57.67V69.76h-2.43V66.09a7.67,7.67,0,0,1-6.73,4,5.65,5.65,0,0,1-6.06-6c0-3.53,2.1-6.19,6.86-6.19a51.79,51.79,0,0,1,5.93.39v-.64c0-3.46-1.84-5.29-5.28-5.29a8.12,8.12,0,0,0-5.37,2.15l-1.24-2A10,10,0,0,1,767,50C772,50,774.51,52.77,774.51,57.67Zm-2.43,3.56v-.57a30,30,0,0,0-5.37-.43c-3.6,0-5.09,1.4-5.09,3.78s1.62,3.63,4.47,3.63C769.59,67.64,772.08,64.33,772.08,61.23Z"/><path class="cls-1" d="M799,58.28V69.76h-2.43V58.64c0-3.89-1.84-6.19-5.11-6.19s-6.16,3-6.16,7.24V69.76h-2.4V50.29h2.4v3.49A7.7,7.7,0,0,1,792,50C796.19,50,799,53.13,799,58.28Z"/><path class="cls-1" d="M822,43.2h2.43V69.76H822V66.17a8.09,8.09,0,0,1-7.07,4c-4.79,0-8.52-4.24-8.52-10.11s3.73-10,8.52-10a8,8,0,0,1,7.07,4ZM822,60c0-4.54-2.82-7.56-6.71-7.56s-6.48,3.13-6.48,7.56,2.69,7.63,6.48,7.63S822,64.58,822,60Z"/><path class="cls-1" d="M865.46,53.67c0,5.73-3.89,9.22-10.11,9.22h-3.92v6.87h-5.57V44.57h9.52C861.6,44.57,865.46,48,865.46,53.67Zm-10.24,4.07c2.92,0,4.67-1.33,4.67-4.07s-1.75-4-4.67-4h-3.79v8Z"/><path class="cls-1" d="M883.51,49.71l-.2,5.69a7.51,7.51,0,0,0-2-.29c-2.69,0-4.35,2.63-4.35,6.52v8.13h-5.34V49.86H877v2.7a5.66,5.66,0,0,1,4.86-3A11.08,11.08,0,0,1,883.51,49.71Z"/><path class="cls-1" d="M889.27,47.81V43.13h5.54v4.68Zm.1,22V49.86h5.35v19.9Z"/><path class="cls-1" d="M907.9,69.76l-7.42-19.9h5.74l4.44,13.35h0l4.4-13.35h5.77l-7.42,19.9Z"/><path class="cls-1" d="M941.92,58.14V69.76h-5.34v-2.3a7.16,7.16,0,0,1-5.9,2.74,6,6,0,0,1-6.25-6.34c0-3.63,2.17-6.44,7.32-6.44,1.49,0,3.4.11,4.79.25-.09-2.12-1.45-3.35-4.14-3.35a8.12,8.12,0,0,0-4.89,1.8L925.37,52A12.23,12.23,0,0,1,933,49.43C939.2,49.43,941.92,52.77,941.92,58.14Zm-5.38,3.42v-.43a23.4,23.4,0,0,0-3.46-.22c-2.63,0-3.53,1-3.53,2.41s1.1,2.2,3,2.2A4.09,4.09,0,0,0,936.54,61.56Z"/><path class="cls-1" d="M948.15,59.83c0-6.12,4.34-10.4,10-10.4a8.92,8.92,0,0,1,7.35,3.63L962,56.48a4.37,4.37,0,0,0-3.79-2c-2.56,0-4.6,1.87-4.6,5.29s2.07,5.33,4.69,5.33a4.27,4.27,0,0,0,3.7-2l3.53,3.42a9,9,0,0,1-7.35,3.64C952.49,70.2,948.15,65.91,948.15,59.83Z"/><path class="cls-1" d="M983.94,49.86h5.77l-7.42,19.9L981.84,71c-1.52,3.85-3.27,5.4-7.1,5.4a10,10,0,0,1-4.66-1.26l1.23-4a7.19,7.19,0,0,0,2.79.65c1.39,0,2-.58,2.52-2l.1-.25-7.39-19.62h5.74l4.44,13.35Z"/><path class="cls-1" d="M1009.09,69.76V44.57h4.73l11.08,15v-15h5.57V69.76h-4.57L1014.66,54.5V69.76Z"/><path class="cls-1" d="M1037.37,59.79c0-6,4.25-10.36,10.05-10.36s10,4.35,10,10.33-4.22,10.44-10,10.44S1037.37,65.8,1037.37,59.79Zm14.65,0c0-3.2-2-5.29-4.64-5.29s-4.6,2.09-4.6,5.22,2,5.36,4.64,5.36S1052,63,1052,59.79Z"/><path class="cls-1" d="M1077.09,68.79a11.26,11.26,0,0,1-5.44,1.41c-4,0-6.38-2.41-6.38-7v-8.5h-3.17V49.86h3.3l.32-5h4.86v5h5.83v4.89h-5.83v7.71c0,1.65.81,2.62,2.14,2.62a8.44,8.44,0,0,0,3.37-.75Z"/><path class="cls-1" d="M1083.32,47.81V43.13h5.54v4.68Zm.09,22V49.86h5.35v19.9Z"/><path class="cls-1" d="M1095.24,59.83c0-6.12,4.34-10.4,10-10.4a8.91,8.91,0,0,1,7.35,3.63l-3.53,3.42a4.37,4.37,0,0,0-3.79-2c-2.56,0-4.6,1.87-4.6,5.29s2.07,5.33,4.7,5.33a4.27,4.27,0,0,0,3.69-2l3.53,3.42a9,9,0,0,1-7.35,3.64C1099.58,70.2,1095.24,65.91,1095.24,59.83Z"/><path class="cls-1" d="M1122.94,61.59c.45,2.42,2.33,3.78,4.92,3.78a4.88,4.88,0,0,0,4.15-1.9l3.18,3.09a9.46,9.46,0,0,1-7.58,3.6c-5.8,0-10-4.36-10-10.37s3.92-10.33,9.75-10.33c5.24,0,8.87,4,8.87,9.4a18.16,18.16,0,0,1-.22,2.73Zm0-3.63h8.13c-.32-2.49-1.78-3.75-3.85-3.75A4.2,4.2,0,0,0,1123,58Z"/><path class="cls-1" d="M1142.12,66.53h3.21v3.23h-3.21Z"/></g></g></svg>