<svg xmlns="http://www.w3.org/2000/svg" viewBox="0 0 299.1 42.66"><defs><style>.cls-1{fill:#fff;}</style></defs><title>Asset 19</title><g id="Layer_2" data-name="Layer 2"><g id="Layer_1-2" data-name="Layer 1"><path class="cls-1" d="M0,24.42V0H7V23c0,7.5,3.67,11.58,9.72,11.58S26.57,30.48,26.57,23V0h6.91V24.42c0,11.28-6.37,18.24-16.74,18.24C6.53,42.66,0,35.7,0,24.42Z"/><path class="cls-1" d="M38.88,38.64l2.75-6.12a19.18,19.18,0,0,0,10.48,3.3c3.67,0,5.94-.78,5.94-3.24,0-2.22-1.62-3.06-6.91-4.08-8.64-1.62-11.29-4.62-11.29-10,0-6.42,4.16-10,11.34-10,3.94,0,9.61,1.38,12.53,3.42L61,18.18A19.62,19.62,0,0,0,50.76,15.3c-2.7,0-4.1.84-4.1,2.64S48,20.52,53,21.66c9.18,2.16,11.72,5.4,11.72,10.62,0,6.6-5.13,10.32-12.91,10.32A24.92,24.92,0,0,1,38.88,38.64Z"/><path class="cls-1" d="M76,28.5c.87,4.68,4.48,7.44,9.45,7.44,3.3,0,5.56-.9,7.51-3.3l4.32,4.26a15.38,15.38,0,0,1-12.15,5.7c-9.34,0-16.09-7.14-16.09-17s6.31-17,15.66-17C93.15,8.58,99,15.12,99,24.06a40.28,40.28,0,0,1-.32,4.44Zm.11-6.18h16.2c-.76-4.8-3.56-7.14-7.67-7.14A8.32,8.32,0,0,0,76.14,22.32Z"/><path class="cls-1" d="M122.31,9l-.22,7.62a10,10,0,0,0-2.91-.42c-5.13,0-8.16,4.86-8.16,12.24V42h-6.69V9.18H111v4.2a10,10,0,0,1,8.43-4.62A18.11,18.11,0,0,1,122.31,9Z"/><path class="cls-1" d="M173.93,22.32V42h-6.69V23.34c0-5.22-2.27-8-6.92-8-5,0-8.58,4.32-8.58,10.44V42H145V9.18h6.7v4a12.77,12.77,0,0,1,10.2-4.68C169.13,8.46,173.93,13.68,173.93,22.32Z"/><path class="cls-1" d="M206.71,22.26V42H200V38.1a13.21,13.21,0,0,1-10.47,4.56c-6.27,0-10.32-4.44-10.32-10.5,0-5.76,3.24-11,11.88-11a81.41,81.41,0,0,1,8.86.54c-.22-4.14-2.86-6.54-7.78-6.54a12.43,12.43,0,0,0-8.2,3.54l-3.3-5.46a18.23,18.23,0,0,1,12.21-4.8C202.34,8.46,206.71,13.68,206.71,22.26Zm-6.75,6v-.54a43.45,43.45,0,0,0-7.24-.54c-5.45,0-7.07,1.92-7.07,4.56,0,2.94,2.27,4.26,6.1,4.26A8.24,8.24,0,0,0,200,28.26Z"/><path class="cls-1" d="M263.14,22.08V42h-6.75V23.1c0-5-1.89-7.74-6-7.74-4.43,0-8.27,4.38-8.27,10.26V42h-6.75V23.1c0-5-1.89-7.74-6-7.74-4.37,0-8.26,4.38-8.26,10.26V42h-6.69V9.18h6.69v4.08a13.13,13.13,0,0,1,10.1-4.8,10,10,0,0,1,9.72,6.48,13.27,13.27,0,0,1,11.34-6.48C258.93,8.46,263.14,13.5,263.14,22.08Z"/><path class="cls-1" d="M276.15,28.5c.87,4.68,4.48,7.44,9.45,7.44,3.3,0,5.57-.9,7.51-3.3l4.32,4.26a15.38,15.38,0,0,1-12.15,5.7c-9.34,0-16.09-7.14-16.09-17s6.31-17,15.66-17c8.42,0,14.25,6.54,14.25,15.48a37.94,37.94,0,0,1-.32,4.44Zm.11-6.18h16.2c-.75-4.8-3.56-7.14-7.67-7.14A8.32,8.32,0,0,0,276.26,22.32Z"/></g></g></svg>