<svg xmlns="http://www.w3.org/2000/svg" xmlns:xlink="http://www.w3.org/1999/xlink" viewBox="0 0 379.7 410.15"><defs><style>.cls-1{fill:#f2f2f2;}.cls-2{fill:url(#linear-gradient);}.cls-3{fill:#4984f4;}.cls-4{fill:#4883f3;}.cls-5{fill:#4782f2;}.cls-6{fill:#4781f1;}.cls-7{fill:#4680f0;}.cls-8{fill:#457fef;}.cls-9{fill:#447eee;}.cls-10{fill:#437ded;}.cls-11{fill:#427cec;}.cls-12{fill:#427beb;}.cls-13{fill:#417bea;}.cls-14{fill:#407ae9;}.cls-15{fill:#3f79e8;}.cls-16{fill:#3e78e7;}.cls-17{fill:#3e77e6;}.cls-18{fill:#3d76e5;}.cls-19{fill:#3c75e4;}.cls-20{fill:#3b74e3;}.cls-21{fill:#3a73e2;}.cls-22{fill:#3a72e2;}.cls-23{fill:#3971e1;}.cls-24{fill:#3870e0;}.cls-25{fill:#376fdf;}.cls-26{fill:#366ede;}.cls-27{fill:#356ddd;}.cls-28{fill:#356cdc;}.cls-29{fill:#346bdb;}.cls-30{fill:#336ada;}.cls-31{fill:#3269d9;}.cls-32{fill:#3169d8;}.cls-33{fill:#3168d7;}.cls-34{fill:#3067d6;}.cls-35{fill:#2f66d5;}.cls-36{fill:#2e65d4;}.cls-37{fill:#2d64d3;}.cls-38{fill:#2c63d2;}.cls-39{fill:#2c62d1;}.cls-40{fill:#2b61d0;}.cls-41{fill:#2a60cf;}.cls-42{fill:#232323;}</style><linearGradient id="linear-gradient" x1="39.94" y1="149.99" x2="339.76" y2="149.99" gradientUnits="userSpaceOnUse"><stop offset="0" stop-color="#558ffc"/><stop offset="1" stop-color="#6483ff"/></linearGradient></defs><title>Asset 1</title><g id="Layer_2" data-name="Layer 2"><g id="Layer_1-2" data-name="Layer 1"><path class="cls-1" d="M185.17,51.68,42.32,217.08a7,7,0,0,0,.79,9.93L184.4,346a7,7,0,0,0,9.81-.78l142.84-165.4a7,7,0,0,0-.78-9.93L195,50.9A7,7,0,0,0,185.17,51.68Z"/><path class="cls-2" d="M338,122.73,193.63,1.18a5,5,0,0,0-7,.55l-39.75,46L41.16,170.16a5,5,0,0,0,.56,7.1L186.07,298.81a5,5,0,0,0,7-.55L338.54,129.83A5,5,0,0,0,338,122.73Z"/><ellipse class="cls-3" cx="245.74" cy="129.89" rx="35.82" ry="30.36" transform="translate(-3.98 251.96) rotate(-53.91)"/><ellipse class="cls-4" cx="239.73" cy="128.63" rx="35.82" ry="30.36" transform="translate(-5.43 246.58) rotate(-53.91)"/><ellipse class="cls-5" cx="233.04" cy="126.55" rx="35.82" ry="30.36" transform="translate(-6.5 240.32) rotate(-53.91)"/><ellipse class="cls-6" cx="225.86" cy="123.89" rx="35.82" ry="30.36" transform="translate(-7.3 233.42) rotate(-53.91)"/><ellipse class="cls-7" cx="218.39" cy="120.89" rx="35.82" ry="30.36" transform="translate(-7.94 226.16) rotate(-53.91)"/><ellipse class="cls-8" cx="210.83" cy="117.77" rx="35.82" ry="30.36" transform="translate(-8.53 218.77) rotate(-53.91)"/><ellipse class="cls-9" cx="203.38" cy="114.79" rx="35.82" ry="30.36" transform="translate(-9.18 211.52) rotate(-53.91)"/><ellipse class="cls-10" cx="196.23" cy="112.16" rx="35.82" ry="30.36" transform="translate(-10 204.66) rotate(-53.91)"/><ellipse class="cls-11" cx="189.58" cy="110.14" rx="35.82" ry="30.36" transform="translate(-11.09 198.46) rotate(-53.91)"/><ellipse class="cls-12" cx="183.63" cy="108.94" rx="35.82" ry="30.36" transform="translate(-12.57 193.16) rotate(-53.91)"/><ellipse class="cls-13" cx="178.57" cy="108.81" rx="35.82" ry="30.36" transform="translate(-14.54 189.01) rotate(-53.91)"/><ellipse class="cls-14" cx="174.61" cy="109.97" rx="35.82" ry="30.36" transform="matrix(0.59, -0.81, 0.81, 0.59, -17.12, 186.29)"/><ellipse class="cls-15" cx="171.95" cy="112.65" rx="35.82" ry="30.36" transform="translate(-20.37 185.24) rotate(-53.91)"/><ellipse class="cls-16" cx="171.07" cy="116.36" rx="35.82" ry="30.36" transform="translate(-23.73 186.05) rotate(-53.91)"/><ellipse class="cls-17" cx="171.89" cy="120.77" rx="35.82" ry="30.36" transform="translate(-26.95 188.53) rotate(-53.91)"/><ellipse class="cls-18" cx="174.14" cy="125.77" rx="35.82" ry="30.36" transform="translate(-30.07 192.4) rotate(-53.91)"/><ellipse class="cls-19" cx="177.53" cy="131.24" rx="35.82" ry="30.36" transform="translate(-33.1 197.4) rotate(-53.91)"/><ellipse class="cls-20" cx="181.8" cy="137.07" rx="35.82" ry="30.36" transform="translate(-36.06 203.24) rotate(-53.91)"/><ellipse class="cls-21" cx="186.65" cy="143.14" rx="35.82" ry="30.36" transform="translate(-38.97 209.66) rotate(-53.91)"/><ellipse class="cls-22" cx="191.82" cy="149.35" rx="35.82" ry="30.36" transform="translate(-41.86 216.38) rotate(-53.91)"/><ellipse class="cls-23" cx="197.02" cy="155.56" rx="35.82" ry="30.36" transform="translate(-44.75 223.14) rotate(-53.91)"/><ellipse class="cls-24" cx="201.98" cy="161.68" rx="35.82" ry="30.36" transform="translate(-47.65 229.65) rotate(-53.91)"/><ellipse class="cls-25" cx="206.41" cy="167.58" rx="35.82" ry="30.36" transform="translate(-50.6 235.66) rotate(-53.91)"/><ellipse class="cls-26" cx="210.24" cy="173.5" rx="35.82" ry="30.36" transform="translate(-53.81 241.2) rotate(-53.91)"/><ellipse class="cls-27" cx="213.33" cy="180.46" rx="35.82" ry="30.36" transform="translate(-58.16 246.54) rotate(-53.91)"/><ellipse class="cls-28" cx="213.52" cy="186.22" rx="35.82" ry="30.36" transform="translate(-62.74 249.06) rotate(-53.91)"/><ellipse class="cls-29" cx="210.95" cy="189.82" rx="35.82" ry="30.36" transform="translate(-66.7 248.47) rotate(-53.91)"/><ellipse class="cls-30" cx="207.15" cy="191.29" rx="35.82" ry="30.36" transform="translate(-69.45 246) rotate(-53.91)"/><ellipse class="cls-31" cx="202.18" cy="191.36" rx="35.82" ry="30.36" transform="translate(-71.56 242.01) rotate(-53.91)"/><ellipse class="cls-32" cx="196.24" cy="190.3" rx="35.82" ry="30.36" transform="translate(-73.13 236.78) rotate(-53.91)"/><ellipse class="cls-33" cx="189.56" cy="188.33" rx="35.82" ry="30.36" transform="translate(-74.29 230.58) rotate(-53.91)"/><ellipse class="cls-34" cx="182.33" cy="185.72" rx="35.82" ry="30.36" transform="translate(-75.15 223.66) rotate(-53.91)"/><ellipse class="cls-35" cx="174.77" cy="182.71" rx="35.82" ry="30.36" transform="translate(-75.83 216.31) rotate(-53.91)"/><ellipse class="cls-36" cx="167.07" cy="179.55" rx="35.82" ry="30.36" transform="translate(-76.43 208.79) rotate(-53.91)"/><ellipse class="cls-37" cx="159.46" cy="176.47" rx="35.82" ry="30.36" transform="translate(-77.08 201.38) rotate(-53.91)"/><ellipse class="cls-38" cx="152.13" cy="173.75" rx="35.82" ry="30.36" transform="translate(-77.89 194.34) rotate(-53.91)"/><ellipse class="cls-39" cx="145.3" cy="171.61" rx="35.82" ry="30.36" transform="translate(-78.96 187.94) rotate(-53.91)"/><ellipse class="cls-40" cx="139.17" cy="170.31" rx="35.82" ry="30.36" transform="translate(-80.43 182.45) rotate(-53.91)"/><ellipse class="cls-41" cx="133.96" cy="170.1" rx="35.82" ry="30.36" transform="translate(-82.4 178.15) rotate(-53.91)"/><path class="cls-42" d="M0,392.05C0,381.65,8,374,18.65,374a18.82,18.82,0,0,1,14.4,5.95l-5.55,5.15a10.94,10.94,0,0,0-8.45-3.7c-5.75,0-10.2,4.25-10.2,10.65S13.3,402.7,19,402.7A11.67,11.67,0,0,0,27.6,399l5.55,5.1c-3.45,4.1-8.5,6.1-14.2,6.1C8.2,410.15,0,402.45,0,392.05Z"/><path class="cls-42" d="M60.75,409.55l-2.4-5.9H41.85l-2.45,5.9H30.5l15.35-35h8.6l15.4,35ZM44.55,397.1h11.1l-5.5-13.45Z"/><path class="cls-42" d="M70.6,409.55v-35h7.3L95,395.4V374.55h8.6v35h-7L79.2,388.35v21.2Z"/><path class="cls-42" d="M119.2,409.55l-14.85-35h9.1l10,25.1h.1l10-25.1h9.1l-14.9,35Z"/><path class="cls-42" d="M164.3,409.55l-2.4-5.9H145.4l-2.45,5.9h-8.9l15.35-35H158l15.4,35ZM148.1,397.1h11.1l-5.5-13.45Z"/><path class="cls-42" d="M171.85,405.3l3.5-6.2a23.31,23.31,0,0,0,12.3,4.1c3.4,0,5.35-1.35,5.35-3.25,0-2.45-2.1-3.2-6.9-4.2-8-1.7-13.3-4.6-13.3-11.2,0-7,6.15-10.6,14.15-10.6a21.38,21.38,0,0,1,13.65,4.4L196.45,384a16.62,16.62,0,0,0-9.55-3.1c-3.35,0-5.3,1-5.3,3.35,0,2,1.8,3.15,6.8,4.25,8.8,1.85,13.4,4.3,13.4,10.7,0,6.85-6.15,10.95-14.45,10.95A25.56,25.56,0,0,1,171.85,405.3Z"/><path class="cls-42" d="M213,405.3l3.5-6.2a23.31,23.31,0,0,0,12.3,4.1c3.4,0,5.35-1.35,5.35-3.25,0-2.45-2.1-3.2-6.9-4.2-8-1.7-13.3-4.6-13.3-11.2,0-7,6.15-10.6,14.15-10.6a21.38,21.38,0,0,1,13.65,4.4L237.6,384a16.62,16.62,0,0,0-9.55-3.1c-3.35,0-5.3,1-5.3,3.35,0,2,1.8,3.15,6.8,4.25,8.8,1.85,13.4,4.3,13.4,10.7,0,6.85-6.15,10.95-14.45,10.95A25.56,25.56,0,0,1,213,405.3Z"/><path class="cls-42" d="M268.5,374.55h8.65v35H268.5V395.8H253.35v13.75H244.7v-35h8.65v13.9H268.5Z"/><path class="cls-42" d="M308.15,409.55l-2.4-5.9h-16.5l-2.45,5.9h-8.9l15.35-35h8.6l15.4,35ZM292,397.1h11.1l-5.5-13.45Z"/><path class="cls-42" d="M339.5,409.55l-8.6-10.8h-4.3v10.8H318v-35h15.2c9.7,0,15.55,4.5,15.55,12.15,0,5.6-3.1,9.45-8.6,11.1l9.35,11.75ZM326.6,381.7v10.15H333c4.55,0,7.2-1.4,7.2-5s-2.65-5.15-7.2-5.15Z"/><path class="cls-42" d="M359.15,402.45H379.7v7.1h-29v-35h28.5v7.1H359.15v6.6H376.9V395H359.15Z"/></g></g></svg>